Triodion.ufo
<glyph name="exclam" format="2">
  <advance width="187"/>
  <unicode hex="0021"/>
  <outline>
    <contour>
      <point x="116" y="225" type="curve" smooth="yes"/>
      <point x="115" y="218"/>
      <point x="110" y="214"/>
      <point x="103" y="214" type="curve" smooth="yes"/>
      <point x="97" y="214"/>
      <point x="92" y="221"/>
      <point x="91" y="226" type="curve" smooth="yes"/>
      <point x="76" y="356"/>
      <point x="46" y="551"/>
      <point x="24" y="680" type="curve" smooth="yes"/>
      <point x="22" y="689"/>
      <point x="31" y="700"/>
      <point x="40" y="700" type="curve" smooth="yes"/>
      <point x="136" y="698" type="line" smooth="yes"/>
      <point x="145" y="698"/>
      <point x="152" y="691"/>
      <point x="152" y="682" type="curve" smooth="yes"/>
      <point x="149" y="545"/>
      <point x="135" y="364"/>
    </contour>
    <contour>
      <point x="93" y="140" type="curve" smooth="yes"/>
      <point x="132" y="140"/>
      <point x="165" y="107"/>
      <point x="165" y="68" type="curve" smooth="yes"/>
      <point x="165" y="29"/>
      <point x="132" y="-3"/>
      <point x="93" y="-3" type="curve" smooth="yes"/>
      <point x="54" y="-3"/>
      <point x="21" y="29"/>
      <point x="21" y="68" type="curve" smooth="yes"/>
      <point x="21" y="107"/>
      <point x="54" y="140"/>
    </contour>
  </outline>
</glyph>
<glyph name="ampersand" format="2">
  <advance width="544"/>
  <unicode hex="0026"/>
  <outline>
    <contour>
      <point x="268" y="468" type="curve" smooth="yes"/>
      <point x="268" y="506"/>
      <point x="249" y="537"/>
      <point x="211" y="537" type="curve" smooth="yes"/>
      <point x="170" y="537"/>
      <point x="154" y="493"/>
      <point x="154" y="452" type="curve" smooth="yes"/>
      <point x="154" y="414"/>
      <point x="166" y="381"/>
      <point x="179" y="352" type="curve"/>
      <point x="209" y="369"/>
      <point x="234" y="387"/>
      <point x="251" y="412" type="curve" smooth="yes"/>
      <point x="261" y="429"/>
      <point x="268" y="445"/>
    </contour>
    <contour>
      <point x="301" y="73" type="curve"/>
      <point x="243" y="134"/>
      <point x="186" y="203"/>
      <point x="146" y="281" type="curve"/>
      <point x="109" y="249"/>
      <point x="73" y="214"/>
      <point x="73" y="149" type="curve" smooth="yes"/>
      <point x="73" y="93"/>
      <point x="103" y="56"/>
      <point x="145" y="41" type="curve" smooth="yes"/>
      <point x="158" y="36"/>
      <point x="173" y="34"/>
      <point x="187" y="34" type="curve" smooth="yes"/>
      <point x="236" y="34"/>
      <point x="273" y="51"/>
    </contour>
    <contour>
      <point x="298" y="293" type="line"/>
      <point x="304" y="300"/>
      <point x="318" y="310"/>
      <point x="328" y="314" type="curve"/>
      <point x="505" y="314" type="line"/>
      <point x="514" y="299" type="line"/>
      <point x="502" y="284"/>
      <point x="490" y="274"/>
      <point x="475" y="264" type="curve"/>
      <point x="456" y="273"/>
      <point x="431" y="279"/>
      <point x="406" y="280" type="curve"/>
      <point x="416" y="263"/>
      <point x="419" y="245"/>
      <point x="419" y="217" type="curve" smooth="yes"/>
      <point x="419" y="169"/>
      <point x="396" y="127"/>
      <point x="372" y="96" type="curve"/>
      <point x="390" y="78"/>
      <point x="407" y="63"/>
      <point x="422" y="51" type="curve" smooth="yes"/>
      <point x="435.909" y="39.2872"/>
      <point x="451.426" y="31.8616"/>
      <point x="471.688" y="31.8616" type="curve" smooth="yes"/>
      <point x="479.105" y="31.8616"/>
      <point x="487.158" y="32.8564"/>
      <point x="496" y="35" type="curve"/>
      <point x="500" y="18" type="line"/>
      <point x="476" y="8"/>
      <point x="457" y="0"/>
      <point x="441" y="-5" type="curve" smooth="yes"/>
      <point x="425" y="-10"/>
      <point x="414" y="-12"/>
      <point x="408" y="-12" type="curve" smooth="yes"/>
      <point x="403" y="-12"/>
      <point x="392" y="-7"/>
      <point x="378" y="4" type="curve" smooth="yes"/>
      <point x="363" y="15"/>
      <point x="346" y="29"/>
      <point x="327" y="48" type="curve"/>
      <point x="290" y="16"/>
      <point x="239" y="-12"/>
      <point x="175" y="-12" type="curve" smooth="yes"/>
      <point x="97" y="-12"/>
      <point x="44" y="19"/>
      <point x="20" y="75" type="curve" smooth="yes"/>
      <point x="12" y="94"/>
      <point x="8" y="116"/>
      <point x="8" y="141" type="curve" smooth="yes"/>
      <point x="8" y="178"/>
      <point x="23" y="207"/>
      <point x="39" y="232" type="curve" smooth="yes"/>
      <point x="62" y="266"/>
      <point x="93" y="295"/>
      <point x="128" y="320" type="curve"/>
      <point x="115" y="352"/>
      <point x="103" y="388"/>
      <point x="103" y="429" type="curve" smooth="yes"/>
      <point x="103" y="497"/>
      <point x="138" y="546"/>
      <point x="184" y="569" type="curve" smooth="yes"/>
      <point x="199" y="576"/>
      <point x="216" y="580"/>
      <point x="232" y="580" type="curve" smooth="yes"/>
      <point x="294" y="580"/>
      <point x="323" y="542"/>
      <point x="323" y="482" type="curve" smooth="yes"/>
      <point x="323" y="454"/>
      <point x="314" y="427"/>
      <point x="297" y="403" type="curve" smooth="yes"/>
      <point x="280" y="379"/>
      <point x="255" y="357"/>
      <point x="223" y="337" type="curve" smooth="yes"/>
      <point x="214" y="331"/>
      <point x="205" y="325"/>
      <point x="196" y="318" type="curve"/>
      <point x="235" y="245"/>
      <point x="289" y="179"/>
      <point x="345" y="122" type="curve"/>
      <point x="359" y="143"/>
      <point x="371" y="170"/>
      <point x="371" y="201" type="curve" smooth="yes"/>
      <point x="371" y="236"/>
      <point x="353" y="263"/>
      <point x="330" y="276" type="curve" smooth="yes"/>
      <point x="322" y="280"/>
      <point x="315" y="282"/>
      <point x="307" y="282" type="curve"/>
    </contour>
  </outline>
</glyph>
<glyph name="parenleft" format="2">
  <advance width="319"/>
  <unicode hex="0028"/>
  <outline>
    <contour>
      <point x="165.879" y="313.44" type="curve" smooth="yes"/>
      <point x="165.879" y="81.7233"/>
      <point x="196.663" y="-221.337"/>
      <point x="363" y="-265" type="curve"/>
      <point x="363" y="-289" type="line"/>
      <point x="176" y="-267"/>
      <point x="51" y="31"/>
      <point x="51" y="286" type="curve" smooth="yes"/>
      <point x="50.9642" y="288.984"/>
      <point x="50.9463" y="291.976"/>
      <point x="50.9463" y="294.976" type="curve" smooth="yes"/>
      <point x="50.9463" y="543.267"/>
      <point x="173.292" y="842.418"/>
      <point x="363" y="877" type="curve"/>
      <point x="363" y="858" type="line"/>
      <point x="191.949" y="814.757"/>
      <point x="165.879" y="540.652"/>
    </contour>
  </outline>
</glyph>
<glyph name="period" format="2">
  <advance width="176"/>
  <unicode hex="002E"/>
  <outline>
    <contour>
      <point x="83" y="140" type="curve" smooth="yes"/>
      <point x="122" y="140"/>
      <point x="155" y="107"/>
      <point x="155" y="68" type="curve" smooth="yes"/>
      <point x="155" y="29"/>
      <point x="122" y="-3"/>
      <point x="83" y="-3" type="curve" smooth="yes"/>
      <point x="44" y="-3"/>
      <point x="11" y="29"/>
      <point x="11" y="68" type="curve" smooth="yes"/>
      <point x="11" y="107"/>
      <point x="44" y="140"/>
    </contour>
  </outline>
</glyph>
<glyph name="colon" format="2">
  <advance width="204"/>
  <unicode hex="003A"/>
  <outline>
    <contour>
      <point x="36" y="356" type="line" smooth="yes"/>
      <point x="32" y="361"/>
      <point x="32" y="366"/>
      <point x="36" y="371" type="curve" smooth="yes"/>
      <point x="95" y="444" type="line" smooth="yes"/>
      <point x="99" y="449"/>
      <point x="107" y="449"/>
      <point x="111" y="444" type="curve" smooth="yes"/>
      <point x="173" y="367" type="line" smooth="yes"/>
      <point x="176" y="363"/>
      <point x="176" y="357"/>
      <point x="173" y="353" type="curve" smooth="yes"/>
      <point x="114" y="279" type="line" smooth="yes"/>
      <point x="110" y="274"/>
      <point x="102" y="274"/>
      <point x="98" y="279" type="curve" smooth="yes"/>
    </contour>
    <contour>
      <point x="36" y="82" type="line" smooth="yes"/>
      <point x="32" y="87"/>
      <point x="32" y="92"/>
      <point x="36" y="97" type="curve" smooth="yes"/>
      <point x="95" y="170" type="line" smooth="yes"/>
      <point x="99" y="175"/>
      <point x="107" y="175"/>
      <point x="111" y="170" type="curve" smooth="yes"/>
      <point x="173" y="93" type="line" smooth="yes"/>
      <point x="176" y="89"/>
      <point x="176" y="83"/>
      <point x="173" y="79" type="curve" smooth="yes"/>
      <point x="114" y="5" type="line" smooth="yes"/>
      <point x="110" y="0"/>
      <point x="102" y="0"/>
      <point x="98" y="5" type="curve" smooth="yes"/>
    </contour>
  </outline>
</glyph>
<glyph name="bracketleft" format="2">
  <advance width="304"/>
  <unicode hex="005B"/>
  <outline>
    <contour>
      <point x="304" y="-240" type="line"/>
      <point x="56" y="-240" type="line"/>
      <point x="56" y="800" type="line"/>
      <point x="304" y="800" type="line"/>
      <point x="304" y="760" type="line"/>
      <point x="138" y="760" type="line"/>
      <point x="138" y="-200" type="line"/>
      <point x="304" y="-200" type="line"/>
    </contour>
  </outline>
</glyph>
<glyph name="underscore" format="2">
  <advance width="465"/>
  <unicode hex="005F"/>
  <outline>
    <contour>
      <point x="438" y="0" type="line"/>
      <point x="27" y="0" type="line"/>
      <point x="27" y="70" type="line"/>
      <point x="438" y="70" type="line"/>
    </contour>
  </outline>
</glyph>
<glyph name="asciitilde" format="2">
  <advance width="500"/>
  <unicode hex="007E"/>
  <outline>
    <contour>
      <point x="22" y="150" type="curve"/>
      <point x="34" y="214"/>
      <point x="88" y="278"/>
      <point x="150" y="278" type="curve" smooth="yes"/>
      <point x="172" y="278"/>
      <point x="200" y="264"/>
      <point x="224" y="246" type="curve" smooth="yes"/>
      <point x="252" y="226"/>
      <point x="274" y="212"/>
      <point x="296" y="212" type="curve" smooth="yes"/>
      <point x="324" y="212"/>
      <point x="374" y="230"/>
      <point x="396" y="280" type="curve"/>
      <point x="404" y="280"/>
      <point x="409" y="278"/>
      <point x="412" y="274" type="curve" smooth="yes"/>
      <point x="382" y="166"/>
      <point x="316" y="154"/>
      <point x="292" y="154" type="curve" smooth="yes"/>
      <point x="270" y="154"/>
      <point x="240" y="168"/>
      <point x="216" y="186" type="curve" smooth="yes"/>
      <point x="192" y="205"/>
      <point x="168" y="218"/>
      <point x="144" y="218" type="curve" smooth="yes"/>
      <point x="108" y="218"/>
      <point x="62" y="190"/>
      <point x="38" y="146" type="curve"/>
      <point x="32" y="146"/>
      <point x="27" y="146"/>
    </contour>
  </outline>
</glyph>
<glyph name="guillemotleft" format="2">
  <advance width="510"/>
  <unicode hex="00AB"/>
  <outline>
    <contour>
      <point x="497" y="-5" type="line"/>
      <point x="439" y="-5" type="line"/>
      <point x="255" y="218" type="line"/>
      <point x="439" y="437" type="line"/>
      <point x="497" y="437" type="line"/>
      <point x="384" y="218" type="line"/>
    </contour>
    <contour>
      <point x="285" y="-5" type="line"/>
      <point x="229" y="-5" type="line"/>
      <point x="48" y="218" type="line"/>
      <point x="229" y="437" type="line"/>
      <point x="285" y="437" type="line"/>
      <point x="171" y="218" type="line"/>
    </contour>
  </outline>
</glyph>
<glyph name="logicalnot" format="2">
  <advance width="466"/>
  <unicode hex="00AC"/>
  <outline>
    <contour>
      <point x="440" y="66" type="line"/>
      <point x="380" y="66" type="line"/>
      <point x="380" y="166" type="line"/>
      <point x="25" y="165" type="line"/>
      <point x="25" y="235" type="line"/>
      <point x="440" y="235" type="line"/>
    </contour>
  </outline>
</glyph>
<glyph name="paragraph" format="2">
  <advance width="614"/>
  <unicode hex="00B6"/>
  <outline>
    <contour>
      <point x="235" y="-277" type="line"/>
      <point x="235" y="273" type="line"/>
      <point x="177" y="274"/>
      <point x="131" y="293"/>
      <point x="96" y="329" type="curve" smooth="yes"/>
      <point x="63" y="365"/>
      <point x="43" y="404"/>
      <point x="35" y="447" type="curve" smooth="yes"/>
      <point x="35" y="453.667"/>
      <point x="33.6667" y="473.222"/>
      <point x="33.6667" y="484.037" type="curve" smooth="yes"/>
      <point x="33.6667" y="488.475"/>
      <point x="33.8912" y="491.441"/>
      <point x="34.5244" y="491.441" type="curve" smooth="yes"/>
      <point x="34.6627" y="491.441"/>
      <point x="34.8207" y="491.299"/>
      <point x="35" y="491" type="curve"/>
      <point x="36" y="536"/>
      <point x="55" y="578"/>
      <point x="89" y="616" type="curve" smooth="yes"/>
      <point x="124" y="654"/>
      <point x="172" y="674"/>
      <point x="235" y="678" type="curve"/>
      <point x="315" y="678" type="line"/>
      <point x="315" y="-277" type="line"/>
    </contour>
    <contour>
      <point x="396" y="-277" type="line"/>
      <point x="396" y="678" type="line"/>
      <point x="477" y="678" type="line"/>
      <point x="477" y="-277" type="line"/>
    </contour>
  </outline>
</glyph>
<glyph name="guillemotright" format="2">
  <advance width="510"/>
  <unicode hex="00BB"/>
  <outline>
    <contour>
      <point x="13" y="437" type="line"/>
      <point x="71" y="437" type="line"/>
      <point x="255" y="216" type="line"/>
      <point x="71" y="-5" type="line"/>
      <point x="13" y="-5" type="line"/>
      <point x="126" y="216" type="line"/>
    </contour>
    <contour>
      <point x="225" y="437" type="line"/>
      <point x="281" y="437" type="line"/>
      <point x="462" y="216" type="line"/>
      <point x="281" y="-5" type="line"/>
      <point x="225" y="-5" type="line"/>
      <point x="339" y="216" type="line"/>
    </contour>
  </outline>
</glyph>
<glyph name="uni0306" format="2">
  <advance width="1"/>
  <unicode hex="0306"/>
  <anchor x="-202" y="860" name="Stacking"/>
  <anchor x="-233" y="514" name="_Stacking"/>
  <anchor x="-232" y="516" name="_Diacritic"/>
  <outline>
    <contour>
      <point x="-158.462" y="698.177" type="curve" smooth="yes"/>
      <point x="-158.462" y="704.098"/>
      <point x="-159.321" y="709.378"/>
      <point x="-159.321" y="714.953" type="curve" smooth="yes"/>
      <point x="-159.321" y="734.417"/>
      <point x="-148.237" y="743.384"/>
      <point x="-136.062" y="743.384" type="curve" smooth="yes"/>
      <point x="-122.25" y="743.384"/>
      <point x="-107.034" y="731.845"/>
      <point x="-105" y="711" type="curve" smooth="yes"/>
      <point x="-104.009" y="700.295"/>
      <point x="-103.509" y="689.837"/>
      <point x="-103.509" y="679.681" type="curve" smooth="yes"/>
      <point x="-103.509" y="587.983"/>
      <point x="-144.267" y="520.991"/>
      <point x="-232.235" y="520.991" type="curve" smooth="yes"/>
      <point x="-296.17" y="520.991"/>
      <point x="-322.645" y="570.279"/>
      <point x="-322.645" y="626.264" type="curve" smooth="yes"/>
      <point x="-322.645" y="661.904"/>
      <point x="-311.819" y="699.987"/>
      <point x="-293" y="729" type="curve" smooth="yes"/>
      <point x="-286.486" y="739.345"/>
      <point x="-275.715" y="744.405"/>
      <point x="-265.974" y="744.405" type="curve" smooth="yes"/>
      <point x="-254.515" y="744.405"/>
      <point x="-244.481" y="737.403"/>
      <point x="-244.481" y="723.764" type="curve" smooth="yes"/>
      <point x="-244.481" y="718.738"/>
      <point x="-245.844" y="712.81"/>
      <point x="-249" y="706" type="curve" smooth="yes"/>
      <point x="-255.705" y="691.583"/>
      <point x="-258.926" y="675.93"/>
      <point x="-258.926" y="661.377" type="curve" smooth="yes"/>
      <point x="-258.926" y="631.082"/>
      <point x="-245.691" y="605.833"/>
      <point x="-218.882" y="605.833" type="curve" smooth="yes"/>
      <point x="-176.307" y="605.833"/>
      <point x="-158.462" y="660.477"/>
    </contour>
  </outline>
</glyph>
<glyph name="uni0308" format="2">
  <advance width="1"/>
  <unicode hex="0308"/>
  <anchor x="-242" y="862" name="Stacking"/>
  <anchor x="-203" y="516" name="_Stacking"/>
  <anchor x="-205" y="518" name="_Diacritic"/>
  <outline>
    <contour>
      <point x="-204" y="643" type="line" smooth="yes"/>
      <point x="-206" y="649"/>
      <point x="-202" y="656"/>
      <point x="-195" y="656" type="curve" smooth="yes"/>
      <point x="-149" y="656" type="line" smooth="yes"/>
      <point x="-144" y="656"/>
      <point x="-139" y="648"/>
      <point x="-138" y="643" type="curve" smooth="yes"/>
      <point x="-109" y="534" type="line" smooth="yes"/>
      <point x="-107" y="528"/>
      <point x="-113" y="521"/>
      <point x="-120" y="521" type="curve" smooth="yes"/>
      <point x="-162" y="521" type="line" smooth="yes"/>
      <point x="-167" y="521"/>
      <point x="-174" y="529"/>
      <point x="-175" y="534" type="curve" smooth="yes"/>
    </contour>
    <contour>
      <point x="-330" y="643" type="line" smooth="yes"/>
      <point x="-332" y="649"/>
      <point x="-328" y="656"/>
      <point x="-321" y="656" type="curve" smooth="yes"/>
      <point x="-277" y="656" type="line" smooth="yes"/>
      <point x="-272" y="656"/>
      <point x="-265" y="648"/>
      <point x="-264" y="643" type="curve" smooth="yes"/>
      <point x="-235" y="534" type="line" smooth="yes"/>
      <point x="-233" y="528"/>
      <point x="-239" y="521"/>
      <point x="-246" y="521" type="curve" smooth="yes"/>
      <point x="-288" y="521" type="line" smooth="yes"/>
      <point x="-293" y="521"/>
      <point x="-300" y="529"/>
      <point x="-301" y="534" type="curve" smooth="yes"/>
    </contour>
  </outline>
</glyph>
<glyph name="uni0311" format="2">
  <advance width="1"/>
  <unicode hex="0311"/>
  <anchor x="-222" y="880" name="Stacking"/>
  <anchor x="-223" y="534" name="_Stacking"/>
  <anchor x="-225" y="535" name="_Diacritic"/>
  <outline>
    <contour>
      <point x="-58" y="536" type="curve"/>
      <point x="-118" y="536" type="line"/>
      <point x="-119" y="610"/>
      <point x="-156" y="674"/>
      <point x="-222" y="674" type="curve" smooth="yes"/>
      <point x="-284.265" y="674"/>
      <point x="-326.017" y="614.415"/>
      <point x="-326.017" y="538.687" type="curve" smooth="yes"/>
      <point x="-326.017" y="537.794"/>
      <point x="-326.012" y="536.898"/>
      <point x="-326" y="536" type="curve"/>
      <point x="-386" y="536" type="line"/>
      <point x="-386.007" y="536.79"/>
      <point x="-386.01" y="537.578"/>
      <point x="-386.01" y="538.364" type="curve" smooth="yes"/>
      <point x="-386.01" y="652.136"/>
      <point x="-314.361" y="734"/>
      <point x="-222" y="734" type="curve" smooth="yes"/>
      <point x="-124" y="734"/>
      <point x="-59" y="646"/>
    </contour>
  </outline>
</glyph>
<glyph name="uni033E" format="2">
  <advance width="1"/>
  <unicode hex="033E"/>
  <anchor x="-130" y="874" name="Stacking"/>
  <anchor x="-143" y="528" name="_Stacking"/>
  <anchor x="-172" y="529" name="_Yerok"/>
  <outline>
    <contour>
      <point x="-90" y="739" type="curve" smooth="yes"/>
      <point x="-87.0019" y="740.578"/>
      <point x="-84.2029" y="741.284"/>
      <point x="-81.6739" y="741.284" type="curve" smooth="yes"/>
      <point x="-73.3851" y="741.284"/>
      <point x="-67.9958" y="733.696"/>
      <point x="-67.9958" y="724.328" type="curve" smooth="yes"/>
      <point x="-67.9958" y="718.441"/>
      <point x="-70.1245" y="711.851"/>
      <point x="-75" y="706" type="curve" smooth="yes"/>
      <point x="-84" y="695"/>
      <point x="-103" y="675"/>
      <point x="-115" y="665" type="curve" smooth="yes"/>
      <point x="-117" y="663"/>
      <point x="-114" y="659"/>
      <point x="-112" y="657" type="curve" smooth="yes"/>
      <point x="-102" y="646"/>
      <point x="-90" y="633"/>
      <point x="-78" y="620" type="curve" smooth="yes"/>
      <point x="-73.7256" y="615.251"/>
      <point x="-71.4812" y="609.148"/>
      <point x="-71.4812" y="603.192" type="curve" smooth="yes"/>
      <point x="-71.4812" y="596.607"/>
      <point x="-74.2243" y="590.201"/>
      <point x="-80" y="586" type="curve" smooth="yes"/>
      <point x="-111" y="563"/>
      <point x="-145" y="545"/>
      <point x="-169" y="531" type="curve" smooth="yes"/>
      <point x="-170.939" y="529.869"/>
      <point x="-173.297" y="529.364"/>
      <point x="-175.831" y="529.364" type="curve" smooth="yes"/>
      <point x="-186.134" y="529.364"/>
      <point x="-199.367" y="537.7"/>
      <point x="-199.367" y="546.149" type="curve" smooth="yes"/>
      <point x="-199.367" y="548.482"/>
      <point x="-198.358" y="550.823"/>
      <point x="-196" y="553" type="curve" smooth="yes"/>
      <point x="-184" y="564"/>
      <point x="-172" y="579"/>
      <point x="-161" y="591" type="curve" smooth="yes"/>
      <point x="-159" y="593"/>
      <point x="-159" y="598"/>
      <point x="-162" y="601" type="curve" smooth="yes"/>
      <point x="-167" y="607"/>
      <point x="-187" y="630"/>
      <point x="-195" y="640" type="curve" smooth="yes"/>
      <point x="-199.266" y="645.119"/>
      <point x="-201.166" y="651.331"/>
      <point x="-201.166" y="657.314" type="curve" smooth="yes"/>
      <point x="-201.166" y="665.356"/>
      <point x="-197.734" y="672.986"/>
      <point x="-192" y="677" type="curve" smooth="yes"/>
      <point x="-160" y="699"/>
      <point x="-120" y="724"/>
    </contour>
  </outline>
</glyph>
<glyph name="uni0402" format="2">
  <advance width="750"/>
  <unicode hex="0402"/>
  <anchor x="476" y="737" name="Yerok"/>
  <anchor x="361" y="737" name="Diacritic"/>
  <outline>
    <contour>
      <point x="20" y="676" type="line"/>
      <point x="655" y="676" type="line" smooth="yes"/>
      <point x="664" y="676"/>
      <point x="669" y="669"/>
      <point x="669" y="660" type="curve" smooth="yes"/>
      <point x="669" y="650"/>
      <point x="665" y="641"/>
      <point x="659" y="636" type="curve" smooth="yes"/>
      <point x="633" y="620"/>
      <point x="610" y="579"/>
      <point x="594" y="545" type="curve" smooth="yes"/>
      <point x="594" y="541"/>
      <point x="580" y="541"/>
      <point x="580" y="545" type="curve" smooth="yes"/>
      <point x="569" y="574"/>
      <point x="546" y="618"/>
      <point x="516" y="636" type="curve"/>
      <point x="414" y="636" type="line"/>
      <point x="414" y="376" type="line"/>
      <point x="471" y="376" type="line" smooth="yes"/>
      <point x="496" y="376"/>
      <point x="516" y="373"/>
      <point x="541" y="369" type="curve" smooth="yes"/>
      <point x="706" y="344"/>
      <point x="730" y="275"/>
      <point x="730" y="136" type="curve" smooth="yes"/>
      <point x="730" y="-23"/>
      <point x="679" y="-45"/>
      <point x="576" y="-101" type="curve" smooth="yes"/>
      <point x="567" y="-106"/>
      <point x="543" y="-118"/>
      <point x="533" y="-124" type="curve"/>
      <point x="533" y="-124"/>
      <point x="517.8" y="-130.825"/>
      <point x="509.687" y="-130.825" type="curve" smooth="yes"/>
      <point x="506.735" y="-130.825"/>
      <point x="504.721" y="-129.92"/>
      <point x="504.721" y="-127.454" type="curve" smooth="yes"/>
      <point x="504.721" y="-124.53"/>
      <point x="507.55" y="-119.411"/>
      <point x="515" y="-111" type="curve" smooth="yes"/>
      <point x="573" y="-47"/>
      <point x="596" y="-20"/>
      <point x="606" y="36" type="curve" smooth="yes"/>
      <point x="606" y="42"/>
      <point x="609" y="56"/>
      <point x="609" y="71" type="curve" smooth="yes"/>
      <point x="609" y="119" type="line" smooth="yes"/>
      <point x="609" y="253"/>
      <point x="606" y="336"/>
      <point x="449" y="336" type="curve" smooth="yes"/>
      <point x="438" y="336"/>
      <point x="425" y="335"/>
      <point x="414" y="335" type="curve"/>
      <point x="414" y="40" type="line"/>
      <point x="466" y="40" type="line"/>
      <point x="466" y="0" type="line"/>
      <point x="243" y="0" type="line"/>
      <point x="243" y="40" type="line"/>
      <point x="297" y="40" type="line"/>
      <point x="297" y="636" type="line"/>
      <point x="180" y="636" type="line"/>
      <point x="180" y="416" type="line"/>
      <point x="74" y="416" type="line"/>
      <point x="74" y="636" type="line"/>
      <point x="20" y="636" type="line"/>
    </contour>
  </outline>
</glyph>
<glyph name="uni0403" format="2">
  <advance width="490"/>
  <unicode hex="0403"/>
  <anchor x="210" y="1034" name="Yerok"/>
  <anchor x="210" y="1034" name="Diacritic"/>
  <outline>
    <contour>
      <point x="182.072" y="738.948" type="curve" smooth="yes"/>
      <point x="167.94" y="738.948"/>
      <point x="161.714" y="750.26"/>
      <point x="161.714" y="762.854" type="curve" smooth="yes"/>
      <point x="161.714" y="767.137"/>
      <point x="162.494" y="771.386"/>
      <point x="164" y="775" type="curve" smooth="yes"/>
      <point x="251" y="971" type="line" smooth="yes"/>
      <point x="255" y="979"/>
      <point x="263" y="985"/>
      <point x="273" y="985" type="curve" smooth="yes"/>
      <point x="330" y="985" type="line" smooth="yes"/>
      <point x="338" y="985"/>
      <point x="347" y="975"/>
      <point x="343" y="968" type="curve" smooth="yes"/>
      <point x="208" y="754" type="line" smooth="yes"/>
      <point x="203.081" y="745.802"/>
      <point x="192.786" y="738.948"/>
    </contour>
    <contour>
      <point x="304" y="636" type="curve" smooth="yes"/>
      <point x="194" y="636" type="line"/>
      <point x="194" y="40" type="line"/>
      <point x="248" y="40" type="line"/>
      <point x="248" y="0" type="line"/>
      <point x="22" y="0" type="line"/>
      <point x="22" y="40" type="line"/>
      <point x="76" y="40" type="line"/>
      <point x="76" y="636" type="line"/>
      <point x="22" y="636" type="line"/>
      <point x="22" y="676" type="line"/>
      <point x="464" y="676" type="line" smooth="yes"/>
      <point x="472.218" y="676"/>
      <point x="475.762" y="669.456"/>
      <point x="475.762" y="661.905" type="curve" smooth="yes"/>
      <point x="475.762" y="653.836"/>
      <point x="471.715" y="644.616"/>
      <point x="465" y="641" type="curve" smooth="yes"/>
      <point x="457" y="637"/>
      <point x="453" y="621"/>
      <point x="451" y="615" type="curve" smooth="yes"/>
      <point x="443" y="585"/>
      <point x="438" y="547"/>
      <point x="436" y="517" type="curve" smooth="yes"/>
      <point x="435.511" y="511.13"/>
      <point x="430.476" y="508.371"/>
      <point x="424.874" y="508.371" type="curve" smooth="yes"/>
      <point x="419.023" y="508.371"/>
      <point x="412.554" y="511.381"/>
      <point x="410" y="517" type="curve" smooth="yes"/>
      <point x="390" y="559"/>
      <point x="368" y="586"/>
      <point x="339" y="620" type="curve" smooth="yes"/>
      <point x="331" y="629"/>
      <point x="319" y="636"/>
    </contour>
  </outline>
</glyph>
<glyph name="afii10054" format="2">
  <advance width="560"/>
  <unicode hex="0405"/>
  <anchor x="440" y="754" name="Yerok"/>
  <anchor x="270" y="754" name="Diacritic"/>
  <outline>
    <contour>
      <point x="399" y="433" type="curve" smooth="yes"/>
      <point x="274" y="316" type="line" smooth="yes"/>
      <point x="281" y="319"/>
      <point x="288" y="321"/>
      <point x="296" y="321" type="curve" smooth="yes"/>
      <point x="415" y="321"/>
      <point x="518" y="272"/>
      <point x="518" y="157" type="curve" smooth="yes"/>
      <point x="518" y="45"/>
      <point x="448" y="-8"/>
      <point x="356" y="-8" type="curve" smooth="yes"/>
      <point x="286" y="-8"/>
      <point x="221" y="10"/>
      <point x="160" y="34" type="curve" smooth="yes"/>
      <point x="156.272" y="35.5977"/>
      <point x="152.402" y="36.4154"/>
      <point x="148.58" y="36.4154" type="curve" smooth="yes"/>
      <point x="138.046" y="36.4154"/>
      <point x="127.87" y="30.2069"/>
      <point x="122" y="17" type="curve" smooth="yes"/>
      <point x="114" y="-1"/>
      <point x="99" y="-17"/>
      <point x="76" y="-17" type="curve" smooth="yes"/>
      <point x="48" y="-17"/>
      <point x="25" y="1"/>
      <point x="25" y="32" type="curve" smooth="yes"/>
      <point x="25" y="65"/>
      <point x="50" y="89"/>
      <point x="82" y="89" type="curve" smooth="yes"/>
      <point x="115" y="89"/>
      <point x="137" y="81"/>
      <point x="167" y="69" type="curve" smooth="yes"/>
      <point x="205" y="54"/>
      <point x="239" y="43"/>
      <point x="279" y="43" type="curve" smooth="yes"/>
      <point x="353" y="43"/>
      <point x="388" y="86"/>
      <point x="388" y="149" type="curve" smooth="yes"/>
      <point x="388" y="232"/>
      <point x="355" y="282"/>
      <point x="286" y="282" type="curve" smooth="yes"/>
      <point x="248" y="282"/>
      <point x="206" y="248"/>
      <point x="175" y="224" type="curve" smooth="yes"/>
      <point x="166" y="216" type="line" smooth="yes"/>
      <point x="161.504" y="211.728"/>
      <point x="156.603" y="209.933"/>
      <point x="151.934" y="209.933" type="curve" smooth="yes"/>
      <point x="140.876" y="209.933"/>
      <point x="131.12" y="220.002"/>
      <point x="131.12" y="231.081" type="curve" smooth="yes"/>
      <point x="131.12" y="236.13"/>
      <point x="133.146" y="241.389"/>
      <point x="138" y="246" type="curve" smooth="yes"/>
      <point x="288" y="385" type="line"/>
      <point x="272" y="382"/>
      <point x="255" y="382"/>
      <point x="234" y="382" type="curve" smooth="yes"/>
      <point x="153" y="382"/>
      <point x="76" y="435"/>
      <point x="76" y="523" type="curve" smooth="yes"/>
      <point x="76" y="622"/>
      <point x="172" y="682"/>
      <point x="271" y="682" type="curve" smooth="yes"/>
      <point x="320" y="682"/>
      <point x="374" y="652"/>
      <point x="389" y="636" type="curve"/>
      <point x="389" y="653" type="line" smooth="yes"/>
      <point x="389" y="666.123"/>
      <point x="401.992" y="672.877"/>
      <point x="414.861" y="672.877" type="curve" smooth="yes"/>
      <point x="427.489" y="672.877"/>
      <point x="440" y="666.373"/>
      <point x="440" y="653" type="curve" smooth="yes"/>
      <point x="440" y="556" type="line" smooth="yes"/>
      <point x="440" y="541.258"/>
      <point x="427.685" y="534.244"/>
      <point x="415.159" y="534.244" type="curve" smooth="yes"/>
      <point x="402.193" y="534.244"/>
      <point x="389" y="541.759"/>
      <point x="389" y="556" type="curve"/>
      <point x="379" y="600"/>
      <point x="349" y="646"/>
      <point x="298" y="646" type="curve" smooth="yes"/>
      <point x="233" y="646"/>
      <point x="192" y="603"/>
      <point x="192" y="530" type="curve" smooth="yes"/>
      <point x="192" y="468"/>
      <point x="225" y="422"/>
      <point x="283" y="422" type="curve" smooth="yes"/>
      <point x="311" y="422"/>
      <point x="337" y="435"/>
      <point x="355" y="448" type="curve" smooth="yes"/>
      <point x="371" y="463" type="line" smooth="yes"/>
      <point x="375.496" y="467.272"/>
      <point x="380.397" y="469.067"/>
      <point x="385.066" y="469.067" type="curve" smooth="yes"/>
      <point x="396.124" y="469.067"/>
      <point x="405.88" y="458.998"/>
      <point x="405.88" y="447.919" type="curve" smooth="yes"/>
      <point x="405.88" y="442.87"/>
      <point x="403.854" y="437.611"/>
    </contour>
  </outline>
</glyph>
<glyph name="afii10055" format="2">
  <advance width="270"/>
  <unicode hex="0406"/>
  <anchor x="140" y="754" name="Yerok"/>
  <anchor x="140" y="754" name="Diacritic"/>
  <outline>
    <contour>
      <point x="248" y="0" type="line"/>
      <point x="22" y="0" type="line"/>
      <point x="22" y="40" type="line"/>
      <point x="76" y="40" type="line"/>
      <point x="76" y="636" type="line"/>
      <point x="22" y="636" type="line"/>
      <point x="22" y="676" type="line"/>
      <point x="248" y="676" type="line"/>
      <point x="248" y="636" type="line"/>
      <point x="194" y="636" type="line"/>
      <point x="194" y="40" type="line"/>
      <point x="248" y="40" type="line"/>
    </contour>
  </outline>
</glyph>
<glyph name="afii10056" format="2">
  <advance width="270"/>
  <unicode hex="0407"/>
  <anchor x="119" y="934" name="Yerok"/>
  <anchor x="120" y="934" name="Diacritic"/>
  <outline>
    <contour>
      <point x="248" y="0" type="line"/>
      <point x="22" y="0" type="line"/>
      <point x="22" y="40" type="line"/>
      <point x="76" y="40" type="line"/>
      <point x="76" y="636" type="line"/>
      <point x="22" y="636" type="line"/>
      <point x="22" y="676" type="line"/>
      <point x="248" y="676" type="line"/>
      <point x="248" y="636" type="line"/>
      <point x="194" y="636" type="line"/>
      <point x="194" y="40" type="line"/>
      <point x="248" y="40" type="line"/>
    </contour>
    <contour>
      <point x="135" y="863" type="line" smooth="yes"/>
      <point x="133" y="869"/>
      <point x="137" y="876"/>
      <point x="144" y="876" type="curve" smooth="yes"/>
      <point x="190" y="876" type="line" smooth="yes"/>
      <point x="195" y="876"/>
      <point x="200" y="868"/>
      <point x="201" y="863" type="curve" smooth="yes"/>
      <point x="230" y="754" type="line" smooth="yes"/>
      <point x="232" y="748"/>
      <point x="226" y="741"/>
      <point x="219" y="741" type="curve" smooth="yes"/>
      <point x="177" y="741" type="line" smooth="yes"/>
      <point x="172" y="741"/>
      <point x="165" y="749"/>
      <point x="164" y="754" type="curve" smooth="yes"/>
    </contour>
    <contour>
      <point x="9" y="863" type="line" smooth="yes"/>
      <point x="7" y="869"/>
      <point x="11" y="876"/>
      <point x="18" y="876" type="curve" smooth="yes"/>
      <point x="62" y="876" type="line" smooth="yes"/>
      <point x="67" y="876"/>
      <point x="74" y="868"/>
      <point x="75" y="863" type="curve" smooth="yes"/>
      <point x="104" y="754" type="line" smooth="yes"/>
      <point x="106" y="748"/>
      <point x="100" y="741"/>
      <point x="93" y="741" type="curve" smooth="yes"/>
      <point x="51" y="741" type="line" smooth="yes"/>
      <point x="46" y="741"/>
      <point x="39" y="749"/>
      <point x="38" y="754" type="curve" smooth="yes"/>
    </contour>
  </outline>
</glyph>
<glyph name="afii10057" format="2">
  <advance width="485"/>
  <unicode hex="0408"/>
  <anchor x="347" y="754" name="Diacritic"/>
  <anchor x="457" y="754" name="Yerok"/>
  <outline>
    <contour>
      <point x="290" y="636" type="line"/>
      <point x="237" y="636" type="line"/>
      <point x="237" y="676" type="line"/>
      <point x="455" y="676" type="line"/>
      <point x="455" y="636" type="line"/>
      <point x="405" y="636" type="line"/>
      <point x="405" y="226" type="line" smooth="yes"/>
      <point x="405" y="186"/>
      <point x="403" y="155"/>
      <point x="400" y="134" type="curve" smooth="yes"/>
      <point x="396" y="112"/>
      <point x="385" y="89"/>
      <point x="367" y="66" type="curve" smooth="yes"/>
      <point x="331" y="18"/>
      <point x="259" y="0"/>
      <point x="191" y="0" type="curve" smooth="yes"/>
      <point x="90" y="0"/>
      <point x="26" y="35"/>
      <point x="26" y="107" type="curve" smooth="yes"/>
      <point x="26" y="128"/>
      <point x="34" y="150"/>
      <point x="49" y="171" type="curve" smooth="yes"/>
      <point x="64" y="192"/>
      <point x="87" y="202"/>
      <point x="118" y="202" type="curve" smooth="yes"/>
      <point x="149" y="202"/>
      <point x="186" y="186"/>
      <point x="201" y="160" type="curve"/>
      <point x="189" y="165"/>
      <point x="181" y="165"/>
      <point x="166" y="165" type="curve" smooth="yes"/>
      <point x="127" y="165"/>
      <point x="110" y="138"/>
      <point x="110" y="102" type="curve" smooth="yes"/>
      <point x="110" y="61"/>
      <point x="142" y="23"/>
      <point x="199" y="23" type="curve" smooth="yes"/>
      <point x="239" y="23"/>
      <point x="264" y="37"/>
      <point x="275" y="64" type="curve" smooth="yes"/>
      <point x="285" y="91"/>
      <point x="290" y="127"/>
      <point x="290" y="172" type="curve" smooth="yes"/>
      <point x="290" y="328" type="line"/>
    </contour>
  </outline>
</glyph>
<glyph name="uni040A" format="2">
  <advance width="810"/>
  <unicode hex="040A"/>
  <anchor x="409" y="737" name="Yerok"/>
  <anchor x="270" y="737" name="Diacritic"/>
  <outline>
    <contour>
      <point x="465" y="343" type="curve"/>
      <point x="465" y="40" type="line"/>
      <point x="629" y="40" type="line"/>
      <point x="629" y="301" type="line"/>
      <point x="610" y="306"/>
      <point x="601" y="310"/>
      <point x="579" y="316" type="curve" smooth="yes"/>
      <point x="530" y="329"/>
      <point x="549" y="323"/>
    </contour>
    <contour>
      <point x="464" y="379" type="line"/>
      <point x="509" y="365"/>
      <point x="544" y="358"/>
      <point x="589" y="349" type="curve" smooth="yes"/>
      <point x="647" y="338"/>
      <point x="694" y="334"/>
      <point x="771" y="334" type="curve"/>
      <point x="771" y="294" type="line"/>
      <point x="746" y="294" type="line"/>
      <point x="746" y="40" type="line"/>
      <point x="790" y="40" type="line"/>
      <point x="790" y="0" type="line"/>
      <point x="623.667" y="-0"/>
      <point x="457.333" y="0"/>
      <point x="291" y="0" type="curve"/>
      <point x="291" y="40" type="line"/>
      <point x="346" y="40" type="line"/>
      <point x="346" y="276" type="line"/>
      <point x="191" y="350" type="line"/>
      <point x="191" y="40" type="line"/>
      <point x="246" y="40" type="line"/>
      <point x="246" y="0" type="line"/>
      <point x="20" y="0" type="line"/>
      <point x="20" y="40" type="line"/>
      <point x="74" y="40" type="line"/>
      <point x="74" y="636" type="line"/>
      <point x="20" y="636" type="line"/>
      <point x="20" y="676" type="line"/>
      <point x="246" y="676" type="line"/>
      <point x="246" y="636" type="line"/>
      <point x="191" y="636" type="line"/>
      <point x="191" y="396" type="line"/>
      <point x="346" y="320" type="line"/>
      <point x="346" y="636" type="line"/>
      <point x="291" y="636" type="line"/>
      <point x="291" y="676" type="line"/>
      <point x="519" y="676" type="line"/>
      <point x="519" y="636" type="line"/>
      <point x="464" y="636" type="line"/>
    </contour>
  </outline>
</glyph>
<glyph name="uni040B" format="2">
  <advance width="760"/>
  <unicode hex="040B"/>
  <anchor x="361" y="737" name="Diacritic"/>
  <anchor x="476" y="737" name="Yerok"/>
  <outline>
    <contour>
      <point x="531" y="40" type="line"/>
      <point x="576" y="40" type="line"/>
      <point x="576" y="197" type="line" smooth="yes"/>
      <point x="576" y="251"/>
      <point x="570" y="335"/>
      <point x="414" y="335" type="curve"/>
      <point x="414" y="40" type="line"/>
      <point x="470" y="40" type="line"/>
      <point x="470" y="0" type="line"/>
      <point x="241" y="0" type="line"/>
      <point x="241" y="40" type="line"/>
      <point x="297" y="40" type="line"/>
      <point x="297" y="636" type="line"/>
      <point x="180" y="636" type="line"/>
      <point x="180" y="416" type="line"/>
      <point x="73" y="416" type="line"/>
      <point x="73" y="636" type="line"/>
      <point x="20" y="636" type="line"/>
      <point x="20" y="676" type="line"/>
      <point x="656" y="676" type="line" smooth="yes"/>
      <point x="665" y="676"/>
      <point x="669" y="669"/>
      <point x="669" y="660" type="curve" smooth="yes"/>
      <point x="669" y="650"/>
      <point x="662" y="641"/>
      <point x="656" y="636" type="curve" smooth="yes"/>
      <point x="630" y="620"/>
      <point x="610" y="579"/>
      <point x="594" y="545" type="curve" smooth="yes"/>
      <point x="594" y="541"/>
      <point x="580" y="541"/>
      <point x="580" y="545" type="curve" smooth="yes"/>
      <point x="569" y="574"/>
      <point x="546" y="618"/>
      <point x="516" y="636" type="curve"/>
      <point x="414" y="636" type="line"/>
      <point x="414" y="376" type="line"/>
      <point x="615" y="371"/>
      <point x="694" y="298"/>
      <point x="694" y="229" type="curve" smooth="yes"/>
      <point x="694" y="40" type="line"/>
      <point x="739" y="40" type="line"/>
      <point x="739" y="0" type="line"/>
      <point x="531" y="0" type="line"/>
    </contour>
  </outline>
</glyph>
<glyph name="uni040C" format="2">
  <advance width="556"/>
  <unicode hex="040C"/>
  <anchor x="270" y="1034" name="Yerok"/>
  <anchor x="270" y="1034" name="Diacritic"/>
  <outline>
    <contour>
      <point x="222.072" y="738.948" type="curve" smooth="yes"/>
      <point x="207.94" y="738.948"/>
      <point x="201.714" y="750.26"/>
      <point x="201.714" y="762.854" type="curve" smooth="yes"/>
      <point x="201.714" y="767.137"/>
      <point x="202.494" y="771.386"/>
      <point x="204" y="775" type="curve" smooth="yes"/>
      <point x="291" y="971" type="line" smooth="yes"/>
      <point x="295" y="979"/>
      <point x="303" y="985"/>
      <point x="313" y="985" type="curve" smooth="yes"/>
      <point x="370" y="985" type="line" smooth="yes"/>
      <point x="378" y="985"/>
      <point x="387" y="975"/>
      <point x="383" y="968" type="curve" smooth="yes"/>
      <point x="248" y="754" type="line" smooth="yes"/>
      <point x="243.081" y="745.802"/>
      <point x="232.786" y="738.948"/>
    </contour>
    <contour>
      <point x="460" y="230" type="curve" smooth="yes"/>
      <point x="483" y="173"/>
      <point x="489" y="127"/>
      <point x="489" y="68" type="curve" smooth="yes"/>
      <point x="489" y="40" type="line"/>
      <point x="533" y="40" type="line"/>
      <point x="533" y="0" type="line"/>
      <point x="318" y="0" type="line"/>
      <point x="318" y="40" type="line"/>
      <point x="362" y="40" type="line"/>
      <point x="362" y="82" type="line" smooth="yes"/>
      <point x="362" y="142"/>
      <point x="360" y="194"/>
      <point x="330" y="257" type="curve" smooth="yes"/>
      <point x="306" y="307"/>
      <point x="272" y="334"/>
      <point x="217" y="335" type="curve" smooth="yes"/>
      <point x="206" y="335"/>
      <point x="195" y="335"/>
      <point x="184" y="335" type="curve"/>
      <point x="184" y="40" type="line"/>
      <point x="228" y="40" type="line"/>
      <point x="228" y="0" type="line"/>
      <point x="22" y="0" type="line"/>
      <point x="22" y="40" type="line"/>
      <point x="66" y="40" type="line"/>
      <point x="66" y="636" type="line"/>
      <point x="22" y="636" type="line"/>
      <point x="22" y="676" type="line"/>
      <point x="228" y="676" type="line"/>
      <point x="228" y="636" type="line"/>
      <point x="184" y="636" type="line"/>
      <point x="184" y="374" type="line"/>
      <point x="194.667" y="374"/>
      <point x="205.333" y="374"/>
      <point x="216" y="374" type="curve" smooth="yes"/>
      <point x="270" y="374"/>
      <point x="288" y="409"/>
      <point x="306" y="459" type="curve" smooth="yes"/>
      <point x="325" y="510"/>
      <point x="332" y="564"/>
      <point x="332" y="603" type="curve" smooth="yes"/>
      <point x="332" y="636" type="line"/>
      <point x="288" y="636" type="line"/>
      <point x="288" y="676" type="line"/>
      <point x="494" y="676" type="line"/>
      <point x="494" y="636" type="line"/>
      <point x="450" y="636" type="line"/>
      <point x="450" y="612" type="line" smooth="yes"/>
      <point x="450" y="555"/>
      <point x="438" y="503"/>
      <point x="402" y="448" type="curve" smooth="yes"/>
      <point x="376" y="410"/>
      <point x="346" y="380"/>
      <point x="310" y="360" type="curve"/>
      <point x="373" y="342"/>
      <point x="431" y="302"/>
    </contour>
  </outline>
</glyph>
<glyph name="uni040E" format="2">
  <advance width="552"/>
  <unicode hex="040E"/>
  <anchor x="320" y="994" name="Yerok"/>
  <anchor x="320" y="994" name="Diacritic"/>
  <outline>
    <contour>
      <point x="339" y="154" type="line"/>
      <point x="333" y="41" type="line"/>
      <point x="413" y="41" type="line"/>
      <point x="413" y="1" type="line"/>
      <point x="203" y="1" type="line"/>
      <point x="203" y="41" type="line"/>
      <point x="292" y="41" type="line"/>
      <point x="298" y="155" type="line"/>
      <point x="303" y="232" type="line"/>
      <point x="114" y="232" type="line"/>
      <point x="114" y="272" type="line"/>
      <point x="168" y="272" type="line"/>
      <point x="161.197" y="355.856"/>
      <point x="114" y="566"/>
      <point x="79" y="636" type="curve"/>
      <point x="25" y="636" type="line"/>
      <point x="25" y="676" type="line"/>
      <point x="266" y="676" type="line"/>
      <point x="266" y="636" type="line"/>
      <point x="212" y="636" type="line"/>
      <point x="238" y="569"/>
      <point x="277.197" y="371.856"/>
      <point x="281" y="272" type="curve"/>
      <point x="305" y="272" type="line"/>
      <point x="306" y="283" type="line" smooth="yes"/>
      <point x="308" y="320"/>
      <point x="326" y="471"/>
      <point x="339" y="507" type="curve" smooth="yes"/>
      <point x="351" y="541"/>
      <point x="365" y="577"/>
      <point x="391" y="612" type="curve" smooth="yes"/>
      <point x="421.608" y="652.812"/>
      <point x="458.724" y="678.442"/>
      <point x="509.106" y="678.442" type="curve" smooth="yes"/>
      <point x="517.98" y="678.442"/>
      <point x="527.266" y="677.647"/>
      <point x="537" y="676" type="curve" smooth="yes"/>
      <point x="547" y="674"/>
      <point x="553" y="663"/>
      <point x="547" y="653" type="curve" smooth="yes"/>
      <point x="537" y="635"/>
      <point x="529" y="621"/>
      <point x="523" y="599" type="curve" smooth="yes"/>
      <point x="517.974" y="579.732"/>
      <point x="515.755" y="565.377"/>
      <point x="515.755" y="548.292" type="curve" smooth="yes"/>
      <point x="515.755" y="544.982"/>
      <point x="515.838" y="541.57"/>
      <point x="516" y="538" type="curve" smooth="yes"/>
      <point x="516" y="530"/>
      <point x="511" y="522"/>
      <point x="502" y="526" type="curve" smooth="yes"/>
      <point x="479" y="536"/>
      <point x="469" y="537"/>
      <point x="446" y="537" type="curve" smooth="yes"/>
      <point x="419" y="537"/>
      <point x="398.85" y="518.133"/>
      <point x="385" y="491" type="curve" smooth="yes"/>
      <point x="370.197" y="462"/>
      <point x="350.793" y="367.967"/>
      <point x="346" y="281" type="curve" smooth="yes"/>
    </contour>
    <contour>
      <point x="210" y="765" type="curve" smooth="yes"/>
      <point x="204.189" y="781.539"/>
      <point x="201.775" y="798.078"/>
      <point x="201.775" y="813.455" type="curve" smooth="yes"/>
      <point x="201.775" y="832.48"/>
      <point x="205.47" y="849.728"/>
      <point x="211" y="863" type="curve" smooth="yes"/>
      <point x="225" y="896"/>
      <point x="246" y="924"/>
      <point x="267" y="940" type="curve" smooth="yes"/>
      <point x="273" y="944"/>
      <point x="289" y="939"/>
      <point x="287" y="933" type="curve" smooth="yes"/>
      <point x="279" y="912"/>
      <point x="270" y="895"/>
      <point x="260" y="864" type="curve" smooth="yes"/>
      <point x="257.409" y="855.794"/>
      <point x="256.123" y="847.541"/>
      <point x="256.123" y="839.644" type="curve" smooth="yes"/>
      <point x="256.123" y="810.975"/>
      <point x="273.07" y="787"/>
      <point x="306" y="787" type="curve" smooth="yes"/>
      <point x="345" y="787"/>
      <point x="368" y="815"/>
      <point x="386" y="849" type="curve" smooth="yes"/>
      <point x="401" y="878"/>
      <point x="408" y="905"/>
      <point x="419" y="925" type="curve" smooth="yes"/>
      <point x="423" y="932"/>
      <point x="440" y="928"/>
      <point x="441" y="921" type="curve" smooth="yes"/>
      <point x="441.643" y="915.214"/>
      <point x="441.964" y="909.153"/>
      <point x="441.964" y="902.875" type="curve" smooth="yes"/>
      <point x="441.964" y="879.857"/>
      <point x="437.643" y="853.929"/>
      <point x="429" y="828" type="curve" smooth="yes"/>
      <point x="407" y="762"/>
      <point x="346" y="713"/>
      <point x="287" y="713" type="curve" smooth="yes"/>
      <point x="247" y="713"/>
      <point x="220" y="737"/>
    </contour>
  </outline>
</glyph>
<glyph name="afii10017" format="2">
  <advance width="521"/>
  <unicode hex="0410"/>
  <anchor x="420" y="754" name="Yerok"/>
  <anchor x="390" y="754" name="Diacritic"/>
  <outline>
    <contour>
      <point x="223.378" y="238.55" type="curve" smooth="yes"/>
      <point x="223.378" y="190.05"/>
      <point x="187.154" y="161.249"/>
      <point x="146" y="158" type="curve"/>
      <point x="146" y="120" type="line" smooth="yes"/>
      <point x="146" y="94"/>
      <point x="166" y="63"/>
      <point x="205" y="42" type="curve" smooth="yes"/>
      <point x="211.905" y="38.0542"/>
      <point x="216.378" y="27.7835"/>
      <point x="216.378" y="18.3869" type="curve" smooth="yes"/>
      <point x="216.378" y="8.73201"/>
      <point x="211.656" y="-1.77636e-15"/>
      <point x="200" y="0" type="curve" smooth="yes"/>
      <point x="36" y="0" type="line" smooth="yes"/>
      <point x="24.8423" y="0"/>
      <point x="20.3723" y="8.23101"/>
      <point x="20.3723" y="17.3877" type="curve" smooth="yes"/>
      <point x="20.3723" y="26.2855"/>
      <point x="24.5932" y="36.0573"/>
      <point x="31" y="40" type="curve" smooth="yes"/>
      <point x="71" y="66"/>
      <point x="91" y="93"/>
      <point x="91" y="120" type="curve" smooth="yes"/>
      <point x="91" y="168" type="line"/>
      <point x="59.1097" y="181.79"/>
      <point x="38.3625" y="208.21"/>
      <point x="38.3625" y="240.214" type="curve" smooth="yes"/>
      <point x="38.3625" y="277.062"/>
      <point x="58.0166" y="301.095"/>
      <point x="85" y="314" type="curve"/>
      <point x="79.9863" y="322.147"/>
      <point x="77.5256" y="333.339"/>
      <point x="77.5256" y="345.543" type="curve" smooth="yes"/>
      <point x="77.5256" y="372.286"/>
      <point x="89.3408" y="403.894"/>
      <point x="112" y="419" type="curve" smooth="yes"/>
      <point x="162" y="452"/>
      <point x="178" y="463"/>
      <point x="220" y="497" type="curve" smooth="yes"/>
      <point x="269" y="537"/>
      <point x="297" y="564"/>
      <point x="327" y="624" type="curve"/>
      <point x="327" y="636" type="line"/>
      <point x="273" y="636" type="line"/>
      <point x="273" y="676" type="line"/>
      <point x="500" y="676" type="line"/>
      <point x="500" y="636" type="line"/>
      <point x="446" y="636" type="line"/>
      <point x="446" y="40" type="line"/>
      <point x="500" y="40" type="line"/>
      <point x="500" y="0" type="line"/>
      <point x="273" y="0" type="line"/>
      <point x="273" y="40" type="line"/>
      <point x="327" y="40" type="line"/>
      <point x="327" y="447" type="line"/>
      <point x="315" y="425"/>
      <point x="301" y="402"/>
      <point x="286" y="383" type="curve" smooth="yes"/>
      <point x="261" y="352"/>
      <point x="236" y="330"/>
      <point x="204" y="310" type="curve" smooth="yes"/>
      <point x="199" y="307"/>
      <point x="194" y="304"/>
      <point x="188" y="302" type="curve"/>
      <point x="209.975" y="286.786"/>
      <point x="223.378" y="264.429"/>
    </contour>
    <contour>
      <point x="265" y="428" type="curve" smooth="yes"/>
      <point x="285" y="454"/>
      <point x="302" y="480"/>
      <point x="315" y="510" type="curve"/>
      <point x="300" y="491"/>
      <point x="282" y="474"/>
      <point x="258" y="452" type="curve" smooth="yes"/>
      <point x="234" y="430"/>
      <point x="197" y="399"/>
      <point x="174" y="382" type="curve" smooth="yes"/>
      <point x="164.486" y="374.864"/>
      <point x="157.486" y="367.1"/>
      <point x="157.486" y="360.701" type="curve" smooth="yes"/>
      <point x="157.486" y="354.338"/>
      <point x="163.622" y="352.406"/>
      <point x="170.311" y="352.406" type="curve" smooth="yes"/>
      <point x="175.911" y="352.406"/>
      <point x="181.898" y="353.759"/>
      <point x="185" y="355" type="curve" smooth="yes"/>
      <point x="209" y="367"/>
      <point x="246" y="403"/>
    </contour>
  </outline>
</glyph>
<glyph name="afii10019" format="2">
  <advance width="539"/>
  <unicode hex="0412"/>
  <anchor x="420" y="754" name="Yerok"/>
  <anchor x="280" y="754" name="Diacritic"/>
  <outline>
    <contour>
      <point x="495" y="276" type="line"/>
      <point x="470" y="276" type="line"/>
      <point x="470" y="40" type="line"/>
      <point x="514" y="40" type="line"/>
      <point x="514" y="0" type="line"/>
      <point x="22" y="0" type="line"/>
      <point x="22" y="40" type="line"/>
      <point x="76" y="40" type="line"/>
      <point x="76" y="507" type="line" smooth="yes"/>
      <point x="76" y="603"/>
      <point x="177" y="680"/>
      <point x="282" y="680" type="curve" smooth="yes"/>
      <point x="413" y="680"/>
      <point x="463" y="619"/>
      <point x="463" y="528" type="curve" smooth="yes"/>
      <point x="463" y="465"/>
      <point x="443" y="408"/>
      <point x="354" y="408" type="curve" smooth="yes"/>
      <point x="315" y="408"/>
      <point x="285" y="422"/>
      <point x="272" y="438" type="curve"/>
      <point x="220" y="350" type="line"/>
      <point x="251" y="342"/>
      <point x="278" y="336"/>
      <point x="312" y="331" type="curve" smooth="yes"/>
      <point x="370" y="320"/>
      <point x="418" y="316"/>
      <point x="495" y="316" type="curve"/>
    </contour>
    <contour>
      <point x="352" y="284" type="line"/>
      <point x="296.616" y="290.923"/>
      <point x="246.189" y="301.892"/>
      <point x="199" y="315" type="curve"/>
      <point x="194" y="306" type="line"/>
      <point x="194" y="40" type="line"/>
      <point x="352" y="40" type="line"/>
    </contour>
    <contour>
      <point x="363.21" y="521.172" type="curve" smooth="yes"/>
      <point x="363.21" y="583.81"/>
      <point x="340.716" y="636"/>
      <point x="282" y="636" type="curve" smooth="yes"/>
      <point x="227" y="636"/>
      <point x="194" y="597"/>
      <point x="194" y="536" type="curve" smooth="yes"/>
      <point x="194" y="385" type="line"/>
      <point x="251" y="481" type="line" smooth="yes"/>
      <point x="254.565" y="487.111"/>
      <point x="261.241" y="490.628"/>
      <point x="268.256" y="490.628" type="curve" smooth="yes"/>
      <point x="275.017" y="490.628"/>
      <point x="282.092" y="487.361"/>
      <point x="287" y="480" type="curve" smooth="yes"/>
      <point x="296" y="467"/>
      <point x="305" y="454"/>
      <point x="323" y="454" type="curve" smooth="yes"/>
      <point x="358.24" y="454"/>
      <point x="363.21" y="488.927"/>
    </contour>
  </outline>
</glyph>
<glyph name="afii10020" format="2">
  <advance width="490"/>
  <unicode hex="0413"/>
  <anchor x="410" y="754" name="Yerok"/>
  <anchor x="260" y="754" name="Diacritic"/>
  <outline>
    <contour>
      <point x="304" y="636" type="curve" smooth="yes"/>
      <point x="194" y="636" type="line"/>
      <point x="194" y="40" type="line"/>
      <point x="248" y="40" type="line"/>
      <point x="248" y="0" type="line"/>
      <point x="22" y="0" type="line"/>
      <point x="22" y="40" type="line"/>
      <point x="76" y="40" type="line"/>
      <point x="76" y="636" type="line"/>
      <point x="22" y="636" type="line"/>
      <point x="22" y="676" type="line"/>
      <point x="464" y="676" type="line" smooth="yes"/>
      <point x="472.218" y="676"/>
      <point x="475.762" y="669.456"/>
      <point x="475.762" y="661.905" type="curve" smooth="yes"/>
      <point x="475.762" y="653.836"/>
      <point x="471.715" y="644.616"/>
      <point x="465" y="641" type="curve" smooth="yes"/>
      <point x="457" y="637"/>
      <point x="453" y="621"/>
      <point x="451" y="615" type="curve" smooth="yes"/>
      <point x="443" y="585"/>
      <point x="438" y="547"/>
      <point x="436" y="517" type="curve" smooth="yes"/>
      <point x="435.511" y="511.13"/>
      <point x="430.476" y="508.371"/>
      <point x="424.874" y="508.371" type="curve" smooth="yes"/>
      <point x="419.023" y="508.371"/>
      <point x="412.554" y="511.381"/>
      <point x="410" y="517" type="curve" smooth="yes"/>
      <point x="390" y="559"/>
      <point x="368" y="586"/>
      <point x="339" y="620" type="curve" smooth="yes"/>
      <point x="331" y="629"/>
      <point x="319" y="636"/>
    </contour>
  </outline>
</glyph>
<glyph name="afii10021" format="2">
  <advance width="570"/>
  <unicode hex="0414"/>
  <anchor x="420" y="754" name="Yerok"/>
  <anchor x="420" y="754" name="Diacritic"/>
  <outline>
    <contour>
      <point x="353" y="487" type="curve"/>
      <point x="344" y="460"/>
      <point x="317" y="439"/>
      <point x="287" y="439" type="curve" smooth="yes"/>
      <point x="250" y="439"/>
      <point x="219" y="470"/>
      <point x="219" y="507" type="curve" smooth="yes"/>
      <point x="219" y="544"/>
      <point x="250" y="575"/>
      <point x="287" y="575" type="curve" smooth="yes"/>
      <point x="296" y="575"/>
      <point x="305" y="574"/>
      <point x="314" y="570" type="curve" smooth="yes"/>
      <point x="331" y="562"/>
      <point x="352" y="549"/>
      <point x="368" y="533" type="curve"/>
      <point x="368" y="636" type="line"/>
      <point x="314" y="636" type="line"/>
      <point x="314" y="676" type="line"/>
      <point x="540" y="676" type="line"/>
      <point x="540" y="636" type="line"/>
      <point x="486" y="636" type="line"/>
      <point x="486" y="40" type="line"/>
      <point x="534" y="40" type="line" smooth="yes"/>
      <point x="549.834" y="40"/>
      <point x="556.396" y="29.2439"/>
      <point x="556.396" y="17.2188" type="curve" smooth="yes"/>
      <point x="556.396" y="9.49877"/>
      <point x="553.692" y="1.25574"/>
      <point x="549" y="-5" type="curve" smooth="yes"/>
      <point x="511" y="-56"/>
      <point x="531" y="-102"/>
      <point x="515" y="-140" type="curve" smooth="yes"/>
      <point x="511.731" y="-147.471"/>
      <point x="505.628" y="-150.8"/>
      <point x="499.643" y="-150.8" type="curve" smooth="yes"/>
      <point x="492.81" y="-150.8"/>
      <point x="486.132" y="-146.463"/>
      <point x="484" y="-139" type="curve" smooth="yes"/>
      <point x="471" y="-97"/>
      <point x="460" y="0"/>
      <point x="427" y="0" type="curve" smooth="yes"/>
      <point x="149" y="0" type="line" smooth="yes"/>
      <point x="116" y="0"/>
      <point x="112" y="-97"/>
      <point x="99" y="-139" type="curve" smooth="yes"/>
      <point x="96.8678" y="-146.463"/>
      <point x="90.1895" y="-150.8"/>
      <point x="83.3573" y="-150.8" type="curve" smooth="yes"/>
      <point x="77.3721" y="-150.8"/>
      <point x="71.2687" y="-147.471"/>
      <point x="68" y="-140" type="curve" smooth="yes"/>
      <point x="52" y="-102"/>
      <point x="64" y="-55"/>
      <point x="24" y="-5" type="curve" smooth="yes"/>
      <point x="18.9542" y="1.21021"/>
      <point x="16.1682" y="9.37888"/>
      <point x="16.1682" y="17.0501" type="curve" smooth="yes"/>
      <point x="16.1682" y="29.1431"/>
      <point x="23.0916" y="40"/>
      <point x="39" y="40" type="curve" smooth="yes"/>
      <point x="110" y="40" type="line"/>
      <point x="107" y="56"/>
      <point x="105" y="75"/>
      <point x="105" y="95" type="curve" smooth="yes"/>
      <point x="105" y="225"/>
      <point x="189" y="299"/>
      <point x="284" y="375" type="curve" smooth="yes"/>
      <point x="319" y="403"/>
      <point x="354" y="427"/>
      <point x="355" y="469" type="curve" smooth="yes"/>
      <point x="355" y="476"/>
      <point x="354" y="482"/>
    </contour>
    <contour>
      <point x="214" y="40" type="curve"/>
      <point x="368" y="40" type="line"/>
      <point x="368" y="393" type="line"/>
      <point x="353" y="376"/>
      <point x="334" y="360"/>
      <point x="315" y="341" type="curve" smooth="yes"/>
      <point x="248" y="276"/>
      <point x="207" y="203"/>
      <point x="207" y="100" type="curve" smooth="yes"/>
      <point x="207" y="76"/>
      <point x="209" y="58"/>
    </contour>
  </outline>
</glyph>
<glyph name="afii10024" format="2">
  <advance width="826"/>
  <unicode hex="0416"/>
  <anchor x="690" y="754" name="Yerok"/>
  <anchor x="410" y="754" name="Diacritic"/>
  <outline>
    <contour>
      <point x="90" y="520" type="curve" smooth="yes"/>
      <point x="80" y="518"/>
      <point x="70" y="527"/>
      <point x="70" y="537" type="curve" smooth="yes"/>
      <point x="70.2997" y="543.143"/>
      <point x="70.4646" y="549.129"/>
      <point x="70.4646" y="554.981" type="curve" smooth="yes"/>
      <point x="70.4646" y="588.188"/>
      <point x="65.1532" y="617.094"/>
      <point x="49" y="646" type="curve" smooth="yes"/>
      <point x="48.0958" y="647.628"/>
      <point x="47.6822" y="649.517"/>
      <point x="47.6822" y="651.531" type="curve" smooth="yes"/>
      <point x="47.6822" y="660.658"/>
      <point x="56.1701" y="672.362"/>
      <point x="66" y="674" type="curve" smooth="yes"/>
      <point x="74.2879" y="675.138"/>
      <point x="82.523" y="675.668"/>
      <point x="90.6409" y="675.668" type="curve" smooth="yes"/>
      <point x="132.477" y="675.668"/>
      <point x="171.2" y="661.587"/>
      <point x="198" y="644" type="curve" smooth="yes"/>
      <point x="227" y="625"/>
      <point x="248" y="599"/>
      <point x="269" y="558" type="curve" smooth="yes"/>
      <point x="288" y="521"/>
      <point x="314" y="464"/>
      <point x="331" y="444" type="curve" smooth="yes"/>
      <point x="338" y="436"/>
      <point x="346" y="428"/>
      <point x="354" y="423" type="curve"/>
      <point x="354" y="636" type="line"/>
      <point x="300" y="636" type="line"/>
      <point x="300" y="676" type="line"/>
      <point x="526" y="676" type="line"/>
      <point x="526" y="636" type="line"/>
      <point x="472" y="636" type="line"/>
      <point x="472" y="423" type="line"/>
      <point x="480" y="428"/>
      <point x="488" y="436"/>
      <point x="495" y="444" type="curve" smooth="yes"/>
      <point x="512" y="464"/>
      <point x="538" y="521"/>
      <point x="557" y="558" type="curve" smooth="yes"/>
      <point x="578" y="599"/>
      <point x="599" y="625"/>
      <point x="628" y="644" type="curve" smooth="yes"/>
      <point x="654.8" y="661.587"/>
      <point x="693.523" y="675.668"/>
      <point x="735.359" y="675.668" type="curve" smooth="yes"/>
      <point x="743.477" y="675.668"/>
      <point x="751.712" y="675.138"/>
      <point x="760" y="674" type="curve" smooth="yes"/>
      <point x="769.83" y="672.362"/>
      <point x="778.318" y="660.658"/>
      <point x="778.318" y="651.531" type="curve" smooth="yes"/>
      <point x="778.318" y="649.517"/>
      <point x="777.904" y="647.628"/>
      <point x="777" y="646" type="curve" smooth="yes"/>
      <point x="760.847" y="617.094"/>
      <point x="755.535" y="588.188"/>
      <point x="755.535" y="554.981" type="curve" smooth="yes"/>
      <point x="755.535" y="549.129"/>
      <point x="755.7" y="543.143"/>
      <point x="756" y="537" type="curve" smooth="yes"/>
      <point x="756" y="527"/>
      <point x="746" y="518"/>
      <point x="736" y="520" type="curve" smooth="yes"/>
      <point x="691" y="531"/>
      <point x="676" y="545"/>
      <point x="643" y="570" type="curve" smooth="yes"/>
      <point x="637" y="574"/>
      <point x="629" y="576"/>
      <point x="623" y="572" type="curve" smooth="yes"/>
      <point x="606" y="562"/>
      <point x="608" y="564"/>
      <point x="589" y="534" type="curve" smooth="yes"/>
      <point x="566" y="498"/>
      <point x="543" y="440"/>
      <point x="526" y="418" type="curve" smooth="yes"/>
      <point x="520" y="411"/>
      <point x="515" y="406"/>
      <point x="508" y="400" type="curve"/>
      <point x="650" y="354"/>
      <point x="750" y="176"/>
      <point x="750" y="40" type="curve"/>
      <point x="804" y="40" type="line"/>
      <point x="804" y="0" type="line"/>
      <point x="566" y="0" type="line"/>
      <point x="566" y="40" type="line"/>
      <point x="620" y="40" type="line"/>
      <point x="620" y="176"/>
      <point x="562" y="352"/>
      <point x="472" y="373" type="curve"/>
      <point x="472" y="40" type="line"/>
      <point x="526" y="40" type="line"/>
      <point x="526" y="0" type="line"/>
      <point x="300" y="0" type="line"/>
      <point x="300" y="40" type="line"/>
      <point x="354" y="40" type="line"/>
      <point x="354" y="373" type="line"/>
      <point x="263" y="352"/>
      <point x="206" y="176"/>
      <point x="206" y="40" type="curve"/>
      <point x="260" y="40" type="line"/>
      <point x="260" y="0" type="line"/>
      <point x="22" y="0" type="line"/>
      <point x="22" y="40" type="line"/>
      <point x="76" y="40" type="line"/>
      <point x="76" y="176"/>
      <point x="175" y="354"/>
      <point x="317" y="400" type="curve"/>
      <point x="311" y="406"/>
      <point x="305" y="411"/>
      <point x="300" y="418" type="curve" smooth="yes"/>
      <point x="283" y="440"/>
      <point x="260" y="498"/>
      <point x="237" y="534" type="curve" smooth="yes"/>
      <point x="218" y="564"/>
      <point x="220" y="562"/>
      <point x="203" y="572" type="curve" smooth="yes"/>
      <point x="197" y="576"/>
      <point x="189" y="574"/>
      <point x="183" y="570" type="curve" smooth="yes"/>
      <point x="150" y="545"/>
      <point x="135" y="531"/>
    </contour>
  </outline>
</glyph>
<glyph name="afii10027" format="2">
  <advance width="542"/>
  <unicode hex="0419"/>
  <anchor x="309" y="1004" name="Yerok"/>
  <anchor x="308" y="1003" name="Diacritic"/>
  <outline>
    <contour>
      <point x="248" y="0" type="line"/>
      <point x="22" y="0" type="line"/>
      <point x="22" y="40" type="line"/>
      <point x="76" y="40" type="line"/>
      <point x="76" y="636" type="line"/>
      <point x="22" y="636" type="line"/>
      <point x="22" y="676" type="line"/>
      <point x="248" y="676" type="line"/>
      <point x="248" y="636" type="line"/>
      <point x="194" y="636" type="line"/>
      <point x="194" y="340" type="line"/>
      <point x="348" y="416" type="line"/>
      <point x="348" y="636" type="line"/>
      <point x="294" y="636" type="line"/>
      <point x="294" y="676" type="line"/>
      <point x="520" y="676" type="line"/>
      <point x="520" y="636" type="line"/>
      <point x="466" y="636" type="line"/>
      <point x="466" y="40" type="line"/>
      <point x="520" y="40" type="line"/>
      <point x="520" y="0" type="line"/>
      <point x="294" y="0" type="line"/>
      <point x="294" y="40" type="line"/>
      <point x="348" y="40" type="line"/>
      <point x="348" y="371" type="line"/>
      <point x="194" y="295" type="line"/>
      <point x="194" y="40" type="line"/>
      <point x="248" y="40" type="line"/>
    </contour>
    <contour>
      <point x="199" y="765" type="curve" smooth="yes"/>
      <point x="193.189" y="781.539"/>
      <point x="190.775" y="798.078"/>
      <point x="190.775" y="813.455" type="curve" smooth="yes"/>
      <point x="190.775" y="832.48"/>
      <point x="194.47" y="849.728"/>
      <point x="200" y="863" type="curve" smooth="yes"/>
      <point x="214" y="896"/>
      <point x="235" y="924"/>
      <point x="256" y="940" type="curve" smooth="yes"/>
      <point x="262" y="944"/>
      <point x="278" y="939"/>
      <point x="276" y="933" type="curve" smooth="yes"/>
      <point x="268" y="912"/>
      <point x="259" y="895"/>
      <point x="249" y="864" type="curve" smooth="yes"/>
      <point x="246.409" y="855.794"/>
      <point x="245.123" y="847.541"/>
      <point x="245.123" y="839.644" type="curve" smooth="yes"/>
      <point x="245.123" y="810.975"/>
      <point x="262.07" y="787"/>
      <point x="295" y="787" type="curve" smooth="yes"/>
      <point x="334" y="787"/>
      <point x="357" y="815"/>
      <point x="375" y="849" type="curve" smooth="yes"/>
      <point x="390" y="878"/>
      <point x="397" y="905"/>
      <point x="408" y="925" type="curve" smooth="yes"/>
      <point x="412" y="932"/>
      <point x="429" y="928"/>
      <point x="430" y="921" type="curve" smooth="yes"/>
      <point x="430.643" y="915.214"/>
      <point x="430.964" y="909.153"/>
      <point x="430.964" y="902.875" type="curve" smooth="yes"/>
      <point x="430.964" y="879.857"/>
      <point x="426.643" y="853.929"/>
      <point x="418" y="828" type="curve" smooth="yes"/>
      <point x="396" y="762"/>
      <point x="335" y="713"/>
      <point x="276" y="713" type="curve" smooth="yes"/>
      <point x="236" y="713"/>
      <point x="209" y="737"/>
    </contour>
  </outline>
</glyph>
<glyph name="afii10028" format="2">
  <advance width="556"/>
  <unicode hex="041A"/>
  <anchor x="414" y="754" name="Yerok"/>
  <anchor x="260" y="754" name="Diacritic"/>
  <outline>
    <contour>
      <point x="460" y="230" type="curve" smooth="yes"/>
      <point x="483" y="173"/>
      <point x="489" y="127"/>
      <point x="489" y="68" type="curve" smooth="yes"/>
      <point x="489" y="40" type="line"/>
      <point x="533" y="40" type="line"/>
      <point x="533" y="0" type="line"/>
      <point x="318" y="0" type="line"/>
      <point x="318" y="40" type="line"/>
      <point x="362" y="40" type="line"/>
      <point x="362" y="82" type="line" smooth="yes"/>
      <point x="362" y="142"/>
      <point x="360" y="194"/>
      <point x="330" y="257" type="curve" smooth="yes"/>
      <point x="306" y="307"/>
      <point x="272" y="334"/>
      <point x="217" y="335" type="curve" smooth="yes"/>
      <point x="215" y="335" type="line"/>
      <point x="184" y="335" type="line"/>
      <point x="184" y="40" type="line"/>
      <point x="228" y="40" type="line"/>
      <point x="228" y="0" type="line"/>
      <point x="22" y="0" type="line"/>
      <point x="22" y="40" type="line"/>
      <point x="66" y="40" type="line"/>
      <point x="66" y="636" type="line"/>
      <point x="22" y="636" type="line"/>
      <point x="22" y="676" type="line"/>
      <point x="228" y="676" type="line"/>
      <point x="228" y="636" type="line"/>
      <point x="184" y="636" type="line"/>
      <point x="184" y="374" type="line"/>
      <point x="212" y="374" type="line"/>
      <point x="216" y="374" type="line" smooth="yes"/>
      <point x="270" y="374"/>
      <point x="288" y="409"/>
      <point x="306" y="459" type="curve" smooth="yes"/>
      <point x="325" y="510"/>
      <point x="332" y="564"/>
      <point x="332" y="603" type="curve" smooth="yes"/>
      <point x="332" y="636" type="line"/>
      <point x="288" y="636" type="line"/>
      <point x="288" y="676" type="line"/>
      <point x="494" y="676" type="line"/>
      <point x="494" y="636" type="line"/>
      <point x="450" y="636" type="line"/>
      <point x="450" y="612" type="line" smooth="yes"/>
      <point x="450" y="555"/>
      <point x="438" y="503"/>
      <point x="402" y="448" type="curve" smooth="yes"/>
      <point x="376" y="410"/>
      <point x="346" y="380"/>
      <point x="310" y="360" type="curve"/>
      <point x="373" y="342"/>
      <point x="431" y="302"/>
    </contour>
  </outline>
</glyph>
<glyph name="afii10029" format="2">
  <advance width="537"/>
  <unicode hex="041B"/>
  <anchor x="450" y="754" name="Yerok"/>
  <anchor x="400" y="754" name="Diacritic"/>
  <outline>
    <contour>
      <point x="196" y="40" type="curve"/>
      <point x="240" y="40" type="line"/>
      <point x="240" y="0" type="line"/>
      <point x="22" y="0" type="line"/>
      <point x="22" y="40" type="line"/>
      <point x="66" y="40" type="line"/>
      <point x="66" y="128"/>
      <point x="97" y="197"/>
      <point x="137" y="256" type="curve" smooth="yes"/>
      <point x="176" y="313"/>
      <point x="211" y="338"/>
      <point x="256" y="389" type="curve" smooth="yes"/>
      <point x="296" y="434"/>
      <point x="329" y="475"/>
      <point x="343" y="529" type="curve"/>
      <point x="343" y="636" type="line"/>
      <point x="289" y="636" type="line"/>
      <point x="289" y="676" type="line"/>
      <point x="515" y="676" type="line"/>
      <point x="515" y="636" type="line"/>
      <point x="461" y="636" type="line"/>
      <point x="461" y="40" type="line"/>
      <point x="515" y="40" type="line"/>
      <point x="515" y="0" type="line"/>
      <point x="289" y="0" type="line"/>
      <point x="289" y="40" type="line"/>
      <point x="343" y="40" type="line"/>
      <point x="343" y="421" type="line"/>
      <point x="331" y="399"/>
      <point x="314" y="379"/>
      <point x="300" y="354" type="curve" smooth="yes"/>
      <point x="273" y="306"/>
      <point x="258" y="279"/>
      <point x="237" y="227" type="curve" smooth="yes"/>
      <point x="209.934" y="161.269"/>
      <point x="195.95" y="121.701"/>
      <point x="195.95" y="47.781" type="curve" smooth="yes"/>
      <point x="195.95" y="45.2291"/>
      <point x="195.967" y="42.6363"/>
    </contour>
  </outline>
</glyph>
<glyph name="afii10030" format="2">
  <advance width="838"/>
  <unicode hex="041C"/>
  <anchor x="720" y="754" name="Yerok"/>
  <anchor x="564" y="754" name="Diacritic"/>
  <outline>
    <contour>
      <point x="196" y="40" type="curve"/>
      <point x="240" y="40" type="line"/>
      <point x="240" y="0" type="line"/>
      <point x="22" y="0" type="line"/>
      <point x="22" y="40" type="line"/>
      <point x="66" y="40" type="line"/>
      <point x="66" y="108"/>
      <point x="80" y="176"/>
      <point x="126" y="246" type="curve" smooth="yes"/>
      <point x="171" y="315"/>
      <point x="212" y="347"/>
      <point x="270" y="395" type="curve" smooth="yes"/>
      <point x="301" y="421"/>
      <point x="337" y="450"/>
      <point x="361" y="473" type="curve"/>
      <point x="361" y="636" type="line"/>
      <point x="307" y="636" type="line"/>
      <point x="307" y="676" type="line"/>
      <point x="533" y="676" type="line"/>
      <point x="533" y="636" type="line"/>
      <point x="479" y="636" type="line"/>
      <point x="479" y="265" type="line"/>
      <point x="644" y="430" type="line"/>
      <point x="644" y="636" type="line"/>
      <point x="590" y="636" type="line"/>
      <point x="590" y="676" type="line"/>
      <point x="816" y="676" type="line"/>
      <point x="816" y="636" type="line"/>
      <point x="762" y="636" type="line"/>
      <point x="762" y="40" type="line"/>
      <point x="816" y="40" type="line"/>
      <point x="816" y="0" type="line"/>
      <point x="590" y="0" type="line"/>
      <point x="590" y="40" type="line"/>
      <point x="644" y="40" type="line"/>
      <point x="644" y="374" type="line"/>
      <point x="479" y="209" type="line"/>
      <point x="479" y="40" type="line"/>
      <point x="533" y="40" type="line"/>
      <point x="533" y="0" type="line"/>
      <point x="307" y="0" type="line"/>
      <point x="307" y="40" type="line"/>
      <point x="361" y="40" type="line"/>
      <point x="361" y="413" type="line"/>
      <point x="344" y="397"/>
      <point x="322" y="377"/>
      <point x="304" y="358" type="curve" smooth="yes"/>
      <point x="263" y="316"/>
      <point x="237" y="283"/>
      <point x="219" y="223" type="curve" smooth="yes"/>
      <point x="198" y="154"/>
      <point x="196" y="91"/>
    </contour>
  </outline>
</glyph>
<glyph name="afii10032" format="2">
  <advance width="590"/>
  <unicode hex="041E"/>
  <anchor x="480" y="754" name="Yerok"/>
  <anchor x="330" y="754" name="Diacritic"/>
  <outline>
    <contour>
      <point x="375" y="682" type="curve"/>
      <point x="380" y="652"/>
      <point x="391" y="616"/>
      <point x="412" y="592" type="curve" smooth="yes"/>
      <point x="459" y="537"/>
      <point x="550" y="451"/>
      <point x="550" y="318" type="curve" smooth="yes"/>
      <point x="550" y="121"/>
      <point x="348" y="-5"/>
      <point x="228" y="-5" type="curve"/>
      <point x="222" y="20"/>
      <point x="209" y="46"/>
      <point x="187" y="71" type="curve" smooth="yes"/>
      <point x="105" y="164"/>
      <point x="46" y="241"/>
      <point x="46" y="358" type="curve" smooth="yes"/>
      <point x="46" y="520"/>
      <point x="222" y="682"/>
    </contour>
    <contour>
      <point x="259" y="41" type="curve"/>
      <point x="383.768" y="41.9902"/>
      <point x="434.015" y="182.216"/>
      <point x="434.015" y="309.24" type="curve" smooth="yes"/>
      <point x="434.015" y="418.336"/>
      <point x="399.382" y="486.236"/>
      <point x="361" y="563" type="curve" smooth="yes"/>
      <point x="348" y="589"/>
      <point x="341" y="607"/>
      <point x="336" y="636" type="curve"/>
      <point x="226" y="636"/>
      <point x="168" y="515"/>
      <point x="168" y="370" type="curve" smooth="yes"/>
      <point x="168" y="277"/>
      <point x="196" y="232"/>
      <point x="233" y="138" type="curve" smooth="yes"/>
      <point x="247" y="102"/>
      <point x="255" y="73"/>
    </contour>
  </outline>
</glyph>
<glyph name="afii10035" format="2">
  <advance width="573"/>
  <unicode hex="0421"/>
  <anchor x="440" y="754" name="Yerok"/>
  <anchor x="290" y="754" name="Diacritic"/>
  <outline>
    <contour>
      <point x="269" y="640" type="curve" smooth="yes"/>
      <point x="209" y="640"/>
      <point x="153" y="546"/>
      <point x="153" y="417" type="curve" smooth="yes"/>
      <point x="153" y="333"/>
      <point x="180" y="254"/>
      <point x="196" y="184" type="curve" smooth="yes"/>
      <point x="207" y="134"/>
      <point x="213" y="86"/>
      <point x="213" y="40" type="curve"/>
      <point x="361" y="40"/>
      <point x="401" y="171"/>
      <point x="401" y="258" type="curve"/>
      <point x="350" y="258" type="line"/>
      <point x="350" y="298" type="line"/>
      <point x="541" y="298" type="line"/>
      <point x="541" y="258" type="line"/>
      <point x="511" y="258" type="line"/>
      <point x="487" y="110"/>
      <point x="428" y="-2"/>
      <point x="160" y="-2" type="curve"/>
      <point x="157" y="18"/>
      <point x="158" y="68"/>
      <point x="136" y="110" type="curve" smooth="yes"/>
      <point x="87" y="204"/>
      <point x="35" y="248"/>
      <point x="35" y="373" type="curve" smooth="yes"/>
      <point x="35" y="528"/>
      <point x="155" y="685"/>
      <point x="293" y="685" type="curve" smooth="yes"/>
      <point x="395" y="685"/>
      <point x="484" y="584"/>
      <point x="494" y="508" type="curve"/>
      <point x="542" y="508" type="line"/>
      <point x="542" y="468" type="line"/>
      <point x="340" y="468" type="line"/>
      <point x="340" y="508" type="line"/>
      <point x="380" y="508" type="line"/>
      <point x="376" y="568"/>
      <point x="317" y="640"/>
    </contour>
  </outline>
</glyph>
<glyph name="uni0423" format="2">
  <advance width="552"/>
  <unicode hex="0423"/>
  <anchor x="460" y="754" name="Yerok"/>
  <anchor x="340" y="754" name="Diacritic"/>
  <outline>
    <contour>
      <point x="339" y="154" type="line"/>
      <point x="333" y="41" type="line"/>
      <point x="413" y="41" type="line"/>
      <point x="413" y="1" type="line"/>
      <point x="203" y="1" type="line"/>
      <point x="203" y="41" type="line"/>
      <point x="292" y="41" type="line"/>
      <point x="298" y="155" type="line"/>
      <point x="303" y="232" type="line"/>
      <point x="114" y="232" type="line"/>
      <point x="114" y="272" type="line"/>
      <point x="168" y="272" type="line"/>
      <point x="161.197" y="355.856"/>
      <point x="114" y="566"/>
      <point x="79" y="636" type="curve"/>
      <point x="25" y="636" type="line"/>
      <point x="25" y="676" type="line"/>
      <point x="266" y="676" type="line"/>
      <point x="266" y="636" type="line"/>
      <point x="212" y="636" type="line"/>
      <point x="238" y="569"/>
      <point x="277.197" y="371.856"/>
      <point x="281" y="272" type="curve"/>
      <point x="305" y="272" type="line"/>
      <point x="306" y="283" type="line" smooth="yes"/>
      <point x="308" y="320"/>
      <point x="326" y="471"/>
      <point x="339" y="507" type="curve" smooth="yes"/>
      <point x="351" y="541"/>
      <point x="365" y="577"/>
      <point x="391" y="612" type="curve" smooth="yes"/>
      <point x="421.608" y="652.812"/>
      <point x="458.724" y="678.442"/>
      <point x="509.106" y="678.442" type="curve" smooth="yes"/>
      <point x="517.98" y="678.442"/>
      <point x="527.266" y="677.647"/>
      <point x="537" y="676" type="curve" smooth="yes"/>
      <point x="547" y="674"/>
      <point x="553" y="663"/>
      <point x="547" y="653" type="curve" smooth="yes"/>
      <point x="537" y="635"/>
      <point x="529" y="621"/>
      <point x="523" y="599" type="curve" smooth="yes"/>
      <point x="517.974" y="579.732"/>
      <point x="515.755" y="565.377"/>
      <point x="515.755" y="548.292" type="curve" smooth="yes"/>
      <point x="515.755" y="544.982"/>
      <point x="515.838" y="541.57"/>
      <point x="516" y="538" type="curve" smooth="yes"/>
      <point x="516" y="530"/>
      <point x="511" y="522"/>
      <point x="502" y="526" type="curve" smooth="yes"/>
      <point x="479" y="536"/>
      <point x="469" y="537"/>
      <point x="446" y="537" type="curve" smooth="yes"/>
      <point x="419" y="537"/>
      <point x="398.85" y="518.133"/>
      <point x="385" y="491" type="curve" smooth="yes"/>
      <point x="370.197" y="462"/>
      <point x="350.793" y="367.967"/>
      <point x="346" y="281" type="curve" smooth="yes"/>
    </contour>
  </outline>
</glyph>
<glyph name="afii10038" format="2">
  <advance width="728"/>
  <unicode hex="0424"/>
  <anchor x="620" y="754" name="Yerok"/>
  <anchor x="370" y="754" name="Diacritic"/>
  <outline>
    <contour>
      <point x="478" y="0" type="line"/>
      <point x="252" y="0" type="line"/>
      <point x="252" y="40" type="line"/>
      <point x="306" y="40" type="line"/>
      <point x="306" y="132" type="line"/>
      <point x="289" y="120"/>
      <point x="258" y="102"/>
      <point x="221" y="102" type="curve" smooth="yes"/>
      <point x="124" y="102"/>
      <point x="25" y="148"/>
      <point x="25" y="297" type="curve" smooth="yes"/>
      <point x="25" y="409"/>
      <point x="141" y="461"/>
      <point x="226" y="513" type="curve" smooth="yes"/>
      <point x="258" y="532"/>
      <point x="289" y="552"/>
      <point x="306" y="570" type="curve"/>
      <point x="306" y="636" type="line"/>
      <point x="262" y="636" type="line"/>
      <point x="262" y="676" type="line"/>
      <point x="468" y="676" type="line"/>
      <point x="468" y="636" type="line"/>
      <point x="424" y="636" type="line"/>
      <point x="424" y="570" type="line"/>
      <point x="441" y="552"/>
      <point x="472" y="532"/>
      <point x="504" y="513" type="curve" smooth="yes"/>
      <point x="589" y="461"/>
      <point x="705" y="409"/>
      <point x="705" y="297" type="curve" smooth="yes"/>
      <point x="705" y="148"/>
      <point x="606" y="102"/>
      <point x="509" y="102" type="curve" smooth="yes"/>
      <point x="471" y="102"/>
      <point x="440" y="120"/>
      <point x="424" y="132" type="curve"/>
      <point x="424" y="40" type="line"/>
      <point x="478" y="40" type="line"/>
    </contour>
    <contour>
      <point x="477" y="469" type="curve" smooth="yes"/>
      <point x="456" y="488"/>
      <point x="436" y="507"/>
      <point x="424" y="524" type="curve"/>
      <point x="424" y="172" type="line"/>
      <point x="448" y="155"/>
      <point x="465" y="146"/>
      <point x="504" y="146" type="curve" smooth="yes"/>
      <point x="558" y="146"/>
      <point x="584" y="178"/>
      <point x="584" y="273" type="curve" smooth="yes"/>
      <point x="584" y="362"/>
      <point x="540" y="409"/>
    </contour>
    <contour>
      <point x="226" y="146" type="curve" smooth="yes"/>
      <point x="265" y="146"/>
      <point x="282" y="155"/>
      <point x="306" y="172" type="curve"/>
      <point x="306" y="524" type="line"/>
      <point x="293" y="507"/>
      <point x="273" y="488"/>
      <point x="253" y="469" type="curve" smooth="yes"/>
      <point x="190" y="409"/>
      <point x="146" y="362"/>
      <point x="146" y="273" type="curve" smooth="yes"/>
      <point x="146" y="178"/>
      <point x="172" y="146"/>
    </contour>
  </outline>
</glyph>
<glyph name="afii10041" format="2">
  <advance width="532"/>
  <unicode hex="0427"/>
  <anchor x="420" y="754" name="Yerok"/>
  <anchor x="260" y="754" name="Diacritic"/>
  <outline>
    <contour>
      <point x="228" y="636" type="line"/>
      <point x="184" y="636" type="line"/>
      <point x="184" y="356" type="line"/>
      <point x="204" y="353"/>
      <point x="224" y="349"/>
      <point x="245" y="345" type="curve" smooth="yes"/>
      <point x="278" y="337"/>
      <point x="306" y="328"/>
      <point x="338" y="317" type="curve"/>
      <point x="338" y="636" type="line"/>
      <point x="294" y="636" type="line"/>
      <point x="294" y="676" type="line"/>
      <point x="500" y="676" type="line"/>
      <point x="500" y="636" type="line"/>
      <point x="456" y="636" type="line"/>
      <point x="456" y="40" type="line"/>
      <point x="510" y="40" type="line"/>
      <point x="510" y="0" type="line"/>
      <point x="284" y="0" type="line"/>
      <point x="284" y="40" type="line"/>
      <point x="338" y="40" type="line"/>
      <point x="338" y="273" type="line"/>
      <point x="302" y="287"/>
      <point x="273" y="297"/>
      <point x="236" y="306" type="curve" smooth="yes"/>
      <point x="180" y="319"/>
      <point x="131" y="323"/>
      <point x="66" y="323" type="curve"/>
      <point x="66" y="636" type="line"/>
      <point x="22" y="636" type="line"/>
      <point x="22" y="676" type="line"/>
      <point x="228" y="676" type="line"/>
    </contour>
  </outline>
</glyph>
<glyph name="afii10042" format="2">
  <advance width="870"/>
  <unicode hex="0428"/>
  <anchor x="730" y="754" name="Yerok"/>
  <anchor x="430" y="754" name="Diacritic"/>
  <outline>
    <contour>
      <point x="676" y="40" type="line"/>
      <point x="676" y="636" type="line"/>
      <point x="622" y="636" type="line"/>
      <point x="622" y="676" type="line"/>
      <point x="848" y="676" type="line"/>
      <point x="848" y="636" type="line"/>
      <point x="794" y="636" type="line"/>
      <point x="794" y="40" type="line"/>
      <point x="848" y="40" type="line"/>
      <point x="848" y="0" type="line"/>
      <point x="22" y="0" type="line"/>
      <point x="22" y="40" type="line"/>
      <point x="76" y="40" type="line"/>
      <point x="76" y="636" type="line"/>
      <point x="22" y="636" type="line"/>
      <point x="22" y="676" type="line"/>
      <point x="248" y="676" type="line"/>
      <point x="248" y="636" type="line"/>
      <point x="194" y="636" type="line"/>
      <point x="194" y="40" type="line"/>
      <point x="376" y="40" type="line"/>
      <point x="376" y="636" type="line"/>
      <point x="322" y="636" type="line"/>
      <point x="322" y="676" type="line"/>
      <point x="548" y="676" type="line"/>
      <point x="548" y="636" type="line"/>
      <point x="494" y="636" type="line"/>
      <point x="494" y="40" type="line"/>
    </contour>
  </outline>
</glyph>
<glyph name="afii10043" format="2">
  <advance width="870"/>
  <unicode hex="0429"/>
  <anchor x="729" y="754" name="Yerok"/>
  <anchor x="440" y="754" name="Diacritic"/>
  <outline>
    <contour>
      <point x="494" y="-30" type="line" smooth="yes"/>
      <point x="494" y="-65"/>
      <point x="523" y="-112"/>
      <point x="557" y="-130" type="curve" smooth="yes"/>
      <point x="561" y="-132"/>
      <point x="560" y="-144"/>
      <point x="557" y="-146" type="curve" smooth="yes"/>
      <point x="524" y="-167"/>
      <point x="464" y="-217"/>
      <point x="442" y="-263" type="curve" smooth="yes"/>
      <point x="440" y="-268"/>
      <point x="429" y="-268"/>
      <point x="427" y="-263" type="curve" smooth="yes"/>
      <point x="405" y="-217"/>
      <point x="346" y="-167"/>
      <point x="313" y="-146" type="curve" smooth="yes"/>
      <point x="310" y="-144"/>
      <point x="309" y="-132"/>
      <point x="313" y="-130" type="curve" smooth="yes"/>
      <point x="347" y="-112"/>
      <point x="376" y="-65"/>
      <point x="376" y="-30" type="curve" smooth="yes"/>
      <point x="376" y="0" type="line"/>
      <point x="22" y="0" type="line"/>
      <point x="22" y="40" type="line"/>
      <point x="76" y="40" type="line"/>
      <point x="76" y="636" type="line"/>
      <point x="22" y="636" type="line"/>
      <point x="22" y="676" type="line"/>
      <point x="248" y="676" type="line"/>
      <point x="248" y="636" type="line"/>
      <point x="194" y="636" type="line"/>
      <point x="194" y="40" type="line"/>
      <point x="376" y="40" type="line"/>
      <point x="376" y="636" type="line"/>
      <point x="322" y="636" type="line"/>
      <point x="322" y="676" type="line"/>
      <point x="548" y="676" type="line"/>
      <point x="548" y="636" type="line"/>
      <point x="494" y="636" type="line"/>
      <point x="494" y="40" type="line"/>
      <point x="676" y="40" type="line"/>
      <point x="676" y="636" type="line"/>
      <point x="622" y="636" type="line"/>
      <point x="622" y="676" type="line"/>
      <point x="848" y="676" type="line"/>
      <point x="848" y="636" type="line"/>
      <point x="794" y="636" type="line"/>
      <point x="794" y="40" type="line"/>
      <point x="848" y="40" type="line"/>
      <point x="848" y="0" type="line"/>
      <point x="494" y="0" type="line"/>
    </contour>
  </outline>
</glyph>
<glyph name="afii10044" format="2">
  <advance width="547"/>
  <unicode hex="042A"/>
  <anchor x="420" y="754" name="Yerok"/>
  <anchor x="270" y="754" name="Diacritic"/>
  <outline>
    <contour>
      <point x="40" y="638" type="curve" smooth="yes"/>
      <point x="35.1432" y="646.499"/>
      <point x="29.9179" y="658.684"/>
      <point x="29.9179" y="666.947" type="curve" smooth="yes"/>
      <point x="29.9179" y="672.295"/>
      <point x="32.1065" y="676"/>
      <point x="38" y="676" type="curve" smooth="yes"/>
      <point x="472" y="676" type="line"/>
      <point x="472" y="636" type="line"/>
      <point x="428" y="636" type="line"/>
      <point x="293" y="312" type="line"/>
      <point x="433" y="312" type="line"/>
      <point x="433" y="272" type="line"/>
      <point x="401" y="272" type="line"/>
      <point x="501" y="40" type="line"/>
      <point x="501" y="0" type="line"/>
      <point x="52" y="0" type="line"/>
      <point x="52" y="40" type="line"/>
      <point x="299" y="636" type="line"/>
      <point x="195" y="636" type="line"/>
      <point x="167" y="597"/>
      <point x="133" y="533"/>
      <point x="117" y="473" type="curve" smooth="yes"/>
      <point x="115" y="464"/>
      <point x="102" y="463"/>
      <point x="100" y="473" type="curve" smooth="yes"/>
      <point x="86" y="538"/>
      <point x="68" y="593"/>
    </contour>
    <contour>
      <point x="372" y="40" type="line"/>
      <point x="275" y="266" type="line"/>
      <point x="181" y="40" type="line"/>
    </contour>
  </outline>
</glyph>
<glyph name="afii10046" format="2">
  <advance width="540"/>
  <unicode hex="042C"/>
  <anchor x="420" y="754" name="Yerok"/>
  <anchor x="300" y="754" name="Diacritic"/>
  <outline>
    <contour>
      <point x="194" y="636" type="line"/>
      <point x="194" y="377" type="line"/>
      <point x="239" y="363"/>
      <point x="271" y="356"/>
      <point x="316" y="349" type="curve" smooth="yes"/>
      <point x="374" y="338"/>
      <point x="422" y="334"/>
      <point x="499" y="334" type="curve"/>
      <point x="499" y="294" type="line"/>
      <point x="474" y="294" type="line"/>
      <point x="474" y="40" type="line"/>
      <point x="518" y="40" type="line"/>
      <point x="518" y="0" type="line"/>
      <point x="22" y="0" type="line"/>
      <point x="22" y="40" type="line"/>
      <point x="76" y="40" type="line"/>
      <point x="76" y="636" type="line"/>
      <point x="22" y="636" type="line"/>
      <point x="22" y="676" type="line"/>
      <point x="248" y="676" type="line"/>
      <point x="248" y="636" type="line"/>
    </contour>
    <contour>
      <point x="309" y="309" type="curve" smooth="yes"/>
      <point x="265" y="317"/>
      <point x="234" y="323"/>
      <point x="194" y="335" type="curve"/>
      <point x="194" y="40" type="line"/>
      <point x="356" y="40" type="line"/>
      <point x="356" y="302" type="line"/>
      <point x="340" y="304"/>
      <point x="325" y="306"/>
    </contour>
  </outline>
</glyph>
<glyph name="afii10065" format="2">
  <advance width="407"/>
  <unicode hex="0430"/>
  <anchor x="310" y="502" name="Yerok"/>
  <anchor x="217" y="502" name="Diacritic"/>
  <outline>
    <contour>
      <point x="297" y="437" type="line" smooth="yes"/>
      <point x="306" y="437"/>
      <point x="310" y="428"/>
      <point x="310" y="419" type="curve" smooth="yes"/>
      <point x="310" y="386"/>
      <point x="313" y="285"/>
      <point x="324" y="199" type="curve" smooth="yes"/>
      <point x="332" y="134"/>
      <point x="345" y="74"/>
      <point x="361" y="36" type="curve" smooth="yes"/>
      <point x="362.402" y="33.1951"/>
      <point x="363.041" y="29.7257"/>
      <point x="363.041" y="26.0577" type="curve" smooth="yes"/>
      <point x="363.041" y="14.0863"/>
      <point x="356.24" y="0"/>
      <point x="347" y="0" type="curve" smooth="yes"/>
      <point x="273" y="0" type="line" smooth="yes"/>
      <point x="264" y="0"/>
      <point x="258" y="9"/>
      <point x="255" y="17" type="curve" smooth="yes"/>
      <point x="250" y="30"/>
      <point x="242" y="73"/>
      <point x="234" y="117" type="curve"/>
      <point x="201" y="69"/>
      <point x="169" y="33"/>
      <point x="133" y="14" type="curve" smooth="yes"/>
      <point x="121.116" y="7.39778"/>
      <point x="97.027" y="-0.0762185"/>
      <point x="74.5468" y="-0.0762185" type="curve" smooth="yes"/>
      <point x="62.9775" y="-0.0762185"/>
      <point x="51.8342" y="1.90332"/>
      <point x="43" y="7" type="curve" smooth="yes"/>
      <point x="36.138" y="11.3668"/>
      <point x="33.5566" y="24.684"/>
      <point x="33.5566" y="37.4841" type="curve" smooth="yes"/>
      <point x="33.5566" y="45.2028"/>
      <point x="34.4953" y="52.7335"/>
      <point x="36" y="58" type="curve" smooth="yes"/>
      <point x="55" y="121"/>
      <point x="70" y="137"/>
      <point x="99" y="186" type="curve" smooth="yes"/>
      <point x="122" y="225"/>
      <point x="145" y="243"/>
      <point x="168" y="283" type="curve" smooth="yes"/>
      <point x="185" y="313"/>
      <point x="194" y="338"/>
      <point x="201" y="367" type="curve"/>
      <point x="200.5" y="377"/>
      <point x="200.25" y="386.5"/>
      <point x="200.25" y="395.25" type="curve" smooth="yes"/>
      <point x="200.25" y="404"/>
      <point x="200.5" y="412"/>
      <point x="201" y="419" type="curve" smooth="yes"/>
      <point x="201" y="427"/>
      <point x="208" y="437"/>
      <point x="216" y="437" type="curve" smooth="yes"/>
    </contour>
    <contour>
      <point x="114.295" y="97.4737" type="curve" smooth="yes"/>
      <point x="114.295" y="90.9813"/>
      <point x="118.349" y="87.3911"/>
      <point x="124.223" y="87.3911" type="curve" smooth="yes"/>
      <point x="139.469" y="87.3911"/>
      <point x="162.848" y="113.448"/>
      <point x="179" y="133" type="curve" smooth="yes"/>
      <point x="198" y="156"/>
      <point x="212" y="178"/>
      <point x="222" y="201" type="curve"/>
      <point x="219" y="225"/>
      <point x="214" y="263"/>
      <point x="212" y="273" type="curve"/>
      <point x="193" y="236"/>
      <point x="174" y="210"/>
      <point x="148" y="170" type="curve" smooth="yes"/>
      <point x="133.899" y="148.434"/>
      <point x="114.295" y="113.797"/>
    </contour>
  </outline>
</glyph>
<glyph name="afii10068" format="2">
  <advance width="379"/>
  <unicode hex="0433"/>
  <anchor x="298" y="502" name="Yerok"/>
  <anchor x="197" y="502" name="Diacritic"/>
  <outline>
    <contour>
      <point x="341" y="407" type="curve" smooth="yes"/>
      <point x="319" y="377"/>
      <point x="310" y="354"/>
      <point x="301" y="323" type="curve" smooth="yes"/>
      <point x="298" y="314"/>
      <point x="295" y="302"/>
      <point x="282" y="302" type="curve" smooth="yes"/>
      <point x="272" y="302"/>
      <point x="265" y="314"/>
      <point x="260" y="325" type="curve" smooth="yes"/>
      <point x="245" y="356"/>
      <point x="233" y="380"/>
      <point x="220" y="397" type="curve"/>
      <point x="174" y="397" type="line" smooth="yes"/>
      <point x="168" y="397"/>
      <point x="164" y="390"/>
      <point x="164" y="384" type="curve" smooth="yes"/>
      <point x="164" y="16" type="line" smooth="yes"/>
      <point x="164" y="8"/>
      <point x="161" y="0"/>
      <point x="153" y="0" type="curve" smooth="yes"/>
      <point x="76" y="0" type="line" smooth="yes"/>
      <point x="68" y="0"/>
      <point x="64" y="8"/>
      <point x="64" y="16" type="curve" smooth="yes"/>
      <point x="64" y="418" type="line" smooth="yes"/>
      <point x="64" y="426"/>
      <point x="67" y="437"/>
      <point x="75" y="437" type="curve" smooth="yes"/>
      <point x="333" y="437" type="line" smooth="yes"/>
      <point x="347" y="437"/>
      <point x="349" y="418"/>
    </contour>
  </outline>
</glyph>
<glyph name="afii10069" format="2">
  <advance width="501"/>
  <unicode hex="0434"/>
  <anchor x="267.956" y="502" name="Yerok"/>
  <anchor x="266.956" y="502" name="Diacritic"/>
  <outline>
    <contour>
      <point x="319.899" y="351.951" type="curve" smooth="yes"/>
      <point x="319.899" y="244.962"/>
      <point x="350.67" y="107.113"/>
      <point x="389.956" y="40" type="curve"/>
      <point x="455.956" y="40" type="line" smooth="yes"/>
      <point x="466.372" y="40"/>
      <point x="471.095" y="30.624"/>
      <point x="471.095" y="19.8174" type="curve" smooth="yes"/>
      <point x="471.095" y="11.9482"/>
      <point x="468.591" y="3.32031"/>
      <point x="463.956" y="-3" type="curve" smooth="yes"/>
      <point x="444.956" y="-28"/>
      <point x="433.956" y="-53"/>
      <point x="424.956" y="-78" type="curve" smooth="yes"/>
      <point x="413.956" y="-108"/>
      <point x="406.956" y="-127"/>
      <point x="399.956" y="-152" type="curve" smooth="yes"/>
      <point x="397.048" y="-162.662"/>
      <point x="390.382" y="-168.393"/>
      <point x="383.941" y="-168.393" type="curve" smooth="yes"/>
      <point x="377.094" y="-168.393"/>
      <point x="370.502" y="-161.914"/>
      <point x="368.956" y="-148" type="curve" smooth="yes"/>
      <point x="361.956" y="-89"/>
      <point x="367.956" y="-51"/>
      <point x="358.956" y="0" type="curve"/>
      <point x="129.956" y="0" type="line"/>
      <point x="121.956" y="-47"/>
      <point x="113.956" y="-105"/>
      <point x="113.956" y="-144" type="curve" smooth="yes"/>
      <point x="113.956" y="-156.365"/>
      <point x="105.981" y="-165.61"/>
      <point x="97.5869" y="-165.61" type="curve" smooth="yes"/>
      <point x="91.7246" y="-165.61"/>
      <point x="85.6562" y="-161.102"/>
      <point x="81.9561" y="-150" type="curve" smooth="yes"/>
      <point x="75.9561" y="-132"/>
      <point x="71.9561" y="-103"/>
      <point x="64.9561" y="-78" type="curve" smooth="yes"/>
      <point x="57.9561" y="-53"/>
      <point x="46.9561" y="-34"/>
      <point x="35.9561" y="-10" type="curve" smooth="yes"/>
      <point x="31.915" y="-0.674805"/>
      <point x="30" y="7.68359"/>
      <point x="30" y="14.7754" type="curve" smooth="yes"/>
      <point x="30" y="30.501"/>
      <point x="39.416" y="40"/>
      <point x="55.9561" y="40" type="curve" smooth="yes"/>
      <point x="136.956" y="40" type="line"/>
      <point x="154.258" y="109.206"/>
      <point x="204.839" y="189.774"/>
      <point x="224.956" y="253" type="curve"/>
      <point x="217.956" y="301"/>
      <point x="215.956" y="341"/>
      <point x="212.956" y="392" type="curve" smooth="yes"/>
      <point x="209.956" y="399"/>
      <point x="207.956" y="405"/>
      <point x="207.956" y="417" type="curve" smooth="yes"/>
      <point x="207.956" y="426"/>
      <point x="215.956" y="437"/>
      <point x="224.956" y="436" type="curve" smooth="yes"/>
      <point x="240.302" y="434.246"/>
      <point x="251.995" y="433.453"/>
      <point x="262.901" y="433.453" type="curve" smooth="yes"/>
      <point x="276.87" y="433.453"/>
      <point x="289.548" y="434.754"/>
      <point x="306.956" y="437" type="curve" smooth="yes"/>
      <point x="314.956" y="438"/>
      <point x="322.956" y="427"/>
      <point x="323.956" y="417" type="curve" smooth="yes"/>
      <point x="324.956" y="406"/>
      <point x="324.956" y="399"/>
      <point x="320.956" y="388" type="curve" smooth="yes"/>
      <point x="320.271" y="376.814"/>
      <point x="319.899" y="364.742"/>
    </contour>
    <contour>
      <point x="285.956" y="40" type="line"/>
      <point x="269.956" y="75"/>
      <point x="252.956" y="121"/>
      <point x="239.956" y="173" type="curve"/>
      <point x="218.563" y="142.694"/>
      <point x="195.548" y="82.8682"/>
      <point x="189.956" y="40" type="curve"/>
    </contour>
  </outline>
</glyph>
<glyph name="afii10070" format="2">
  <advance width="294"/>
  <unicode hex="0435"/>
  <anchor x="201" y="502" name="Yerok"/>
  <anchor x="160" y="502" name="Diacritic"/>
  <outline>
    <contour>
      <point x="229" y="441" type="curve" smooth="yes"/>
      <point x="240" y="442"/>
      <point x="241" y="437"/>
      <point x="242" y="429" type="curve" smooth="yes"/>
      <point x="243" y="419"/>
      <point x="244" y="406"/>
      <point x="244" y="392" type="curve" smooth="yes"/>
      <point x="244" y="382"/>
      <point x="244" y="372"/>
      <point x="242" y="363" type="curve" smooth="yes"/>
      <point x="241" y="355"/>
      <point x="240" y="353"/>
      <point x="230" y="352" type="curve" smooth="yes"/>
      <point x="178.652" y="345.088"/>
      <point x="139.981" y="315.75"/>
      <point x="139.981" y="278.428" type="curve" smooth="yes"/>
      <point x="139.981" y="277.953"/>
      <point x="139.987" y="277.477"/>
      <point x="140" y="277" type="curve"/>
      <point x="140" y="258" type="line"/>
      <point x="166" y="266"/>
      <point x="192" y="280"/>
      <point x="220" y="282" type="curve" smooth="yes"/>
      <point x="237" y="283"/>
      <point x="236" y="275"/>
      <point x="237" y="267" type="curve" smooth="yes"/>
      <point x="238" y="261"/>
      <point x="238" y="251"/>
      <point x="238" y="241" type="curve" smooth="yes"/>
      <point x="238" y="226"/>
      <point x="238" y="211"/>
      <point x="237" y="202" type="curve" smooth="yes"/>
      <point x="236" y="190"/>
      <point x="236" y="187"/>
      <point x="224" y="184" type="curve" smooth="yes"/>
      <point x="197" y="178"/>
      <point x="163" y="166"/>
      <point x="141" y="152" type="curve"/>
      <point x="142" y="126"/>
      <point x="143" y="104"/>
      <point x="144" y="95" type="curve"/>
      <point x="166" y="100"/>
      <point x="190" y="114"/>
      <point x="212" y="121" type="curve" smooth="yes"/>
      <point x="215" y="122"/>
      <point x="217" y="122"/>
      <point x="219" y="122" type="curve" smooth="yes"/>
      <point x="227" y="122"/>
      <point x="228" y="115"/>
      <point x="228" y="104" type="curve" smooth="yes"/>
      <point x="228" y="101"/>
      <point x="228" y="98"/>
      <point x="228" y="94" type="curve" smooth="yes"/>
      <point x="228" y="58"/>
      <point x="195" y="-2"/>
      <point x="75" y="-2" type="curve" smooth="yes"/>
      <point x="62" y="-2"/>
      <point x="54" y="1"/>
      <point x="54" y="13" type="curve" smooth="yes"/>
      <point x="55" y="42"/>
      <point x="56" y="67"/>
      <point x="56" y="91" type="curve" smooth="yes"/>
      <point x="56" y="148"/>
      <point x="53" y="195"/>
      <point x="50" y="269" type="curve" smooth="yes"/>
      <point x="50" y="272"/>
      <point x="50" y="274"/>
      <point x="50" y="277" type="curve" smooth="yes"/>
      <point x="50" y="382"/>
      <point x="129" y="433"/>
    </contour>
  </outline>
</glyph>
<glyph name="afii10073" format="2">
  <advance width="450"/>
  <unicode hex="0437"/>
  <anchor x="338" y="502" name="Yerok"/>
  <anchor x="217" y="502" name="Diacritic"/>
  <outline>
    <contour>
      <point x="268" y="-84" type="curve" smooth="yes"/>
      <point x="302.832" y="-84"/>
      <point x="330.655" y="-75.381"/>
      <point x="330.655" y="-32.444" type="curve" smooth="yes"/>
      <point x="330.655" y="-17.2205"/>
      <point x="324.246" y="-6.13398"/>
      <point x="320" y="10" type="curve" smooth="yes"/>
      <point x="316" y="24"/>
      <point x="318" y="35"/>
      <point x="313" y="48" type="curve" smooth="yes"/>
      <point x="303" y="77"/>
      <point x="285" y="93"/>
      <point x="265" y="109" type="curve"/>
      <point x="238" y="92"/>
      <point x="212" y="76"/>
      <point x="189" y="62" type="curve" smooth="yes"/>
      <point x="186" y="60"/>
      <point x="180" y="60"/>
      <point x="175" y="62" type="curve" smooth="yes"/>
      <point x="146" y="76"/>
      <point x="123" y="92"/>
      <point x="102" y="120" type="curve" smooth="yes"/>
      <point x="98.3652" y="125.193"/>
      <point x="96.6178" y="130.385"/>
      <point x="96.6178" y="135.578" type="curve" smooth="yes"/>
      <point x="96.6178" y="140.385"/>
      <point x="98.1156" y="145.193"/>
      <point x="101" y="150" type="curve" smooth="yes"/>
      <point x="124" y="190"/>
      <point x="148" y="207"/>
      <point x="182" y="227" type="curve" smooth="yes"/>
      <point x="186" y="230"/>
      <point x="190" y="229"/>
      <point x="195" y="227" type="curve" smooth="yes"/>
      <point x="219" y="219"/>
      <point x="243" y="208"/>
      <point x="266" y="195" type="curve"/>
      <point x="298.446" y="217.614"/>
      <point x="327.025" y="243.128"/>
      <point x="327.025" y="295.304" type="curve" smooth="yes"/>
      <point x="327.025" y="339.618"/>
      <point x="280.952" y="381.044"/>
      <point x="232.993" y="381.044" type="curve" smooth="yes"/>
      <point x="200.068" y="381.044"/>
      <point x="168.557" y="365.144"/>
      <point x="154" y="337" type="curve" smooth="yes"/>
      <point x="152" y="333"/>
      <point x="151.444" y="329.333"/>
      <point x="151.444" y="325.778" type="curve" smooth="yes"/>
      <point x="151.444" y="321.333"/>
      <point x="152.312" y="317.062"/>
      <point x="152.312" y="312.531" type="curve" smooth="yes"/>
      <point x="152.312" y="294.864"/>
      <point x="143.919" y="284.759"/>
      <point x="125.577" y="284.759" type="curve" smooth="yes"/>
      <point x="105.491" y="284.759"/>
      <point x="71.5581" y="293.879"/>
      <point x="50" y="303" type="curve" smooth="yes"/>
      <point x="42" y="306.333"/>
      <point x="38.4444" y="315"/>
      <point x="38.4444" y="323.963" type="curve" smooth="yes"/>
      <point x="38.4444" y="328.444"/>
      <point x="39.3333" y="333"/>
      <point x="41" y="337" type="curve" smooth="yes"/>
      <point x="71" y="418"/>
      <point x="137" y="439"/>
      <point x="217" y="439" type="curve" smooth="yes"/>
      <point x="302.484" y="439"/>
      <point x="400.023" y="411.405"/>
      <point x="400.023" y="298.223" type="curve" smooth="yes"/>
      <point x="400.023" y="238.571"/>
      <point x="368.345" y="192.421"/>
      <point x="326" y="155" type="curve"/>
      <point x="375.303" y="112.6"/>
      <point x="410.021" y="58.5317"/>
      <point x="410.021" y="0.466018" type="curve" smooth="yes"/>
      <point x="410.021" y="-78.5828"/>
      <point x="322.98" y="-137"/>
      <point x="234" y="-137" type="curve" smooth="yes"/>
      <point x="195" y="-137"/>
      <point x="179" y="-131"/>
      <point x="147" y="-113" type="curve" smooth="yes"/>
      <point x="129.381" y="-103.212"/>
      <point x="114.637" y="-80.9684"/>
      <point x="94.3263" y="-80.9684" type="curve" smooth="yes"/>
      <point x="76.1431" y="-80.9684"/>
      <point x="68.3329" y="-93.8789"/>
      <point x="46" y="-102" type="curve" smooth="yes"/>
      <point x="45.4522" y="-102.205"/>
      <point x="44.8574" y="-102.303"/>
      <point x="44.2283" y="-102.303" type="curve" smooth="yes"/>
      <point x="37.7206" y="-102.303"/>
      <point x="27.5349" y="-91.861"/>
      <point x="27.5349" y="-82.3522" type="curve" smooth="yes"/>
      <point x="27.5349" y="-79.357"/>
      <point x="28.5455" y="-76.4545"/>
      <point x="31" y="-74" type="curve" smooth="yes"/>
      <point x="63" y="-43"/>
      <point x="106" y="-23"/>
      <point x="142" y="-19" type="curve" smooth="yes"/>
      <point x="143.621" y="-18.8276"/>
      <point x="145.22" y="-18.7444"/>
      <point x="146.799" y="-18.7444" type="curve" smooth="yes"/>
      <point x="191.025" y="-18.7444"/>
      <point x="219.724" y="-84"/>
    </contour>
  </outline>
</glyph>
<glyph name="afii10076" format="2">
  <advance width="442"/>
  <unicode hex="043A"/>
  <anchor x="358" y="502" name="Yerok"/>
  <anchor x="237" y="502" name="Diacritic"/>
  <outline>
    <contour>
      <point x="172.345" y="26.1777" type="curve" smooth="yes"/>
      <point x="172.345" y="15.7293"/>
      <point x="164.169" y="0"/>
      <point x="155" y="0" type="curve" smooth="yes"/>
      <point x="77" y="0" type="line" smooth="yes"/>
      <point x="69" y="0"/>
      <point x="62" y="9"/>
      <point x="62" y="16" type="curve" smooth="yes"/>
      <point x="60.8032" y="39.937"/>
      <point x="60.2939" y="69.2599"/>
      <point x="60.2939" y="101.582" type="curve" smooth="yes"/>
      <point x="60.2939" y="204.292"/>
      <point x="65.4362" y="337.288"/>
      <point x="70" y="424" type="curve" smooth="yes"/>
      <point x="70" y="430"/>
      <point x="75" y="437"/>
      <point x="82" y="437" type="curve" smooth="yes"/>
      <point x="164" y="437" type="line" smooth="yes"/>
      <point x="172.538" y="437"/>
      <point x="181.076" y="427.1"/>
      <point x="181.076" y="415.838" type="curve" smooth="yes"/>
      <point x="181.076" y="330.012"/>
      <point x="165.948" y="210.352"/>
      <point x="165.948" y="121.759" type="curve" smooth="yes"/>
      <point x="165.948" y="94.0323"/>
      <point x="166.841" y="69.4275"/>
      <point x="169" y="50" type="curve" smooth="yes"/>
      <point x="169.642" y="42.295"/>
      <point x="172.345" y="34.1778"/>
    </contour>
    <contour>
      <point x="225" y="256" type="curve" smooth="yes"/>
      <point x="275" y="391" type="line" smooth="yes"/>
      <point x="280.029" y="403.07"/>
      <point x="314.46" y="441.142"/>
      <point x="370.251" y="441.142" type="curve" smooth="yes"/>
      <point x="387.381" y="441.142"/>
      <point x="403.369" y="436.338"/>
      <point x="407" y="420" type="curve" smooth="yes"/>
      <point x="408.399" y="413.007"/>
      <point x="409.111" y="406.097"/>
      <point x="409.111" y="399.517" type="curve" smooth="yes"/>
      <point x="409.111" y="373.111"/>
      <point x="397.639" y="352"/>
      <point x="373" y="352" type="curve" smooth="yes"/>
      <point x="356" y="352"/>
      <point x="341" y="360"/>
      <point x="321" y="360" type="curve" smooth="yes"/>
      <point x="311" y="360"/>
      <point x="303" y="351"/>
      <point x="300" y="342" type="curve" smooth="yes"/>
      <point x="271" y="266" type="line" smooth="yes"/>
      <point x="269.039" y="260.508"/>
      <point x="267.847" y="251.477"/>
      <point x="267.847" y="242.528" type="curve" smooth="yes"/>
      <point x="267.847" y="228.665"/>
      <point x="270.707" y="215"/>
      <point x="278" y="215" type="curve" smooth="yes"/>
      <point x="332" y="215" type="line" smooth="yes"/>
      <point x="342" y="215"/>
      <point x="346" y="204"/>
      <point x="348" y="198" type="curve" smooth="yes"/>
      <point x="397" y="22" type="line" smooth="yes"/>
      <point x="400" y="12"/>
      <point x="395" y="0"/>
      <point x="385" y="0" type="curve" smooth="yes"/>
      <point x="309" y="0" type="line" smooth="yes"/>
      <point x="297" y="0"/>
      <point x="292" y="11"/>
      <point x="289" y="23" type="curve" smooth="yes"/>
      <point x="259" y="164" type="line" smooth="yes"/>
      <point x="256" y="178"/>
      <point x="246" y="185"/>
      <point x="237" y="194" type="curve" smooth="yes"/>
      <point x="225.869" y="205.131"/>
      <point x="219.883" y="216.69"/>
      <point x="219.883" y="230.924" type="curve" smooth="yes"/>
      <point x="219.883" y="238.429"/>
      <point x="221.547" y="246.678"/>
    </contour>
  </outline>
</glyph>
<glyph name="afii10079" format="2">
  <advance width="458"/>
  <unicode hex="043D"/>
  <anchor x="338" y="502" name="Yerok"/>
  <anchor x="237" y="502" name="Diacritic"/>
  <outline>
    <contour>
      <point x="396.345" y="26.1777" type="curve" smooth="yes"/>
      <point x="396.345" y="15.7293"/>
      <point x="388.169" y="0"/>
      <point x="379" y="0" type="curve" smooth="yes"/>
      <point x="307" y="0" type="line" smooth="yes"/>
      <point x="299" y="0"/>
      <point x="293" y="9"/>
      <point x="292" y="16" type="curve" smooth="yes"/>
      <point x="288" y="59"/>
      <point x="287" y="119"/>
      <point x="287" y="183" type="curve"/>
      <point x="166" y="239" type="line"/>
      <point x="165.333" y="214.667"/>
      <point x="165" y="190.556"/>
      <point x="165" y="167.556" type="curve" smooth="yes"/>
      <point x="165" y="121.556"/>
      <point x="166.333" y="80"/>
      <point x="169" y="50" type="curve" smooth="yes"/>
      <point x="169.501" y="43.985"/>
      <point x="170.521" y="35.4342"/>
      <point x="170.521" y="27.1012" type="curve" smooth="yes"/>
      <point x="170.521" y="13.2496"/>
      <point x="167.703" y="-1.77636e-15"/>
      <point x="155" y="0" type="curve" smooth="yes"/>
      <point x="81" y="0" type="line" smooth="yes"/>
      <point x="73" y="0"/>
      <point x="66" y="9"/>
      <point x="66" y="16" type="curve" smooth="yes"/>
      <point x="64.2916" y="50.1688"/>
      <point x="63.5171" y="95.1953"/>
      <point x="63.5171" y="144.258" type="curve" smooth="yes"/>
      <point x="63.5171" y="238.785"/>
      <point x="66.3918" y="348.294"/>
      <point x="71" y="424" type="curve" smooth="yes"/>
      <point x="71" y="430"/>
      <point x="76" y="437"/>
      <point x="83" y="437" type="curve" smooth="yes"/>
      <point x="158" y="437" type="line" smooth="yes"/>
      <point x="166.538" y="437"/>
      <point x="175.076" y="427.1"/>
      <point x="175.076" y="415.838" type="curve" smooth="yes"/>
      <point x="175.076" y="376.061"/>
      <point x="169.015" y="330.673"/>
      <point x="168" y="284" type="curve"/>
      <point x="287" y="228" type="line"/>
      <point x="288" y="299"/>
      <point x="290" y="370"/>
      <point x="294" y="424" type="curve" smooth="yes"/>
      <point x="294" y="430"/>
      <point x="299" y="437"/>
      <point x="306" y="437" type="curve" smooth="yes"/>
      <point x="378" y="437" type="line" smooth="yes"/>
      <point x="386.538" y="437"/>
      <point x="395.076" y="427.1"/>
      <point x="395.076" y="415.838" type="curve" smooth="yes"/>
      <point x="395.076" y="415.229"/>
      <point x="395.051" y="414.616"/>
      <point x="395" y="414" type="curve" smooth="yes"/>
      <point x="391.098" y="351.567"/>
      <point x="389.06" y="270.8"/>
      <point x="389.06" y="197.509" type="curve" smooth="yes"/>
      <point x="389.06" y="139.322"/>
      <point x="390.345" y="85.8475"/>
      <point x="393" y="50" type="curve" smooth="yes"/>
      <point x="393.642" y="42.295"/>
      <point x="396.345" y="34.1778"/>
    </contour>
  </outline>
</glyph>
<glyph name="afii10080" format="2">
  <advance width="442"/>
  <unicode hex="043E"/>
  <anchor x="358" y="502" name="Yerok"/>
  <anchor x="227" y="512" name="Diacritic"/>
  <outline>
    <contour>
      <point x="194" y="442" type="curve"/>
      <point x="301.727" y="430.03"/>
      <point x="412.837" y="356.609"/>
      <point x="412.837" y="224.257" type="curve" smooth="yes"/>
      <point x="412.837" y="187.556"/>
      <point x="403.781" y="150.672"/>
      <point x="384" y="121" type="curve" smooth="yes"/>
      <point x="343" y="60"/>
      <point x="296" y="16"/>
      <point x="248" y="-7" type="curve"/>
      <point x="174" y="6"/>
      <point x="117" y="31"/>
      <point x="69" y="93" type="curve" smooth="yes"/>
      <point x="41.1838" y="129.375"/>
      <point x="26.8165" y="168.898"/>
      <point x="26.8165" y="209.884" type="curve" smooth="yes"/>
      <point x="26.8165" y="245.518"/>
      <point x="37.6765" y="282.259"/>
      <point x="60" y="319" type="curve" smooth="yes"/>
      <point x="94" y="376"/>
      <point x="140" y="412"/>
    </contour>
    <contour>
      <point x="271.279" y="92.9181" type="curve" smooth="yes"/>
      <point x="312.94" y="92.9181"/>
      <point x="341.741" y="131.812"/>
      <point x="341.741" y="171.761" type="curve" smooth="yes"/>
      <point x="341.741" y="211.111"/>
      <point x="319.326" y="254.384"/>
      <point x="289" y="286" type="curve" smooth="yes"/>
      <point x="257.456" y="318.887"/>
      <point x="212.397" y="346.819"/>
      <point x="172.268" y="346.819" type="curve" smooth="yes"/>
      <point x="152.606" y="346.819"/>
      <point x="134.127" y="340.113"/>
      <point x="119" y="324" type="curve" smooth="yes"/>
      <point x="104.088" y="308.094"/>
      <point x="97.8512" y="289.553"/>
      <point x="97.8512" y="270.122" type="curve" smooth="yes"/>
      <point x="97.8512" y="230.917"/>
      <point x="123.243" y="188.094"/>
      <point x="154" y="156" type="curve" smooth="yes"/>
      <point x="185.833" y="122.783"/>
      <point x="231.554" y="92.9181"/>
    </contour>
  </outline>
</glyph>
<glyph name="afii10081" format="2">
  <advance width="461"/>
  <unicode hex="043F"/>
  <anchor x="348" y="502" name="Yerok"/>
  <anchor x="237" y="502" name="Diacritic"/>
  <outline>
    <contour>
      <point x="404.345" y="26.1777" type="curve" smooth="yes"/>
      <point x="404.345" y="15.7293"/>
      <point x="396.169" y="0"/>
      <point x="387" y="0" type="curve" smooth="yes"/>
      <point x="315" y="0" type="line" smooth="yes"/>
      <point x="307" y="0"/>
      <point x="301" y="9"/>
      <point x="300" y="16" type="curve" smooth="yes"/>
      <point x="296.098" y="67.8418"/>
      <point x="294.06" y="144.232"/>
      <point x="294.06" y="221.786" type="curve" smooth="yes"/>
      <point x="294.06" y="283.358"/>
      <point x="295.345" y="345.663"/>
      <point x="298" y="397" type="curve"/>
      <point x="172" y="397" type="line"/>
      <point x="167.571" y="326.128"/>
      <point x="164.342" y="237.238"/>
      <point x="164.342" y="161.748" type="curve" smooth="yes"/>
      <point x="164.342" y="117.939"/>
      <point x="165.429" y="78.643"/>
      <point x="168" y="50" type="curve" smooth="yes"/>
      <point x="168.481" y="44.227"/>
      <point x="169.507" y="35.702"/>
      <point x="169.507" y="27.3199" type="curve" smooth="yes"/>
      <point x="169.507" y="13.4647"/>
      <point x="166.704" y="0"/>
      <point x="154" y="0" type="curve" smooth="yes"/>
      <point x="80" y="0" type="line" smooth="yes"/>
      <point x="72" y="0"/>
      <point x="65" y="9"/>
      <point x="65" y="16" type="curve" smooth="yes"/>
      <point x="63.7131" y="41.7385"/>
      <point x="63.1549" y="73.638"/>
      <point x="63.1549" y="108.783" type="curve" smooth="yes"/>
      <point x="63.1549" y="210.183"/>
      <point x="67.8017" y="338.599"/>
      <point x="73" y="424" type="curve" smooth="yes"/>
      <point x="73" y="430"/>
      <point x="78" y="437"/>
      <point x="85" y="437" type="curve" smooth="yes"/>
      <point x="384" y="437" type="line" smooth="yes"/>
      <point x="392.538" y="437"/>
      <point x="401.076" y="427.1"/>
      <point x="401.076" y="415.838" type="curve" smooth="yes"/>
      <point x="401.076" y="361.2"/>
      <point x="396.118" y="293.447"/>
      <point x="396.118" y="228.073" type="curve" smooth="yes"/>
      <point x="396.118" y="158.358"/>
      <point x="397.885" y="92.0508"/>
      <point x="401" y="50" type="curve" smooth="yes"/>
      <point x="401.642" y="42.295"/>
      <point x="404.345" y="34.1778"/>
    </contour>
  </outline>
</glyph>
<glyph name="afii10082" format="2">
  <advance width="372"/>
  <unicode hex="0440"/>
  <anchor x="279" y="502" name="Yerok"/>
  <anchor x="198" y="502" name="Diacritic"/>
  <outline>
    <contour>
      <point x="137" y="-4" type="curve"/>
      <point x="147.213" y="-62.2148"/>
      <point x="162.536" y="-146.864"/>
      <point x="162.536" y="-248.053" type="curve" smooth="yes"/>
      <point x="162.536" y="-322.699"/>
      <point x="143.305" y="-386.81"/>
      <point x="95" y="-426" type="curve" smooth="yes"/>
      <point x="91.166" y="-429.013"/>
      <point x="86.4316" y="-430.375"/>
      <point x="81.6396" y="-430.375" type="curve" smooth="yes"/>
      <point x="69.875" y="-430.375"/>
      <point x="57.7617" y="-422.162"/>
      <point x="57.7617" y="-409.993" type="curve" smooth="yes"/>
      <point x="57.7617" y="-351.534"/>
      <point x="74" y="-300.241"/>
      <point x="74" y="-230" type="curve" smooth="yes"/>
      <point x="74" y="-67"/>
      <point x="50" y="25"/>
      <point x="50" y="188" type="curve" smooth="yes"/>
      <point x="50" y="334.402"/>
      <point x="116.979" y="439.779"/>
      <point x="237.149" y="439.779" type="curve" smooth="yes"/>
      <point x="264.034" y="439.779"/>
      <point x="293.162" y="437.351"/>
      <point x="299" y="414" type="curve" smooth="yes"/>
      <point x="307" y="377"/>
      <point x="318" y="284"/>
      <point x="322" y="217" type="curve" smooth="yes"/>
      <point x="322.366" y="211.511"/>
      <point x="322.548" y="205.729"/>
      <point x="322.548" y="199.732" type="curve" smooth="yes"/>
      <point x="322.548" y="140.171"/>
      <point x="304.615" y="59.3467"/>
      <point x="271" y="33" type="curve" smooth="yes"/>
      <point x="245" y="12"/>
      <point x="199" y="-4"/>
    </contour>
    <contour>
      <point x="123" y="74" type="curve"/>
      <point x="253" y="90"/>
      <point x="261" y="151"/>
      <point x="261" y="236" type="curve" smooth="yes"/>
      <point x="261" y="277"/>
      <point x="254" y="323"/>
      <point x="248" y="344" type="curve"/>
      <point x="244.773" y="344.112"/>
      <point x="241.6" y="344.17"/>
      <point x="238.48" y="344.17" type="curve" smooth="yes"/>
      <point x="158.466" y="344.17"/>
      <point x="114" y="306.234"/>
      <point x="114" y="184" type="curve" smooth="yes"/>
      <point x="114" y="143"/>
      <point x="118" y="108"/>
    </contour>
  </outline>
</glyph>
<glyph name="afii10084" format="2">
  <advance width="632"/>
  <unicode hex="0442"/>
  <anchor x="538" y="502" name="Yerok"/>
  <anchor x="344" y="502" name="Diacritic"/>
  <outline>
    <contour>
      <point x="42" y="407" type="curve" smooth="yes"/>
      <point x="40.1297" y="411.489"/>
      <point x="38.959" y="416.817"/>
      <point x="38.959" y="421.729" type="curve" smooth="yes"/>
      <point x="38.959" y="429.948"/>
      <point x="42.2369" y="437"/>
      <point x="51" y="437" type="curve" smooth="yes"/>
      <point x="595" y="437" type="line" smooth="yes"/>
      <point x="603.367" y="437"/>
      <point x="606.376" y="430.571"/>
      <point x="606.376" y="422.836" type="curve" smooth="yes"/>
      <point x="606.376" y="417.628"/>
      <point x="605.012" y="411.829"/>
      <point x="603" y="407" type="curve" smooth="yes"/>
      <point x="590" y="377"/>
      <point x="582" y="349"/>
      <point x="573" y="323" type="curve" smooth="yes"/>
      <point x="570" y="314"/>
      <point x="564" y="302"/>
      <point x="551" y="302" type="curve" smooth="yes"/>
      <point x="541" y="302"/>
      <point x="534" y="314"/>
      <point x="529" y="325" type="curve" smooth="yes"/>
      <point x="514" y="356"/>
      <point x="502" y="380"/>
      <point x="489" y="397" type="curve"/>
      <point x="407" y="397" type="line" smooth="yes"/>
      <point x="401" y="397"/>
      <point x="397" y="390"/>
      <point x="397" y="384" type="curve" smooth="yes"/>
      <point x="397" y="16" type="line" smooth="yes"/>
      <point x="397" y="8"/>
      <point x="393" y="0"/>
      <point x="385" y="0" type="curve" smooth="yes"/>
      <point x="296" y="0" type="line" smooth="yes"/>
      <point x="288" y="0"/>
      <point x="282" y="8"/>
      <point x="282" y="16" type="curve" smooth="yes"/>
      <point x="282" y="384" type="line" smooth="yes"/>
      <point x="282" y="390"/>
      <point x="278" y="397"/>
      <point x="272" y="397" type="curve" smooth="yes"/>
      <point x="157" y="397" type="line" smooth="yes"/>
      <point x="152" y="397"/>
      <point x="148" y="392"/>
      <point x="148" y="387" type="curve" smooth="yes"/>
      <point x="148" y="210" type="line" smooth="yes"/>
      <point x="148" y="206"/>
      <point x="146" y="198"/>
      <point x="142" y="197" type="curve" smooth="yes"/>
      <point x="103" y="185"/>
      <point x="82" y="170"/>
      <point x="63" y="160" type="curve" smooth="yes"/>
      <point x="58" y="157"/>
      <point x="52" y="165"/>
      <point x="52" y="171" type="curve" smooth="yes"/>
      <point x="52" y="368" type="line" smooth="yes"/>
      <point x="52" y="384"/>
      <point x="49" y="389"/>
    </contour>
  </outline>
</glyph>
<glyph name="uni0443" format="2">
  <advance width="484"/>
  <unicode hex="0443"/>
  <anchor x="368" y="502" name="Yerok"/>
  <anchor x="237" y="502" name="Diacritic"/>
  <outline>
    <contour>
      <point x="122" y="437" type="line" smooth="yes"/>
      <point x="131" y="437"/>
      <point x="139" y="429"/>
      <point x="142" y="423" type="curve" smooth="yes"/>
      <point x="179" y="343"/>
      <point x="203" y="185"/>
      <point x="214" y="101" type="curve"/>
      <point x="223" y="102"/>
      <point x="231" y="102"/>
      <point x="238" y="103" type="curve"/>
      <point x="246" y="152"/>
      <point x="252" y="232"/>
      <point x="272" y="314" type="curve" smooth="yes"/>
      <point x="290" y="388"/>
      <point x="350" y="440"/>
      <point x="416" y="444" type="curve" smooth="yes"/>
      <point x="419.857" y="444.286"/>
      <point x="423.694" y="444.449"/>
      <point x="427.423" y="444.449" type="curve" smooth="yes"/>
      <point x="447.602" y="444.449"/>
      <point x="464.622" y="439.668"/>
      <point x="464.622" y="423.637" type="curve" smooth="yes"/>
      <point x="464.622" y="421.894"/>
      <point x="464.42" y="420.018"/>
      <point x="464" y="418" type="curve" smooth="yes"/>
      <point x="462" y="407"/>
      <point x="446" y="393"/>
      <point x="441" y="376" type="curve" smooth="yes"/>
      <point x="439.731" y="370.923"/>
      <point x="439.368" y="365.846"/>
      <point x="439.368" y="361.088" type="curve" smooth="yes"/>
      <point x="439.368" y="354.728"/>
      <point x="440.016" y="348.939"/>
      <point x="440.016" y="344.485" type="curve" smooth="yes"/>
      <point x="440.016" y="341.77"/>
      <point x="439.775" y="339.551"/>
      <point x="439" y="338" type="curve" smooth="yes"/>
      <point x="433" y="327"/>
      <point x="427" y="325"/>
      <point x="414" y="325" type="curve" smooth="yes"/>
      <point x="393.512" y="325"/>
      <point x="388.253" y="344.036"/>
      <point x="371.294" y="344.036" type="curve" smooth="yes"/>
      <point x="370.87" y="344.036"/>
      <point x="370.439" y="344.024"/>
      <point x="370" y="344" type="curve" smooth="yes"/>
      <point x="346" y="343"/>
      <point x="323" y="321"/>
      <point x="319" y="301" type="curve" smooth="yes"/>
      <point x="288" y="146"/>
      <point x="281" y="-116"/>
      <point x="275" y="-300" type="curve" smooth="yes"/>
      <point x="273" y="-348"/>
      <point x="260" y="-389"/>
      <point x="230" y="-415" type="curve" smooth="yes"/>
      <point x="217.765" y="-425.625"/>
      <point x="207.5" y="-429.719"/>
      <point x="199.539" y="-429.719" type="curve" smooth="yes"/>
      <point x="187.17" y="-429.719"/>
      <point x="180.36" y="-419.838"/>
      <point x="180.36" y="-409.21" type="curve" smooth="yes"/>
      <point x="180.36" y="-405.431"/>
      <point x="181.221" y="-401.557"/>
      <point x="183" y="-398" type="curve" smooth="yes"/>
      <point x="203" y="-359"/>
      <point x="210" y="-335"/>
      <point x="213" y="-294" type="curve" smooth="yes"/>
      <point x="217" y="-218"/>
      <point x="222" y="-78"/>
      <point x="225" y="32" type="curve"/>
      <point x="200" y="29"/>
      <point x="172" y="21"/>
      <point x="141" y="10" type="curve" smooth="yes"/>
      <point x="132" y="7"/>
      <point x="124" y="14"/>
      <point x="123" y="25" type="curve" smooth="yes"/>
      <point x="112" y="130"/>
      <point x="86" y="306"/>
      <point x="33" y="419" type="curve" smooth="yes"/>
      <point x="30" y="426"/>
      <point x="37" y="437"/>
      <point x="45" y="437" type="curve" smooth="yes"/>
    </contour>
  </outline>
</glyph>
<glyph name="afii10089" format="2">
  <advance width="401"/>
  <unicode hex="0447"/>
  <anchor x="318" y="502" name="Yerok"/>
  <anchor x="197" y="502" name="Diacritic"/>
  <outline>
    <contour>
      <point x="346.345" y="26.1777" type="curve" smooth="yes"/>
      <point x="346.345" y="15.7293"/>
      <point x="338.169" y="0"/>
      <point x="329" y="0" type="curve" smooth="yes"/>
      <point x="251" y="0" type="line" smooth="yes"/>
      <point x="243" y="0"/>
      <point x="236" y="9"/>
      <point x="236" y="16" type="curve" smooth="yes"/>
      <point x="234.098" y="52.7705"/>
      <point x="233.402" y="103.206"/>
      <point x="233.402" y="157.625" type="curve" smooth="yes"/>
      <point x="233.402" y="189.044"/>
      <point x="233.634" y="221.79"/>
      <point x="234" y="254" type="curve"/>
      <point x="227.8" y="253.483"/>
      <point x="220.865" y="253.234"/>
      <point x="213.524" y="253.234" type="curve" smooth="yes"/>
      <point x="192.45" y="253.234"/>
      <point x="168.025" y="255.292"/>
      <point x="148" y="259" type="curve" smooth="yes"/>
      <point x="85.4252" y="269.429"/>
      <point x="34.5361" y="327.5"/>
      <point x="34.5361" y="410.202" type="curve" smooth="yes"/>
      <point x="34.5361" y="414.728"/>
      <point x="34.6886" y="419.329"/>
      <point x="35" y="424" type="curve" smooth="yes"/>
      <point x="35" y="429"/>
      <point x="38" y="437"/>
      <point x="47" y="437" type="curve" smooth="yes"/>
      <point x="131" y="437" type="line" smooth="yes"/>
      <point x="139" y="437"/>
      <point x="141" y="431"/>
      <point x="141" y="426" type="curve" smooth="yes"/>
      <point x="141" y="367.467"/>
      <point x="170.736" y="303"/>
      <point x="235" y="303" type="curve"/>
      <point x="236" y="348"/>
      <point x="238" y="389"/>
      <point x="240" y="424" type="curve" smooth="yes"/>
      <point x="240" y="430"/>
      <point x="245" y="437"/>
      <point x="252" y="437" type="curve" smooth="yes"/>
      <point x="326" y="437" type="line" smooth="yes"/>
      <point x="334.538" y="437"/>
      <point x="343.076" y="427.1"/>
      <point x="343.076" y="415.838" type="curve" smooth="yes"/>
      <point x="343.076" y="357.404"/>
      <point x="336.619" y="283.885"/>
      <point x="336.619" y="214.5" type="curve" smooth="yes"/>
      <point x="336.619" y="149.823"/>
      <point x="338.632" y="89.3119"/>
      <point x="343" y="50" type="curve" smooth="yes"/>
      <point x="343.642" y="42.295"/>
      <point x="346.345" y="34.1778"/>
    </contour>
  </outline>
</glyph>
<glyph name="afii10091" format="2">
  <advance width="668"/>
  <unicode hex="0449"/>
  <anchor x="548" y="502" name="Yerok"/>
  <anchor x="337" y="502" name="Diacritic"/>
  <outline>
    <contour>
      <point x="612.345" y="26.1777" type="curve" smooth="yes"/>
      <point x="612.345" y="15.7293"/>
      <point x="604.169" y="0"/>
      <point x="595" y="0" type="curve" smooth="yes"/>
      <point x="389" y="0" type="line"/>
      <point x="389.519" y="-21.276"/>
      <point x="389.971" y="-45.4469"/>
      <point x="389.971" y="-71.9361" type="curve" smooth="yes"/>
      <point x="389.971" y="-147.539"/>
      <point x="386.292" y="-242.028"/>
      <point x="370" y="-342" type="curve" smooth="yes"/>
      <point x="363" y="-382"/>
      <point x="346" y="-401"/>
      <point x="317" y="-409" type="curve" smooth="yes"/>
      <point x="314.962" y="-409.536"/>
      <point x="312.854" y="-409.797"/>
      <point x="310.733" y="-409.797" type="curve" smooth="yes"/>
      <point x="297.105" y="-409.797"/>
      <point x="282.919" y="-399.054"/>
      <point x="282.919" y="-381.827" type="curve" smooth="yes"/>
      <point x="282.919" y="-376.746"/>
      <point x="284.153" y="-371.1"/>
      <point x="287" y="-365" type="curve" smooth="yes"/>
      <point x="294" y="-350"/>
      <point x="301" y="-341"/>
      <point x="306" y="-316" type="curve" smooth="yes"/>
      <point x="309.166" y="-300.17"/>
      <point x="310.286" y="-284.75"/>
      <point x="310.286" y="-269.738" type="curve" smooth="yes"/>
      <point x="310.286" y="-251.559"/>
      <point x="308.643" y="-233.979"/>
      <point x="307" y="-217" type="curve" smooth="yes"/>
      <point x="299" y="-129"/>
      <point x="291" y="-58"/>
      <point x="287" y="0" type="curve"/>
      <point x="81" y="0" type="line" smooth="yes"/>
      <point x="73" y="0"/>
      <point x="67" y="9"/>
      <point x="66" y="16" type="curve" smooth="yes"/>
      <point x="63.9184" y="45.44"/>
      <point x="63.0748" y="83.1926"/>
      <point x="63.0748" y="124.761" type="curve" smooth="yes"/>
      <point x="63.0748" y="222.977"/>
      <point x="67.7842" y="342.495"/>
      <point x="72" y="424" type="curve" smooth="yes"/>
      <point x="72" y="430"/>
      <point x="77" y="437"/>
      <point x="84" y="437" type="curve" smooth="yes"/>
      <point x="158" y="437" type="line" smooth="yes"/>
      <point x="166.538" y="437"/>
      <point x="175.076" y="427.1"/>
      <point x="175.076" y="415.838" type="curve" smooth="yes"/>
      <point x="175.076" y="351.065"/>
      <point x="167.49" y="267.523"/>
      <point x="167.49" y="192.006" type="curve" smooth="yes"/>
      <point x="167.49" y="135.959"/>
      <point x="169.143" y="84.7143"/>
      <point x="173" y="50" type="curve" smooth="yes"/>
      <point x="173" y="47"/>
      <point x="174" y="43"/>
      <point x="175" y="40" type="curve"/>
      <point x="283" y="40" type="line"/>
      <point x="282.131" y="85.1629"/>
      <point x="281.452" y="143.338"/>
      <point x="281.452" y="203.469" type="curve" smooth="yes"/>
      <point x="281.452" y="281.807"/>
      <point x="282.606" y="363.466"/>
      <point x="286" y="424" type="curve" smooth="yes"/>
      <point x="286" y="430"/>
      <point x="291" y="437"/>
      <point x="298" y="437" type="curve" smooth="yes"/>
      <point x="372" y="437" type="line" smooth="yes"/>
      <point x="380.538" y="437"/>
      <point x="389.076" y="427.1"/>
      <point x="389.076" y="415.838" type="curve" smooth="yes"/>
      <point x="389.076" y="366.03"/>
      <point x="384.381" y="306.729"/>
      <point x="384.381" y="247.628" type="curve" smooth="yes"/>
      <point x="384.381" y="167.971"/>
      <point x="386.691" y="89.6521"/>
      <point x="389" y="40" type="curve"/>
      <point x="501" y="40" type="line"/>
      <point x="499.693" y="67.1909"/>
      <point x="499.137" y="99.0984"/>
      <point x="499.137" y="133.31" type="curve" smooth="yes"/>
      <point x="499.137" y="229.951"/>
      <point x="503.569" y="344.975"/>
      <point x="508" y="424" type="curve" smooth="yes"/>
      <point x="508" y="430"/>
      <point x="513" y="437"/>
      <point x="520" y="437" type="curve" smooth="yes"/>
      <point x="594" y="437" type="line" smooth="yes"/>
      <point x="602.538" y="437"/>
      <point x="611.076" y="427.1"/>
      <point x="611.076" y="415.838" type="curve" smooth="yes"/>
      <point x="611.076" y="351.065"/>
      <point x="603.49" y="267.523"/>
      <point x="603.49" y="192.006" type="curve" smooth="yes"/>
      <point x="603.49" y="135.959"/>
      <point x="605.143" y="84.7143"/>
      <point x="609" y="50" type="curve" smooth="yes"/>
      <point x="609.642" y="42.295"/>
      <point x="612.345" y="34.1778"/>
    </contour>
  </outline>
</glyph>
<glyph name="uni044F" format="2">
  <advance width="410"/>
  <unicode hex="044F"/>
  <anchor x="209" y="519" name="Diacritic"/>
  <anchor x="265" y="519" name="Yerok"/>
  <outline>
    <contour>
      <point x="114" y="0" type="curve"/>
      <point x="43" y="0" type="line" smooth="yes"/>
      <point x="30" y="0"/>
      <point x="29" y="13"/>
      <point x="30" y="19" type="curve" smooth="yes"/>
      <point x="114" y="234" type="line" smooth="yes"/>
      <point x="118" y="240"/>
      <point x="121" y="245"/>
      <point x="130" y="245" type="curve" smooth="yes"/>
      <point x="202" y="245" type="line"/>
      <point x="79" y="416" type="line" smooth="yes"/>
      <point x="74" y="426"/>
      <point x="77" y="436"/>
      <point x="88" y="436" type="curve" smooth="yes"/>
      <point x="314" y="436" type="line" smooth="yes"/>
      <point x="323" y="436"/>
      <point x="330" y="433"/>
      <point x="330" y="420" type="curve" smooth="yes"/>
      <point x="349" y="16" type="line" smooth="yes"/>
      <point x="349" y="6"/>
      <point x="340" y="0"/>
      <point x="330" y="0" type="curve" smooth="yes"/>
      <point x="269" y="0" type="line"/>
      <point x="254" y="0"/>
      <point x="252" y="5"/>
      <point x="251" y="21" type="curve"/>
      <point x="243" y="176" type="line"/>
      <point x="224" y="206" type="line"/>
      <point x="208" y="206" type="line"/>
      <point x="138" y="18" type="line"/>
      <point x="133" y="7"/>
      <point x="133" y="0"/>
    </contour>
    <contour>
      <point x="135" y="397" type="line"/>
      <point x="240" y="251" type="line"/>
      <point x="235" y="385" type="line" smooth="yes"/>
      <point x="235" y="394"/>
      <point x="232" y="397"/>
      <point x="223" y="397" type="curve" smooth="yes"/>
    </contour>
  </outline>
</glyph>
<glyph name="uni0450" format="2">
  <advance width="275"/>
  <unicode hex="0450"/>
  <anchor x="143.981" y="801" name="Yerok"/>
  <anchor x="145.981" y="799" name="Diacritic"/>
  <outline>
    <contour>
      <point x="229.981" y="441" type="curve" smooth="yes"/>
      <point x="240.981" y="442"/>
      <point x="241.981" y="437"/>
      <point x="242.981" y="429" type="curve" smooth="yes"/>
      <point x="244.137" y="419.185"/>
      <point x="245.291" y="406.037"/>
      <point x="245.291" y="392.441" type="curve" smooth="yes"/>
      <point x="245.291" y="382.49"/>
      <point x="244.672" y="372.298"/>
      <point x="242.981" y="363" type="curve" smooth="yes"/>
      <point x="241.981" y="355"/>
      <point x="240.981" y="353"/>
      <point x="230.981" y="352" type="curve" smooth="yes"/>
      <point x="179.635" y="345.088"/>
      <point x="140.963" y="315.75"/>
      <point x="140.963" y="278.428" type="curve" smooth="yes"/>
      <point x="140.963" y="277.953"/>
      <point x="140.969" y="277.477"/>
      <point x="140.981" y="277" type="curve" smooth="yes"/>
      <point x="140.981" y="258" type="line"/>
      <point x="150.981" y="261"/>
      <point x="161.981" y="265"/>
      <point x="169.981" y="268" type="curve" smooth="yes"/>
      <point x="183.981" y="273"/>
      <point x="205.981" y="281"/>
      <point x="220.981" y="282" type="curve" smooth="yes"/>
      <point x="237.981" y="283"/>
      <point x="236.981" y="275"/>
      <point x="237.981" y="267" type="curve" smooth="yes"/>
      <point x="238.827" y="260.66"/>
      <point x="239.137" y="250.927"/>
      <point x="239.137" y="240.592" type="curve" smooth="yes"/>
      <point x="239.137" y="226.476"/>
      <point x="238.559" y="211.237"/>
      <point x="237.981" y="202" type="curve" smooth="yes"/>
      <point x="236.981" y="190"/>
      <point x="236.981" y="187"/>
      <point x="224.981" y="184" type="curve" smooth="yes"/>
      <point x="197.981" y="178"/>
      <point x="163.981" y="166"/>
      <point x="141.981" y="152" type="curve"/>
      <point x="142.981" y="126"/>
      <point x="143.981" y="104"/>
      <point x="144.981" y="95" type="curve"/>
      <point x="166.981" y="100"/>
      <point x="190.981" y="114"/>
      <point x="212.981" y="121" type="curve" smooth="yes"/>
      <point x="215.981" y="122"/>
      <point x="218.426" y="122.473"/>
      <point x="220.417" y="122.473" type="curve" smooth="yes"/>
      <point x="228.199" y="122.473"/>
      <point x="229.048" y="115.256"/>
      <point x="229.048" y="104.143" type="curve" smooth="yes"/>
      <point x="229.048" y="101.041"/>
      <point x="228.981" y="97.6367"/>
      <point x="228.981" y="94" type="curve" smooth="yes"/>
      <point x="228.981" y="58"/>
      <point x="195.981" y="-2"/>
      <point x="75.9814" y="-2" type="curve" smooth="yes"/>
      <point x="62.9814" y="-2"/>
      <point x="54.9814" y="1"/>
      <point x="54.9814" y="13" type="curve" smooth="yes"/>
      <point x="56.1533" y="42.2891"/>
      <point x="56.6387" y="67.375"/>
      <point x="56.6387" y="90.8457" type="curve" smooth="yes"/>
      <point x="56.6387" y="147.508"/>
      <point x="53.8105" y="194.754"/>
      <point x="50.9814" y="269" type="curve" smooth="yes"/>
      <point x="50.8867" y="271.636"/>
      <point x="50.8398" y="274.238"/>
      <point x="50.8398" y="276.808" type="curve" smooth="yes"/>
      <point x="50.8398" y="382.491"/>
      <point x="130.403" y="433.189"/>
    </contour>
    <contour>
      <point x="161.981" y="544" type="line" smooth="yes"/>
      <point x="163.465" y="541.033"/>
      <point x="164.154" y="537.639"/>
      <point x="164.154" y="534.148" type="curve" smooth="yes"/>
      <point x="164.154" y="523.522"/>
      <point x="157.768" y="512.011"/>
      <point x="147.981" y="509" type="curve" smooth="yes"/>
      <point x="144.978" y="508.075"/>
      <point x="141.759" y="507.632"/>
      <point x="138.5" y="507.632" type="curve" smooth="yes"/>
      <point x="127.657" y="507.632"/>
      <point x="116.364" y="512.542"/>
      <point x="110.981" y="521" type="curve" smooth="yes"/>
      <point x="-26.0186" y="735" type="line" smooth="yes"/>
      <point x="-30.0186" y="742"/>
      <point x="-21.0186" y="752"/>
      <point x="-13.0186" y="752" type="curve" smooth="yes"/>
      <point x="43.9814" y="752" type="line" smooth="yes"/>
      <point x="53.9814" y="752"/>
      <point x="61.9814" y="746"/>
      <point x="65.9814" y="738" type="curve" smooth="yes"/>
    </contour>
  </outline>
</glyph>
<glyph name="uni0451" format="2">
  <advance width="321"/>
  <unicode hex="0451"/>
  <anchor x="164.515" y="702" name="Yerok"/>
  <anchor x="164.515" y="702" name="Diacritic"/>
  <outline>
    <contour>
      <point x="176.515" y="623" type="line" smooth="yes"/>
      <point x="174.515" y="629"/>
      <point x="178.515" y="636"/>
      <point x="185.515" y="636" type="curve" smooth="yes"/>
      <point x="231.515" y="636" type="line" smooth="yes"/>
      <point x="236.515" y="636"/>
      <point x="241.515" y="628"/>
      <point x="242.515" y="623" type="curve" smooth="yes"/>
      <point x="271.515" y="514" type="line" smooth="yes"/>
      <point x="273.515" y="508"/>
      <point x="267.515" y="501"/>
      <point x="260.515" y="501" type="curve" smooth="yes"/>
      <point x="218.515" y="501" type="line" smooth="yes"/>
      <point x="213.515" y="501"/>
      <point x="206.515" y="509"/>
      <point x="205.515" y="514" type="curve" smooth="yes"/>
    </contour>
    <contour>
      <point x="50.5146" y="623" type="line" smooth="yes"/>
      <point x="48.5146" y="629"/>
      <point x="52.5146" y="636"/>
      <point x="59.5146" y="636" type="curve" smooth="yes"/>
      <point x="103.515" y="636" type="line" smooth="yes"/>
      <point x="108.515" y="636"/>
      <point x="115.515" y="628"/>
      <point x="116.515" y="623" type="curve" smooth="yes"/>
      <point x="145.515" y="514" type="line" smooth="yes"/>
      <point x="147.515" y="508"/>
      <point x="141.515" y="501"/>
      <point x="134.515" y="501" type="curve" smooth="yes"/>
      <point x="92.5146" y="501" type="line" smooth="yes"/>
      <point x="87.5146" y="501"/>
      <point x="80.5146" y="509"/>
      <point x="79.5146" y="514" type="curve" smooth="yes"/>
    </contour>
    <contour>
      <point x="253.515" y="441" type="curve" smooth="yes"/>
      <point x="264.515" y="442"/>
      <point x="265.515" y="437"/>
      <point x="266.515" y="429" type="curve" smooth="yes"/>
      <point x="267.515" y="419"/>
      <point x="268.515" y="406"/>
      <point x="268.515" y="392" type="curve" smooth="yes"/>
      <point x="268.515" y="382"/>
      <point x="268.515" y="372"/>
      <point x="266.515" y="363" type="curve" smooth="yes"/>
      <point x="265.515" y="355"/>
      <point x="264.515" y="353"/>
      <point x="254.515" y="352" type="curve" smooth="yes"/>
      <point x="203.168" y="345.088"/>
      <point x="164.496" y="315.75"/>
      <point x="164.496" y="278.428" type="curve" smooth="yes"/>
      <point x="164.496" y="277.953"/>
      <point x="164.502" y="277.477"/>
      <point x="164.515" y="277" type="curve"/>
      <point x="164.515" y="258" type="line"/>
      <point x="190.515" y="266"/>
      <point x="216.515" y="280"/>
      <point x="244.515" y="282" type="curve" smooth="yes"/>
      <point x="261.515" y="283"/>
      <point x="260.515" y="275"/>
      <point x="261.515" y="267" type="curve" smooth="yes"/>
      <point x="262.515" y="261"/>
      <point x="262.515" y="251"/>
      <point x="262.515" y="241" type="curve" smooth="yes"/>
      <point x="262.515" y="226"/>
      <point x="262.515" y="211"/>
      <point x="261.515" y="202" type="curve" smooth="yes"/>
      <point x="260.515" y="190"/>
      <point x="260.515" y="187"/>
      <point x="248.515" y="184" type="curve" smooth="yes"/>
      <point x="221.515" y="178"/>
      <point x="187.515" y="166"/>
      <point x="165.515" y="152" type="curve"/>
      <point x="166.515" y="126"/>
      <point x="167.515" y="104"/>
      <point x="168.515" y="95" type="curve"/>
      <point x="190.515" y="100"/>
      <point x="214.515" y="114"/>
      <point x="236.515" y="121" type="curve" smooth="yes"/>
      <point x="239.515" y="122"/>
      <point x="241.515" y="122"/>
      <point x="243.515" y="122" type="curve" smooth="yes"/>
      <point x="251.515" y="122"/>
      <point x="252.515" y="115"/>
      <point x="252.515" y="104" type="curve" smooth="yes"/>
      <point x="252.515" y="101"/>
      <point x="252.515" y="98"/>
      <point x="252.515" y="94" type="curve" smooth="yes"/>
      <point x="252.515" y="58"/>
      <point x="219.515" y="-2"/>
      <point x="99.5146" y="-2" type="curve" smooth="yes"/>
      <point x="86.5146" y="-2"/>
      <point x="78.5146" y="1"/>
      <point x="78.5146" y="13" type="curve" smooth="yes"/>
      <point x="79.5146" y="42"/>
      <point x="80.5146" y="67"/>
      <point x="80.5146" y="91" type="curve" smooth="yes"/>
      <point x="80.5146" y="148"/>
      <point x="77.5146" y="195"/>
      <point x="74.5146" y="269" type="curve" smooth="yes"/>
      <point x="74.5146" y="272"/>
      <point x="74.5146" y="274"/>
      <point x="74.5146" y="277" type="curve" smooth="yes"/>
      <point x="74.5146" y="382"/>
      <point x="153.515" y="433"/>
    </contour>
  </outline>
</glyph>
<glyph name="uni0453" format="2">
  <advance width="379"/>
  <unicode hex="0453"/>
  <anchor x="199" y="819" name="Yerok"/>
  <anchor x="200" y="818" name="Diacritic"/>
  <outline>
    <contour>
      <point x="156.072" y="516.948" type="curve" smooth="yes"/>
      <point x="141.94" y="516.948"/>
      <point x="135.714" y="528.26"/>
      <point x="135.714" y="540.854" type="curve" smooth="yes"/>
      <point x="135.714" y="545.137"/>
      <point x="136.494" y="549.386"/>
      <point x="138" y="553" type="curve" smooth="yes"/>
      <point x="225" y="749" type="line" smooth="yes"/>
      <point x="229" y="757"/>
      <point x="237" y="763"/>
      <point x="247" y="763" type="curve" smooth="yes"/>
      <point x="304" y="763" type="line" smooth="yes"/>
      <point x="312" y="763"/>
      <point x="321" y="753"/>
      <point x="317" y="746" type="curve" smooth="yes"/>
      <point x="182" y="532" type="line" smooth="yes"/>
      <point x="177.081" y="523.802"/>
      <point x="166.786" y="516.948"/>
    </contour>
    <contour>
      <point x="341" y="407" type="curve" smooth="yes"/>
      <point x="319" y="377"/>
      <point x="310" y="354"/>
      <point x="301" y="323" type="curve" smooth="yes"/>
      <point x="298" y="314"/>
      <point x="295" y="302"/>
      <point x="282" y="302" type="curve" smooth="yes"/>
      <point x="272" y="302"/>
      <point x="265" y="314"/>
      <point x="260" y="325" type="curve" smooth="yes"/>
      <point x="245" y="356"/>
      <point x="233" y="380"/>
      <point x="220" y="397" type="curve"/>
      <point x="174" y="397" type="line" smooth="yes"/>
      <point x="168" y="397"/>
      <point x="164" y="390"/>
      <point x="164" y="384" type="curve" smooth="yes"/>
      <point x="164" y="16" type="line" smooth="yes"/>
      <point x="164" y="8"/>
      <point x="161" y="0"/>
      <point x="153" y="0" type="curve" smooth="yes"/>
      <point x="76" y="0" type="line" smooth="yes"/>
      <point x="68" y="0"/>
      <point x="64" y="8"/>
      <point x="64" y="16" type="curve" smooth="yes"/>
      <point x="64" y="418" type="line" smooth="yes"/>
      <point x="64" y="426"/>
      <point x="67" y="437"/>
      <point x="75" y="437" type="curve" smooth="yes"/>
      <point x="333" y="437" type="line" smooth="yes"/>
      <point x="341.608" y="437"/>
      <point x="345.679" y="429.818"/>
      <point x="345.679" y="421.728" type="curve" smooth="yes"/>
      <point x="345.679" y="416.66"/>
      <point x="344.081" y="411.237"/>
    </contour>
  </outline>
</glyph>
<glyph name="afii10103" format="2">
  <advance width="230"/>
  <unicode hex="0456"/>
  <anchor x="117" y="502" name="Yerok"/>
  <anchor x="117" y="502" name="Diacritic"/>
  <outline>
    <contour>
      <point x="172" y="414" type="curve" smooth="yes"/>
      <point x="169.296" y="356.131"/>
      <point x="167.469" y="278.079"/>
      <point x="167.469" y="205.789" type="curve" smooth="yes"/>
      <point x="167.469" y="144.414"/>
      <point x="168.786" y="87.1925"/>
      <point x="172" y="50" type="curve" smooth="yes"/>
      <point x="172.642" y="42.295"/>
      <point x="175.345" y="34.1778"/>
      <point x="175.345" y="26.1777" type="curve" smooth="yes"/>
      <point x="175.345" y="21.7182"/>
      <point x="174.505" y="17.295"/>
      <point x="172" y="13" type="curve" smooth="yes"/>
      <point x="168" y="7"/>
      <point x="165" y="0"/>
      <point x="158" y="0" type="curve" smooth="yes"/>
      <point x="82" y="0" type="line" smooth="yes"/>
      <point x="74" y="0"/>
      <point x="67" y="9"/>
      <point x="67" y="16" type="curve" smooth="yes"/>
      <point x="64.8388" y="59.2236"/>
      <point x="63.7986" y="120.009"/>
      <point x="63.7986" y="184.305" type="curve" smooth="yes"/>
      <point x="63.7986" y="268.761"/>
      <point x="65.5934" y="359.275"/>
      <point x="69" y="424" type="curve" smooth="yes"/>
      <point x="69" y="430"/>
      <point x="74" y="437"/>
      <point x="81" y="437" type="curve" smooth="yes"/>
      <point x="155" y="437" type="line" smooth="yes"/>
      <point x="164" y="437"/>
      <point x="173" y="426"/>
    </contour>
  </outline>
</glyph>
<glyph name="afii10104" format="2">
  <advance width="230"/>
  <unicode hex="0457"/>
  <anchor x="109" y="702" name="Yerok"/>
  <anchor x="107" y="702" name="Diacritic"/>
  <outline>
    <contour>
      <point x="175.345" y="26.1777" type="curve" smooth="yes"/>
      <point x="175.345" y="15.7293"/>
      <point x="167.169" y="0"/>
      <point x="158" y="0" type="curve" smooth="yes"/>
      <point x="82" y="0" type="line" smooth="yes"/>
      <point x="74" y="0"/>
      <point x="67" y="9"/>
      <point x="67" y="16" type="curve" smooth="yes"/>
      <point x="64.8388" y="59.2236"/>
      <point x="63.7986" y="120.009"/>
      <point x="63.7986" y="184.305" type="curve" smooth="yes"/>
      <point x="63.7986" y="268.761"/>
      <point x="65.5934" y="359.275"/>
      <point x="69" y="424" type="curve" smooth="yes"/>
      <point x="69" y="430"/>
      <point x="74" y="437"/>
      <point x="81" y="437" type="curve" smooth="yes"/>
      <point x="155" y="437" type="line" smooth="yes"/>
      <point x="163.538" y="437"/>
      <point x="172.076" y="427.1"/>
      <point x="172.076" y="415.838" type="curve" smooth="yes"/>
      <point x="172.076" y="357.157"/>
      <point x="167.469" y="278.923"/>
      <point x="167.469" y="205.789" type="curve" smooth="yes"/>
      <point x="167.469" y="144.414"/>
      <point x="168.786" y="87.1925"/>
      <point x="172" y="50" type="curve" smooth="yes"/>
      <point x="172.642" y="42.295"/>
      <point x="175.345" y="34.1778"/>
    </contour>
    <contour>
      <point x="126" y="623" type="line" smooth="yes"/>
      <point x="124" y="629"/>
      <point x="128" y="636"/>
      <point x="135" y="636" type="curve" smooth="yes"/>
      <point x="181" y="636" type="line" smooth="yes"/>
      <point x="186" y="636"/>
      <point x="191" y="628"/>
      <point x="192" y="623" type="curve" smooth="yes"/>
      <point x="221" y="514" type="line" smooth="yes"/>
      <point x="223" y="508"/>
      <point x="217" y="501"/>
      <point x="210" y="501" type="curve" smooth="yes"/>
      <point x="168" y="501" type="line" smooth="yes"/>
      <point x="163" y="501"/>
      <point x="156" y="509"/>
      <point x="155" y="514" type="curve" smooth="yes"/>
    </contour>
    <contour>
      <point x="0" y="623" type="line" smooth="yes"/>
      <point x="-2" y="629"/>
      <point x="2" y="636"/>
      <point x="9" y="636" type="curve" smooth="yes"/>
      <point x="53" y="636" type="line" smooth="yes"/>
      <point x="58" y="636"/>
      <point x="65" y="628"/>
      <point x="66" y="623" type="curve" smooth="yes"/>
      <point x="95" y="514" type="line" smooth="yes"/>
      <point x="97" y="508"/>
      <point x="91" y="501"/>
      <point x="84" y="501" type="curve" smooth="yes"/>
      <point x="42" y="501" type="line" smooth="yes"/>
      <point x="37" y="501"/>
      <point x="30" y="509"/>
      <point x="29" y="514" type="curve" smooth="yes"/>
    </contour>
  </outline>
</glyph>
<glyph name="uni0458" format="2">
  <advance width="278"/>
  <unicode hex="0458"/>
  <anchor x="130" y="714" name="Diacritic"/>
  <anchor x="300" y="714" name="Yerok"/>
  <outline>
    <contour>
      <point x="192" y="202" type="curve" smooth="yes"/>
      <point x="192" y="130.899"/>
      <point x="199" y="37.223"/>
      <point x="199" y="-29" type="curve" smooth="yes"/>
      <point x="199" y="-44" type="line" smooth="yes"/>
      <point x="197" y="-93"/>
      <point x="187" y="-132"/>
      <point x="157" y="-177" type="curve" smooth="yes"/>
      <point x="130" y="-217"/>
      <point x="84" y="-244"/>
      <point x="4" y="-244" type="curve" smooth="yes"/>
      <point x="-40" y="-244"/>
      <point x="-98" y="-220"/>
      <point x="-152" y="-160" type="curve"/>
      <point x="-135" y="-137" type="line"/>
      <point x="-102.95" y="-164.471"/>
      <point x="-60.788" y="-192.927"/>
      <point x="-20" y="-194" type="curve" smooth="yes"/>
      <point x="-17" y="-194" type="line" smooth="yes"/>
      <point x="54.2978" y="-194"/>
      <point x="86" y="-106.29"/>
      <point x="86" y="-27" type="curve" smooth="yes"/>
      <point x="86" y="11.685"/>
      <point x="80" y="134.571"/>
      <point x="80" y="179" type="curve" smooth="yes"/>
      <point x="80" y="293.115"/>
      <point x="82.9385" y="337.325"/>
      <point x="92" y="437" type="curve"/>
      <point x="203" y="437" type="line"/>
      <point x="192.517" y="330.071"/>
      <point x="192" y="316.204"/>
    </contour>
    <contour>
      <point x="91" y="526" type="line"/>
      <point x="73" y="637" type="line"/>
      <point x="180" y="637" type="line"/>
      <point x="200" y="526" type="line"/>
    </contour>
  </outline>
</glyph>
<glyph name="uni0459" format="2">
  <advance width="628"/>
  <unicode hex="0459"/>
  <anchor x="369" y="519" name="Yerok"/>
  <anchor x="258" y="519" name="Diacritic"/>
  <outline>
    <contour>
      <point x="350" y="175" type="curve"/>
      <point x="356" y="125"/>
      <point x="366" y="80"/>
      <point x="375" y="40" type="curve"/>
      <point x="470" y="40" type="line" smooth="yes"/>
      <point x="474" y="40"/>
      <point x="473" y="46"/>
      <point x="473" y="50" type="curve" smooth="yes"/>
      <point x="462" y="86"/>
      <point x="416" y="175"/>
    </contour>
    <contour>
      <point x="578" y="0" type="curve" smooth="yes"/>
      <point x="483.667" y="-0"/>
      <point x="389.333" y="0"/>
      <point x="295" y="0" type="curve" smooth="yes"/>
      <point x="281" y="0"/>
      <point x="271" y="17"/>
      <point x="270" y="30" type="curve" smooth="yes"/>
      <point x="259" y="119"/>
      <point x="247" y="193"/>
      <point x="233" y="263" type="curve"/>
      <point x="208.495" y="209.089"/>
      <point x="176.419" y="168.009"/>
      <point x="153" y="120" type="curve" smooth="yes"/>
      <point x="147" y="106"/>
      <point x="145" y="89"/>
      <point x="145" y="75" type="curve" smooth="yes"/>
      <point x="145" y="65"/>
      <point x="146" y="57"/>
      <point x="146" y="51" type="curve" smooth="yes"/>
      <point x="146" y="40"/>
      <point x="154" y="33"/>
      <point x="154" y="22" type="curve" smooth="yes"/>
      <point x="154" y="11"/>
      <point x="149" y="0"/>
      <point x="138" y="0" type="curve" smooth="yes"/>
      <point x="49" y="0" type="line" smooth="yes"/>
      <point x="38" y="0"/>
      <point x="30" y="11"/>
      <point x="30" y="21" type="curve" smooth="yes"/>
      <point x="30" y="51"/>
      <point x="64" y="101"/>
      <point x="95" y="141" type="curve" smooth="yes"/>
      <point x="129" y="185"/>
      <point x="153" y="210"/>
      <point x="184" y="254" type="curve" smooth="yes"/>
      <point x="200" y="278"/>
      <point x="211" y="304"/>
      <point x="217" y="330" type="curve"/>
      <point x="208" y="366" type="line"/>
      <point x="207" y="376"/>
      <point x="195" y="387"/>
      <point x="195" y="402" type="curve" smooth="yes"/>
      <point x="195" y="417"/>
      <point x="199" y="436"/>
      <point x="219" y="436" type="curve" smooth="yes"/>
      <point x="290" y="436" type="line" smooth="yes"/>
      <point x="300" y="436"/>
      <point x="308" y="439"/>
      <point x="308" y="433" type="curve" smooth="yes"/>
      <point x="319" y="367"/>
      <point x="330" y="288"/>
      <point x="345" y="209" type="curve"/>
      <point x="345" y="209"/>
      <point x="425" y="226"/>
      <point x="434" y="230" type="curve" smooth="yes"/>
      <point x="445" y="234"/>
      <point x="455" y="239"/>
      <point x="465" y="239" type="curve" smooth="yes"/>
      <point x="471" y="239"/>
      <point x="479" y="236"/>
      <point x="483" y="230" type="curve" smooth="yes"/>
      <point x="533" y="156"/>
      <point x="561" y="101"/>
      <point x="595" y="21" type="curve" smooth="yes"/>
      <point x="596.017" y="18.762"/>
      <point x="596.496" y="16.5655"/>
      <point x="596.496" y="14.4861" type="curve" smooth="yes"/>
      <point x="596.496" y="6.34489"/>
      <point x="589.152" y="0"/>
    </contour>
  </outline>
</glyph>
<glyph name="uni045A" format="2">
  <advance width="623"/>
  <unicode hex="045A"/>
  <anchor x="368" y="519" name="Yerok"/>
  <anchor x="228" y="519" name="Diacritic"/>
  <outline>
    <contour>
      <point x="303" y="0" type="line" smooth="yes"/>
      <point x="294" y="0"/>
      <point x="288" y="10"/>
      <point x="288" y="16" type="curve" smooth="yes"/>
      <point x="288" y="60"/>
      <point x="282" y="119"/>
      <point x="282" y="183" type="curve"/>
      <point x="161" y="239" type="line"/>
      <point x="161" y="165"/>
      <point x="164" y="95"/>
      <point x="164" y="50" type="curve" smooth="yes"/>
      <point x="164" y="41"/>
      <point x="166" y="35"/>
      <point x="166" y="26" type="curve" smooth="yes"/>
      <point x="166" y="22"/>
      <point x="164" y="17"/>
      <point x="164" y="13" type="curve" smooth="yes"/>
      <point x="163" y="7"/>
      <point x="156" y="0"/>
      <point x="150" y="0" type="curve" smooth="yes"/>
      <point x="75" y="0" type="line" smooth="yes"/>
      <point x="66" y="0"/>
      <point x="60" y="10"/>
      <point x="60" y="16" type="curve" smooth="yes"/>
      <point x="60" y="116"/>
      <point x="65" y="309"/>
      <point x="65" y="424" type="curve" smooth="yes"/>
      <point x="65" y="430"/>
      <point x="72" y="436"/>
      <point x="78" y="436" type="curve" smooth="yes"/>
      <point x="150" y="436" type="line" smooth="yes"/>
      <point x="159" y="436"/>
      <point x="165" y="425"/>
      <point x="165" y="414" type="curve" smooth="yes"/>
      <point x="165" y="374"/>
      <point x="161" y="327"/>
      <point x="161" y="281" type="curve"/>
      <point x="282" y="228" type="line"/>
      <point x="282" y="299"/>
      <point x="290" y="370"/>
      <point x="290" y="424" type="curve" smooth="yes"/>
      <point x="290" y="430"/>
      <point x="294" y="436"/>
      <point x="300" y="436" type="curve" smooth="yes"/>
      <point x="373" y="436" type="line" smooth="yes"/>
      <point x="382" y="436"/>
      <point x="390" y="425"/>
      <point x="390" y="414" type="curve" smooth="yes"/>
      <point x="390" y="359"/>
      <point x="388" y="285"/>
      <point x="388" y="219" type="curve"/>
      <point x="401" y="223"/>
      <point x="414" y="224"/>
      <point x="430" y="230" type="curve" smooth="yes"/>
      <point x="440" y="234"/>
      <point x="453" y="239"/>
      <point x="463" y="239" type="curve" smooth="yes"/>
      <point x="469" y="239"/>
      <point x="475" y="236"/>
      <point x="479" y="230" type="curve" smooth="yes"/>
      <point x="529" y="156"/>
      <point x="557" y="101"/>
      <point x="591" y="21" type="curve" smooth="yes"/>
      <point x="592.017" y="18.762"/>
      <point x="592.496" y="16.5655"/>
      <point x="592.496" y="14.4861" type="curve" smooth="yes"/>
      <point x="592.496" y="6.34489"/>
      <point x="585.152" y="0"/>
      <point x="574" y="0" type="curve" smooth="yes"/>
    </contour>
    <contour>
      <point x="384" y="174" type="curve"/>
      <point x="384" y="123"/>
      <point x="390" y="79"/>
      <point x="390" y="40" type="curve"/>
      <point x="470" y="40" type="line" smooth="yes"/>
      <point x="474" y="40"/>
      <point x="474" y="46"/>
      <point x="474" y="50" type="curve" smooth="yes"/>
      <point x="463" y="86"/>
      <point x="430" y="140"/>
    </contour>
  </outline>
</glyph>
<glyph name="uni0460" format="2">
  <advance width="972"/>
  <unicode hex="0460"/>
  <anchor x="820" y="754" name="Yerok"/>
  <anchor x="490" y="754" name="Diacritic"/>
  <outline>
    <contour>
      <point x="82" y="662" type="curve" smooth="yes"/>
      <point x="112" y="672"/>
      <point x="152" y="680"/>
      <point x="187" y="682" type="curve" smooth="yes"/>
      <point x="192" y="682"/>
      <point x="201" y="677"/>
      <point x="199" y="672" type="curve" smooth="yes"/>
      <point x="183" y="623"/>
      <point x="161" y="538"/>
      <point x="161" y="450" type="curve" smooth="yes"/>
      <point x="161" y="297"/>
      <point x="227" y="150"/>
      <point x="322" y="90" type="curve"/>
      <point x="343" y="107"/>
      <point x="401" y="163"/>
      <point x="438" y="202" type="curve"/>
      <point x="411" y="262"/>
      <point x="396" y="328"/>
      <point x="396" y="396" type="curve" smooth="yes"/>
      <point x="396" y="500"/>
      <point x="414" y="592"/>
      <point x="438" y="660" type="curve" smooth="yes"/>
      <point x="441" y="668"/>
      <point x="448" y="674"/>
      <point x="456" y="676" type="curve" smooth="yes"/>
      <point x="494" y="687"/>
      <point x="562" y="699"/>
      <point x="604" y="702" type="curve" smooth="yes"/>
      <point x="612" y="703"/>
      <point x="621" y="690"/>
      <point x="616" y="682" type="curve" smooth="yes"/>
      <point x="573" y="616"/>
      <point x="528" y="498"/>
      <point x="528" y="380" type="curve" smooth="yes"/>
      <point x="528" y="245"/>
      <point x="589" y="144"/>
      <point x="686" y="90" type="curve"/>
      <point x="755" y="141"/>
      <point x="823" y="265"/>
      <point x="823" y="390" type="curve" smooth="yes"/>
      <point x="823" y="482"/>
      <point x="807" y="557"/>
      <point x="771" y="623" type="curve" smooth="yes"/>
      <point x="768" y="628"/>
      <point x="771" y="636"/>
      <point x="775" y="639" type="curve" smooth="yes"/>
      <point x="808" y="660"/>
      <point x="851" y="682"/>
      <point x="895" y="693" type="curve" smooth="yes"/>
      <point x="900" y="694"/>
      <point x="903" y="688"/>
      <point x="905" y="683" type="curve" smooth="yes"/>
      <point x="918" y="644"/>
      <point x="939" y="579"/>
      <point x="939" y="512" type="curve" smooth="yes"/>
      <point x="939" y="284"/>
      <point x="824" y="77"/>
      <point x="654" y="-4" type="curve" smooth="yes"/>
      <point x="646" y="-8"/>
      <point x="640" y="-8"/>
      <point x="632" y="-4" type="curve" smooth="yes"/>
      <point x="561" y="28"/>
      <point x="502" y="86"/>
      <point x="460" y="158" type="curve"/>
      <point x="410" y="105"/>
      <point x="323" y="19"/>
      <point x="295" y="-4" type="curve" smooth="yes"/>
      <point x="290" y="-8"/>
      <point x="282" y="-6"/>
      <point x="279" y="-4" type="curve" smooth="yes"/>
      <point x="108" y="97"/>
      <point x="38" y="272"/>
      <point x="38" y="482" type="curve" smooth="yes"/>
      <point x="38" y="542"/>
      <point x="50" y="604"/>
      <point x="70" y="652" type="curve" smooth="yes"/>
      <point x="72" y="657"/>
      <point x="76" y="660"/>
    </contour>
  </outline>
</glyph>
<glyph name="uni0461" format="2">
  <advance width="699"/>
  <unicode hex="0461"/>
  <anchor x="568" y="502" name="Yerok"/>
  <anchor x="353" y="516" name="Diacritic"/>
  <outline>
    <contour>
      <point x="49" y="389" type="curve" smooth="yes"/>
      <point x="51" y="403"/>
      <point x="59" y="414"/>
      <point x="72" y="418" type="curve" smooth="yes"/>
      <point x="109" y="429"/>
      <point x="142" y="436"/>
      <point x="182" y="439" type="curve" smooth="yes"/>
      <point x="193" y="440"/>
      <point x="200" y="422"/>
      <point x="194" y="413" type="curve" smooth="yes"/>
      <point x="183" y="396"/>
      <point x="163" y="383"/>
      <point x="147" y="369" type="curve" smooth="yes"/>
      <point x="145" y="367"/>
      <point x="141" y="362"/>
      <point x="141" y="359" type="curve" smooth="yes"/>
      <point x="139.469" y="343.549"/>
      <point x="138.713" y="328.157"/>
      <point x="138.713" y="312.954" type="curve" smooth="yes"/>
      <point x="138.713" y="218.941"/>
      <point x="167.63" y="132.205"/>
      <point x="221" y="84" type="curve"/>
      <point x="258" y="98"/>
      <point x="284" y="131"/>
      <point x="304" y="163" type="curve"/>
      <point x="285.566" y="212.925"/>
      <point x="279.521" y="277.008"/>
      <point x="279.521" y="334.407" type="curve" smooth="yes"/>
      <point x="279.521" y="351.739"/>
      <point x="280.072" y="368.461"/>
      <point x="281" y="384" type="curve" smooth="yes"/>
      <point x="281" y="394"/>
      <point x="288" y="415"/>
      <point x="299" y="417" type="curve" smooth="yes"/>
      <point x="334" y="422"/>
      <point x="384" y="431"/>
      <point x="430" y="447" type="curve" smooth="yes"/>
      <point x="439" y="450"/>
      <point x="450" y="438"/>
      <point x="445" y="429" type="curve" smooth="yes"/>
      <point x="415" y="376"/>
      <point x="384" y="306"/>
      <point x="384" y="222" type="curve" smooth="yes"/>
      <point x="384" y="154"/>
      <point x="427" y="93"/>
      <point x="488" y="71" type="curve"/>
      <point x="534.214" y="86.7324"/>
      <point x="563.025" y="153.707"/>
      <point x="563.025" y="211.081" type="curve" smooth="yes"/>
      <point x="563.025" y="212.057"/>
      <point x="563.017" y="213.03"/>
      <point x="563" y="214" type="curve" smooth="yes"/>
      <point x="562" y="279"/>
      <point x="550" y="333"/>
      <point x="507" y="370" type="curve" smooth="yes"/>
      <point x="500" y="376"/>
      <point x="500" y="392"/>
      <point x="507" y="394" type="curve" smooth="yes"/>
      <point x="545" y="404"/>
      <point x="579" y="422"/>
      <point x="614" y="443" type="curve" smooth="yes"/>
      <point x="615.479" y="443.925"/>
      <point x="617.266" y="444.336"/>
      <point x="619.215" y="444.336" type="curve" smooth="yes"/>
      <point x="627.808" y="444.336"/>
      <point x="639.555" y="436.336"/>
      <point x="642" y="429" type="curve" smooth="yes"/>
      <point x="651" y="404"/>
      <point x="659" y="347"/>
      <point x="659" y="309" type="curve" smooth="yes"/>
      <point x="659" y="217"/>
      <point x="612" y="58"/>
      <point x="489" y="-4" type="curve" smooth="yes"/>
      <point x="483" y="-7"/>
      <point x="479" y="-6"/>
      <point x="472" y="-4" type="curve" smooth="yes"/>
      <point x="418" y="16"/>
      <point x="374" y="51"/>
      <point x="335" y="105" type="curve"/>
      <point x="299" y="58"/>
      <point x="254" y="21"/>
      <point x="204" y="-4" type="curve" smooth="yes"/>
      <point x="199" y="-7"/>
      <point x="195" y="-6"/>
      <point x="189" y="-4" type="curve" smooth="yes"/>
      <point x="156" y="9"/>
      <point x="124" y="47"/>
      <point x="98" y="89" type="curve" smooth="yes"/>
      <point x="57.7203" y="154.18"/>
      <point x="44.258" y="238.668"/>
      <point x="44.258" y="313.006" type="curve" smooth="yes"/>
      <point x="44.258" y="340.172"/>
      <point x="46.0559" y="365.983"/>
    </contour>
  </outline>
</glyph>
<glyph name="uni0462" format="2">
  <advance width="744"/>
  <unicode hex="0462"/>
  <anchor x="580" y="754" name="Yerok"/>
  <anchor x="340" y="754" name="Diacritic"/>
  <outline>
    <contour>
      <point x="398" y="636" type="line"/>
      <point x="398" y="575" type="line"/>
      <point x="641" y="575" type="line" smooth="yes"/>
      <point x="648.734" y="575"/>
      <point x="652.262" y="567.756"/>
      <point x="652.262" y="559.256" type="curve" smooth="yes"/>
      <point x="652.262" y="550.171"/>
      <point x="648.233" y="539.65"/>
      <point x="641" y="535" type="curve" smooth="yes"/>
      <point x="616" y="519"/>
      <point x="592" y="478"/>
      <point x="576" y="444" type="curve" smooth="yes"/>
      <point x="575" y="441"/>
      <point x="565" y="441"/>
      <point x="564" y="444" type="curve" smooth="yes"/>
      <point x="552" y="473"/>
      <point x="530" y="517"/>
      <point x="500" y="535" type="curve"/>
      <point x="398" y="535" type="line"/>
      <point x="398" y="377" type="line"/>
      <point x="443" y="363"/>
      <point x="475" y="356"/>
      <point x="520" y="349" type="curve" smooth="yes"/>
      <point x="578" y="338"/>
      <point x="626" y="334"/>
      <point x="703" y="334" type="curve"/>
      <point x="703" y="294" type="line"/>
      <point x="678" y="294" type="line"/>
      <point x="678" y="40" type="line"/>
      <point x="722" y="40" type="line"/>
      <point x="722" y="0" type="line"/>
      <point x="226" y="0" type="line"/>
      <point x="226" y="40" type="line"/>
      <point x="280" y="40" type="line"/>
      <point x="280" y="535" type="line"/>
      <point x="163" y="535" type="line"/>
      <point x="163" y="315" type="line"/>
      <point x="57" y="315" type="line"/>
      <point x="57" y="535" type="line"/>
      <point x="3" y="535" type="line"/>
      <point x="3" y="575" type="line"/>
      <point x="280" y="575" type="line"/>
      <point x="280" y="636" type="line"/>
      <point x="226" y="636" type="line"/>
      <point x="226" y="676" type="line"/>
      <point x="452" y="676" type="line"/>
      <point x="452" y="636" type="line"/>
    </contour>
    <contour>
      <point x="560" y="302" type="line"/>
      <point x="500.986" y="309.377"/>
      <point x="449.138" y="319.659"/>
      <point x="398" y="335" type="curve"/>
      <point x="398" y="40" type="line"/>
      <point x="560" y="40" type="line"/>
    </contour>
  </outline>
</glyph>
<glyph name="uni0464" format="2">
  <advance width="786"/>
  <unicode hex="0464"/>
  <anchor x="660" y="754" name="Yerok"/>
  <anchor x="380" y="754" name="Diacritic"/>
  <outline>
    <contour>
      <point x="248" y="0" type="line"/>
      <point x="22" y="0" type="line"/>
      <point x="22" y="40" type="line"/>
      <point x="76" y="40" type="line"/>
      <point x="76" y="636" type="line"/>
      <point x="22" y="636" type="line"/>
      <point x="22" y="676" type="line"/>
      <point x="248" y="676" type="line"/>
      <point x="248" y="636" type="line"/>
      <point x="194" y="636" type="line"/>
      <point x="194" y="341" type="line"/>
      <point x="286.084" y="387.516" type="line" smooth="yes"/>
      <point x="286.028" y="390.628"/>
      <point x="286" y="393.788"/>
      <point x="286" y="397" type="curve" smooth="yes"/>
      <point x="286" y="551"/>
      <point x="380" y="684"/>
      <point x="530" y="684" type="curve" smooth="yes"/>
      <point x="670" y="684"/>
      <point x="735" y="604"/>
      <point x="735" y="531" type="curve"/>
      <point x="759" y="531" type="line"/>
      <point x="759" y="491" type="line"/>
      <point x="592" y="491" type="line"/>
      <point x="592" y="531" type="line"/>
      <point x="626" y="531" type="line"/>
      <point x="626" y="574"/>
      <point x="609" y="645"/>
      <point x="529" y="645" type="curve" smooth="yes"/>
      <point x="429" y="645"/>
      <point x="398" y="530"/>
      <point x="398" y="430" type="curve" smooth="yes"/>
      <point x="398" y="393"/>
      <point x="405" y="362"/>
      <point x="414" y="333" type="curve"/>
      <point x="447" y="397"/>
      <point x="503" y="437"/>
      <point x="576" y="437" type="curve" smooth="yes"/>
      <point x="691" y="437"/>
      <point x="739" y="363"/>
      <point x="739" y="264" type="curve"/>
      <point x="624" y="264" type="line" smooth="yes"/>
      <point x="624.021" y="265.285"/>
      <point x="624.031" y="266.568"/>
      <point x="624.031" y="267.85" type="curve" smooth="yes"/>
      <point x="624.031" y="328.379"/>
      <point x="600.777" y="384"/>
      <point x="543" y="384" type="curve" smooth="yes"/>
      <point x="497" y="384"/>
      <point x="455" y="327"/>
      <point x="431" y="271" type="curve"/>
      <point x="448" y="198"/>
      <point x="452" y="123"/>
      <point x="452" y="68" type="curve" smooth="yes"/>
      <point x="452" y="60"/>
      <point x="452" y="52"/>
      <point x="452" y="45" type="curve"/>
      <point x="544" y="45"/>
      <point x="612" y="116"/>
      <point x="620" y="175" type="curve"/>
      <point x="734" y="175" type="line"/>
      <point x="718" y="67"/>
      <point x="610" y="-2"/>
      <point x="396" y="-2" type="curve"/>
      <point x="396.019" y="-0.655273"/>
      <point x="396.028" y="0.683594"/>
      <point x="396.028" y="2.0166" type="curve" smooth="yes"/>
      <point x="396.028" y="72.0195"/>
      <point x="370.477" y="125.121"/>
      <point x="343" y="184" type="curve" smooth="yes"/>
      <point x="315.262" y="242.558"/>
      <point x="296.429" y="285.087"/>
      <point x="289.246" y="341.777" type="curve" smooth="yes"/>
      <point x="288.515" y="341.837"/>
      <point x="287.767" y="341.912"/>
      <point x="287" y="342" type="curve" smooth="yes"/>
      <point x="194" y="296" type="line"/>
      <point x="194" y="40" type="line"/>
      <point x="248" y="40" type="line"/>
    </contour>
  </outline>
</glyph>
<glyph name="uni0466" format="2">
  <advance width="859"/>
  <unicode hex="0466"/>
  <anchor x="690" y="754" name="Yerok"/>
  <anchor x="410" y="754" name="Diacritic"/>
  <outline>
    <contour>
      <point x="837" y="0" type="line"/>
      <point x="605" y="0" type="line"/>
      <point x="605" y="40" type="line"/>
      <point x="659" y="40" type="line"/>
      <point x="662.571" y="53.5714"/>
      <point x="663.082" y="66.1224"/>
      <point x="663.082" y="80.5685" type="curve" smooth="yes"/>
      <point x="663.082" y="86.3469"/>
      <point x="663" y="92.4286"/>
      <point x="663" y="99" type="curve" smooth="yes"/>
      <point x="663" y="220"/>
      <point x="620" y="299"/>
      <point x="552" y="390" type="curve"/>
      <point x="486" y="390" type="line"/>
      <point x="486" y="40" type="line"/>
      <point x="540" y="40" type="line"/>
      <point x="540" y="0" type="line"/>
      <point x="314" y="0" type="line"/>
      <point x="314" y="40" type="line"/>
      <point x="368" y="40" type="line"/>
      <point x="368" y="390" type="line"/>
      <point x="297" y="390" type="line"/>
      <point x="283" y="372"/>
      <point x="269" y="353"/>
      <point x="254" y="334" type="curve" smooth="yes"/>
      <point x="201" y="264"/>
      <point x="176" y="206"/>
      <point x="176" y="119" type="curve" smooth="yes"/>
      <point x="176" y="88"/>
      <point x="185" y="54"/>
      <point x="193" y="40" type="curve"/>
      <point x="247" y="40" type="line"/>
      <point x="247" y="0" type="line"/>
      <point x="22" y="0" type="line"/>
      <point x="22" y="40" type="line"/>
      <point x="76" y="40" type="line"/>
      <point x="75" y="50"/>
      <point x="72" y="82"/>
      <point x="72" y="114" type="curve" smooth="yes"/>
      <point x="72" y="223"/>
      <point x="120" y="300"/>
      <point x="193" y="379" type="curve" smooth="yes"/>
      <point x="259" y="451"/>
      <point x="320" y="491"/>
      <point x="332" y="588" type="curve" smooth="yes"/>
      <point x="333.236" y="599.125"/>
      <point x="334.09" y="608.721"/>
      <point x="334.09" y="618.207" type="curve" smooth="yes"/>
      <point x="334.09" y="624.069"/>
      <point x="333.764" y="629.889"/>
      <point x="333" y="636" type="curve"/>
      <point x="272" y="636" type="line"/>
      <point x="272" y="676" type="line"/>
      <point x="559" y="676" type="line"/>
      <point x="559" y="636" type="line"/>
      <point x="505" y="636" type="line"/>
      <point x="507" y="621"/>
      <point x="511" y="610"/>
      <point x="520" y="597" type="curve" smooth="yes"/>
      <point x="554" y="550"/>
      <point x="598" y="506"/>
      <point x="646" y="446" type="curve" smooth="yes"/>
      <point x="722" y="351"/>
      <point x="793" y="253"/>
      <point x="793" y="127" type="curve" smooth="yes"/>
      <point x="793" y="93"/>
      <point x="787" y="62"/>
      <point x="783" y="40" type="curve"/>
      <point x="837" y="40" type="line"/>
    </contour>
    <contour>
      <point x="414" y="566" type="curve" smooth="yes"/>
      <point x="407" y="575"/>
      <point x="400" y="584"/>
      <point x="395" y="593" type="curve"/>
      <point x="384" y="525"/>
      <point x="359" y="476"/>
      <point x="327" y="430" type="curve"/>
      <point x="521" y="430" type="line"/>
      <point x="478" y="486"/>
      <point x="452" y="517"/>
    </contour>
  </outline>
</glyph>
<glyph name="uni046B" format="2">
  <advance width="724"/>
  <unicode hex="046B"/>
  <anchor x="350" y="502" name="Diacritic"/>
  <anchor x="553" y="502" name="Yerok"/>
  <outline>
    <contour>
      <point x="440.669" y="407.027" type="curve" smooth="yes"/>
      <point x="440.669" y="412.697"/>
      <point x="432.162" y="415.531"/>
      <point x="415.152" y="415.531" type="curve" smooth="yes"/>
      <point x="281.503" y="415.531" type="line" smooth="yes"/>
      <point x="265.303" y="415.531"/>
      <point x="257.204" y="412.292"/>
      <point x="257.204" y="405.812" type="curve" smooth="yes"/>
      <point x="257.204" y="402.572"/>
      <point x="260.444" y="398.117"/>
      <point x="266.924" y="392.447" type="curve" smooth="yes"/>
      <point x="354.404" y="304.966" type="line"/>
      <point x="428.52" y="387.587" type="line" smooth="yes"/>
      <point x="436.62" y="396.497"/>
      <point x="440.669" y="402.977"/>
    </contour>
    <contour>
      <point x="694.603" y="-0.00110688" type="curve"/>
      <point x="571.89" y="0.00195312" type="line"/>
      <point x="561.36" y="68.043"/>
      <point x="541.514" y="120.49"/>
      <point x="512.353" y="157.345" type="curve" smooth="yes"/>
      <point x="483.194" y="194.199"/>
      <point x="447.554" y="217.487"/>
      <point x="405.434" y="227.206" type="curve"/>
      <point x="405.434" y="129.196"/>
      <point x="407.864" y="53.4603"/>
      <point x="412.724" y="0.00025312" type="curve"/>
      <point x="300.943" y="0.00025312" type="line"/>
      <point x="303.374" y="16.2005"/>
      <point x="304.588" y="44.5501"/>
      <point x="304.588" y="85.0501" type="curve" smooth="yes"/>
      <point x="304.588" y="136.89"/>
      <point x="304.588" y="188.73"/>
      <point x="304.588" y="240.571" type="curve"/>
      <point x="196.858" y="210.6"/>
      <point x="138.942" y="130.41"/>
      <point x="130.843" y="0.00055312" type="curve"/>
      <point x="29.9984" y="0.00055312" type="line"/>
      <point x="64.8276" y="155.521"/>
      <point x="160.002" y="253.125"/>
      <point x="315.521" y="292.814" type="curve"/>
      <point x="206.172" y="403.38" type="line" smooth="yes"/>
      <point x="194.022" y="415.53"/>
      <point x="187.947" y="424.035"/>
      <point x="187.947" y="428.895" type="curve" smooth="yes"/>
      <point x="187.947" y="435.375"/>
      <point x="198.072" y="438.614"/>
      <point x="218.322" y="438.614" type="curve" smooth="yes"/>
      <point x="461.322" y="438.614" type="line" smooth="yes"/>
      <point x="487.243" y="438.614"/>
      <point x="500.203" y="435.779"/>
      <point x="500.203" y="430.11" type="curve" smooth="yes"/>
      <point x="500.203" y="425.25"/>
      <point x="494.533" y="417.15"/>
      <point x="483.192" y="405.811" type="curve" smooth="yes"/>
      <point x="388.423" y="303.75" type="line"/>
      <point x="495.251" y="286.308"/>
      <point x="559.002" y="247.196"/>
      <point x="614.414" y="173.744" type="curve" smooth="yes"/>
      <point x="654.104" y="121.093"/>
      <point x="680.833" y="63.1789"/>
    </contour>
  </outline>
</glyph>
<glyph name="uni046E" format="2">
  <advance width="597"/>
  <unicode hex="046E"/>
  <anchor x="490" y="964" name="Yerok"/>
  <anchor x="330" y="964" name="Diacritic"/>
  <outline>
    <contour>
      <point x="189" y="465" type="curve"/>
      <point x="223" y="465" type="line"/>
      <point x="223" y="425" type="line"/>
      <point x="41" y="425" type="line"/>
      <point x="41" y="465" type="line"/>
      <point x="75" y="465" type="line"/>
      <point x="75" y="571"/>
      <point x="149" y="667"/>
      <point x="271" y="679" type="curve"/>
      <point x="178" y="871" type="line" smooth="yes"/>
      <point x="176" y="876"/>
      <point x="179" y="881"/>
      <point x="183" y="881" type="curve" smooth="yes"/>
      <point x="260" y="881" type="line" smooth="yes"/>
      <point x="264" y="881"/>
      <point x="267" y="878"/>
      <point x="269" y="874" type="curve" smooth="yes"/>
      <point x="339" y="730" type="line"/>
      <point x="366" y="816" type="line" smooth="yes"/>
      <point x="375" y="843"/>
      <point x="387" y="863"/>
      <point x="411" y="876" type="curve" smooth="yes"/>
      <point x="415" y="878"/>
      <point x="419" y="882"/>
      <point x="425" y="882" type="curve" smooth="yes"/>
      <point x="525" y="882" type="line" smooth="yes"/>
      <point x="533.159" y="882"/>
      <point x="541.319" y="870.97"/>
      <point x="541.319" y="859.294" type="curve" smooth="yes"/>
      <point x="541.319" y="852.367"/>
      <point x="538.447" y="845.213"/>
      <point x="531" y="840" type="curve" smooth="yes"/>
      <point x="477" y="803" type="line" smooth="yes"/>
      <point x="473" y="800"/>
      <point x="472" y="801"/>
      <point x="467" y="800" type="curve" smooth="yes"/>
      <point x="464" y="799"/>
      <point x="418" y="788"/>
      <point x="418" y="788" type="curve" smooth="yes"/>
      <point x="413" y="787"/>
      <point x="412" y="783"/>
      <point x="410" y="779" type="curve" smooth="yes"/>
      <point x="364" y="679" type="line"/>
      <point x="366" y="675" type="line"/>
      <point x="472" y="660"/>
      <point x="556" y="608"/>
      <point x="556" y="504" type="curve" smooth="yes"/>
      <point x="556" y="422"/>
      <point x="483" y="371"/>
      <point x="437" y="358" type="curve"/>
      <point x="513" y="330"/>
      <point x="569" y="269"/>
      <point x="569" y="175" type="curve" smooth="yes"/>
      <point x="569" y="50"/>
      <point x="457" y="-6"/>
      <point x="322" y="-6" type="curve" smooth="yes"/>
      <point x="310.8" y="-6"/>
      <point x="296.24" y="-5.52"/>
      <point x="281.2" y="-5.52" type="curve" smooth="yes"/>
      <point x="258.64" y="-5.52"/>
      <point x="235" y="-6.6"/>
      <point x="220" y="-12" type="curve" smooth="yes"/>
      <point x="217" y="-13"/>
      <point x="216" y="-14"/>
      <point x="214" y="-16" type="curve" smooth="yes"/>
      <point x="187" y="-39"/>
      <point x="154" y="-84"/>
      <point x="154" y="-151" type="curve" smooth="yes"/>
      <point x="154" y="-209"/>
      <point x="172" y="-248"/>
      <point x="244" y="-248" type="curve" smooth="yes"/>
      <point x="314" y="-248"/>
      <point x="346" y="-214"/>
      <point x="390" y="-172" type="curve" smooth="yes"/>
      <point x="393" y="-169"/>
      <point x="395" y="-167"/>
      <point x="399" y="-166" type="curve" smooth="yes"/>
      <point x="409.901" y="-164.323"/>
      <point x="430.645" y="-160.537"/>
      <point x="447.673" y="-160.537" type="curve" smooth="yes"/>
      <point x="450.952" y="-160.537"/>
      <point x="454.093" y="-160.677"/>
      <point x="457" y="-161" type="curve"/>
      <point x="494" y="-201"/>
      <point x="514" y="-215"/>
      <point x="555" y="-249" type="curve" smooth="yes"/>
      <point x="560" y="-253"/>
      <point x="562" y="-260"/>
      <point x="556" y="-266" type="curve" smooth="yes"/>
      <point x="537.206" y="-282.914"/>
      <point x="502.519" y="-297.179"/>
      <point x="480.148" y="-297.179" type="curve" smooth="yes"/>
      <point x="478.712" y="-297.179"/>
      <point x="477.327" y="-297.121"/>
      <point x="476" y="-297" type="curve" smooth="yes"/>
      <point x="472" y="-297"/>
      <point x="468" y="-293"/>
      <point x="466" y="-291" type="curve" smooth="yes"/>
      <point x="436" y="-265"/>
      <point x="421" y="-246"/>
      <point x="400" y="-218" type="curve"/>
      <point x="354" y="-259"/>
      <point x="296" y="-310"/>
      <point x="205" y="-310" type="curve" smooth="yes"/>
      <point x="112" y="-310"/>
      <point x="51" y="-241"/>
      <point x="51" y="-157" type="curve" smooth="yes"/>
      <point x="51" y="-55"/>
      <point x="162" y="22"/>
      <point x="206" y="49" type="curve" smooth="yes"/>
      <point x="208" y="50"/>
      <point x="211" y="53"/>
      <point x="214" y="54" type="curve" smooth="yes"/>
      <point x="237.913" y="64.5217"/>
      <point x="259.31" y="67.2665"/>
      <point x="281.145" y="67.2665" type="curve" smooth="yes"/>
      <point x="304.964" y="67.2665"/>
      <point x="329.304" y="64"/>
      <point x="358" y="64" type="curve" smooth="yes"/>
      <point x="428" y="64"/>
      <point x="454" y="124"/>
      <point x="455" y="188" type="curve" smooth="yes"/>
      <point x="455.012" y="189.01"/>
      <point x="455.019" y="190.017"/>
      <point x="455.019" y="191.021" type="curve" smooth="yes"/>
      <point x="455.019" y="270.537"/>
      <point x="415.828" y="331"/>
      <point x="323" y="331" type="curve" smooth="yes"/>
      <point x="223" y="331"/>
      <point x="187" y="237"/>
      <point x="187" y="145" type="curve"/>
      <point x="221" y="145" type="line"/>
      <point x="221" y="105" type="line"/>
      <point x="33" y="105" type="line"/>
      <point x="33" y="145" type="line"/>
      <point x="67" y="145" type="line"/>
      <point x="67" y="292"/>
      <point x="183" y="378"/>
      <point x="323" y="378" type="curve" smooth="yes"/>
      <point x="332" y="378"/>
      <point x="340" y="377"/>
      <point x="349" y="377" type="curve" smooth="yes"/>
      <point x="388" y="395"/>
      <point x="441" y="433"/>
      <point x="441" y="513" type="curve" smooth="yes"/>
      <point x="441" y="582"/>
      <point x="389" y="635"/>
      <point x="313" y="635" type="curve" smooth="yes"/>
      <point x="215.805" y="635"/>
      <point x="188.973" y="557.891"/>
      <point x="188.973" y="469.913" type="curve" smooth="yes"/>
      <point x="188.973" y="468.279"/>
      <point x="188.982" y="466.641"/>
    </contour>
  </outline>
</glyph>
<glyph name="uni0471" format="2">
  <advance width="853"/>
  <unicode hex="0471"/>
  <anchor x="668" y="532" name="Yerok"/>
  <anchor x="417" y="892" name="Diacritic"/>
  <outline>
    <contour>
      <point x="258" y="-7" type="curve" smooth="yes"/>
      <point x="250" y="-8"/>
      <point x="243" y="-1"/>
      <point x="241" y="6" type="curve" smooth="yes"/>
      <point x="201" y="178"/>
      <point x="109" y="335"/>
      <point x="28" y="437" type="curve" smooth="yes"/>
      <point x="24" y="442"/>
      <point x="31" y="457"/>
      <point x="39" y="458" type="curve" smooth="yes"/>
      <point x="48.9312" y="459.354"/>
      <point x="66.8096" y="459.893"/>
      <point x="85.1843" y="459.893" type="curve" smooth="yes"/>
      <point x="107.514" y="459.893"/>
      <point x="130.577" y="459.097"/>
      <point x="141" y="458" type="curve" smooth="yes"/>
      <point x="149" y="457"/>
      <point x="153" y="450"/>
      <point x="157" y="444" type="curve" smooth="yes"/>
      <point x="216" y="350"/>
      <point x="309" y="157"/>
      <point x="348" y="53" type="curve"/>
      <point x="355" y="54"/>
      <point x="362" y="55"/>
      <point x="370" y="56" type="curve"/>
      <point x="369" y="65"/>
      <point x="369" y="73"/>
      <point x="369" y="82" type="curve" smooth="yes"/>
      <point x="366" y="313"/>
      <point x="359" y="535"/>
      <point x="341" y="710" type="curve" smooth="yes"/>
      <point x="340" y="724"/>
      <point x="329" y="727"/>
      <point x="313" y="739" type="curve" smooth="yes"/>
      <point x="308.346" y="742.385"/>
      <point x="306.019" y="748.991"/>
      <point x="306.019" y="755.563" type="curve" smooth="yes"/>
      <point x="306.019" y="764.525"/>
      <point x="310.346" y="773.423"/>
      <point x="319" y="774" type="curve" smooth="yes"/>
      <point x="395" y="779"/>
      <point x="432" y="778"/>
      <point x="493" y="794" type="curve" smooth="yes"/>
      <point x="493.709" y="794.189"/>
      <point x="494.407" y="794.28"/>
      <point x="495.093" y="794.28" type="curve" smooth="yes"/>
      <point x="505.373" y="794.28"/>
      <point x="512.83" y="773.87"/>
      <point x="512.83" y="758.717" type="curve" smooth="yes"/>
      <point x="512.83" y="753.51"/>
      <point x="511.949" y="748.924"/>
      <point x="510" y="746" type="curve" smooth="yes"/>
      <point x="500" y="732"/>
      <point x="499" y="731"/>
      <point x="497" y="708" type="curve" smooth="yes"/>
      <point x="485" y="552"/>
      <point x="470" y="322"/>
      <point x="452" y="70" type="curve" smooth="yes"/>
      <point x="451" y="66"/>
      <point x="451" y="62"/>
      <point x="451" y="59" type="curve"/>
      <point x="459" y="59"/>
      <point x="467" y="58"/>
      <point x="475" y="58" type="curve"/>
      <point x="504" y="234"/>
      <point x="602" y="466"/>
      <point x="763" y="482" type="curve" smooth="yes"/>
      <point x="764.956" y="482.21"/>
      <point x="766.877" y="482.312"/>
      <point x="768.765" y="482.312" type="curve" smooth="yes"/>
      <point x="793.904" y="482.312"/>
      <point x="813.048" y="464.184"/>
      <point x="827" y="440" type="curve" smooth="yes"/>
      <point x="830" y="435"/>
      <point x="827" y="429"/>
      <point x="826" y="424" type="curve" smooth="yes"/>
      <point x="818" y="394"/>
      <point x="776" y="331"/>
      <point x="747" y="313" type="curve" smooth="yes"/>
      <point x="744" y="311"/>
      <point x="736" y="314"/>
      <point x="733" y="317" type="curve" smooth="yes"/>
      <point x="711" y="337"/>
      <point x="694" y="356"/>
      <point x="677" y="377" type="curve"/>
      <point x="626" y="327"/>
      <point x="562" y="227"/>
      <point x="550" y="120" type="curve" smooth="yes"/>
      <point x="548.292" y="105.991"/>
      <point x="547.517" y="93.0324"/>
      <point x="547.517" y="80.9252" type="curve" smooth="yes"/>
      <point x="547.517" y="57.599"/>
      <point x="550.392" y="37.4327"/>
      <point x="555" y="19" type="curve" smooth="yes"/>
      <point x="557" y="11"/>
      <point x="549" y="2"/>
      <point x="541" y="3" type="curve" smooth="yes"/>
      <point x="508" y="7"/>
      <point x="478" y="9"/>
      <point x="449" y="10" type="curve"/>
      <point x="446" y="-100"/>
      <point x="437" y="-309"/>
      <point x="425" y="-422" type="curve" smooth="yes"/>
      <point x="424" y="-430"/>
      <point x="430" y="-445"/>
      <point x="437" y="-447" type="curve" smooth="yes"/>
      <point x="442.367" y="-448.342"/>
      <point x="447.589" y="-448.819"/>
      <point x="452.726" y="-448.819" type="curve" smooth="yes"/>
      <point x="465.424" y="-448.819"/>
      <point x="477.596" y="-445.901"/>
      <point x="490.118" y="-445.901" type="curve" smooth="yes"/>
      <point x="491.408" y="-445.901"/>
      <point x="492.702" y="-445.932"/>
      <point x="494" y="-446" type="curve" smooth="yes"/>
      <point x="512.13" y="-447.007"/>
      <point x="520.876" y="-456.638"/>
      <point x="520.876" y="-467.612" type="curve" smooth="yes"/>
      <point x="520.876" y="-478.427"/>
      <point x="512.38" y="-490.547"/>
      <point x="496" y="-497" type="curve" smooth="yes"/>
      <point x="467" y="-509"/>
      <point x="438" y="-511"/>
      <point x="404" y="-511" type="curve" smooth="yes"/>
      <point x="374.442" y="-511"/>
      <point x="345.792" y="-478.27"/>
      <point x="345.792" y="-448.353" type="curve" smooth="yes"/>
      <point x="345.792" y="-446.894"/>
      <point x="345.86" y="-445.442"/>
      <point x="346" y="-444" type="curve" smooth="yes"/>
      <point x="360" y="-304"/>
      <point x="371" y="-94"/>
      <point x="371" y="8" type="curve"/>
      <point x="335" y="6"/>
      <point x="299" y="0"/>
    </contour>
  </outline>
</glyph>
